<?xml version="1.0" encoding="UTF-8" standalone="no"?>
<!DOCTYPE svg PUBLIC "-//W3C//DTD SVG 1.1//EN" "http://www.w3.org/Graphics/SVG/1.1/DTD/svg11.dtd">
<svg xmlns="http://www.w3.org/2000/svg" version="1.1" viewBox="0 0 14 14">
<g stroke-width="2.00" fill="none" stroke-linecap="butt">
<path stroke="#a4e7eb" vector-effect="non-scaling-stroke" d="
  M 320.30 8.29
  C 319.97 8.45 319.70 8.64 319.51 8.85
  C 319.35 9.03 319.47 9.33 319.73 9.40
  C 400.51 30.73 464.63 88.17 494.31 165.73
  C 495.85 169.76 497.20 173.86 498.35 178.03
  C 498.45 178.39 498.67 178.66 498.93 178.71
  C 499.24 178.78 499.52 178.71 499.79 178.50"
/>
<path stroke="#9ce4e9" vector-effect="non-scaling-stroke" d="
  M 510.96 277.25
  C 508.44 276.75 508.78 282.64 508.53 284.26
  C 507.75 289.24 507.29 294.70 506.71 298.24
  C 502.87 321.84 496.40 343.43 487.29 363.01
  C 457.05 428.02 400.28 477.95 331.07 499.26
  C 330.47 499.45 328.63 500.76 330.75 500.71"
/>
<path stroke="#a4e7eb" vector-effect="non-scaling-stroke" d="
  M 173.00 498.04
  C 173.83 497.64 173.76 497.27 172.81 496.93
  C 94.63 469.42 34.37 406.92 11.51 326.83
  C 11.40 326.46 11.18 326.19 10.93 326.11
  C 10.62 326.02 10.29 326.06 9.96 326.25"
/>
<path stroke="#9ce4e9" vector-effect="non-scaling-stroke" d="
  M 10.96 182.25
  C 11.19 182.61 11.49 182.77 11.88 182.72
  C 12.15 182.69 12.41 182.45 12.53 182.11
  C 14.26 177.25 15.99 172.39 17.72 167.54
  C 27.69 139.57 42.28 114.31 61.49 91.74
  C 90.32 57.86 125.58 33.11 167.27 17.48
  C 168.46 17.04 168.53 16.53 167.50 15.96"
/>
<path stroke="#59bac6" vector-effect="non-scaling-stroke" d="
  M 306.93 129.05
  C 309.58 131.92 312.31 134.70 315.12 137.39
  C 319.12 141.22 324.42 137.14 328.28 134.02
  C 330.97 131.85 331.26 129.94 330.06 126.60
  C 328.87 123.28 327.79 119.90 326.82 116.45
  C 326.74 116.16 326.80 115.84 326.98 115.57
  L 331.20 109.56
  C 331.39 109.30 331.68 109.13 331.98 109.12
  C 337.34 108.92 347.65 111.13 349.32 104.40
  C 350.64 99.03 353.72 93.87 347.15 90.31
  C 344.16 88.68 341.13 87.14 338.04 85.69
  C 337.52 85.45 337.13 84.85 336.99 84.09
  L 335.96 78.65
  C 335.81 77.85 336.00 77.11 336.45 76.71
  C 339.29 74.16 347.36 67.13 346.19 63.06
  C 345.52 60.73 344.13 58.13 342.00 55.26
  C 338.63 50.74 335.45 52.41 330.33 54.13
  C 328.05 54.89 325.78 55.70 323.53 56.55
  C 323.26 56.65 322.94 56.59 322.68 56.40
  L 316.70 51.77
  C 316.45 51.57 316.31 51.27 316.32 50.97
  C 316.46 47.52 317.42 38.64 315.52 35.95
  C 313.57 33.19 307.66 32.44 304.45 31.92
  C 298.62 30.97 295.56 40.32 293.20 45.30
  C 293.07 45.57 292.80 45.76 292.48 45.80
  L 284.75 46.96
  C 284.44 47.00 284.13 46.90 283.92 46.69
  L 274.91 37.57
  C 273.66 36.30 272.14 35.95 270.36 36.50
  C 266.45 37.73 258.42 41.92 259.79 47.21
  C 260.11 48.45 261.42 52.31 263.73 58.78
  C 263.84 59.09 263.79 59.42 263.61 59.66
  L 258.38 66.44
  C 258.19 66.68 257.89 66.82 257.56 66.81
  C 251.90 66.60 241.58 64.16 240.02 72.11
  C 239.09 76.83 236.58 81.95 242.42 84.76
  C 245.73 86.35 249.03 88.02 252.32 89.75
  C 252.57 89.88 252.75 90.16 252.81 90.49
  L 254.12 98.44
  C 254.17 98.77 254.08 99.08 253.88 99.28
  C 250.76 102.36 247.70 105.49 244.69 108.68
  C 241.23 112.36 248.04 122.46 252.05 123.32
  C 255.24 124.00 262.80 120.52 266.04 119.30
  C 266.33 119.19 266.66 119.23 266.91 119.42
  L 273.79 124.50
  C 274.05 124.69 274.19 124.99 274.17 125.30
  C 273.99 128.71 273.17 136.96 274.76 139.82
  C 276.37 142.69 282.72 143.43 285.76 144.23
  C 291.34 145.71 295.03 134.71 297.07 130.80
  C 297.33 130.31 297.88 129.95 298.56 129.82
  L 305.35 128.61
  C 305.98 128.50 306.57 128.67 306.93 129.05"
/>
<path stroke="#8fdde3" vector-effect="non-scaling-stroke" d="
  M 109.84 190.10
  C 105.65 189.71 101.61 189.93 97.73 190.75
  C 85.49 193.35 82.13 201.10 82.14 212.55
  C 82.23 272.79 82.27 333.03 82.27 393.26
  C 82.27 404.48 89.38 414.74 101.71 413.45
  C 102.37 413.38 103.52 412.79 102.50 412.04"
/>
<path stroke="#418a99" vector-effect="non-scaling-stroke" d="
  M 102.50 412.04
  L 207.81 412.01"
/>
<path stroke="#417d84" vector-effect="non-scaling-stroke" d="
  M 207.81 412.01
  L 208.00 451.96"
/>
<path stroke="#418a99" vector-effect="non-scaling-stroke" d="
  M 208.00 451.96
  L 187.53 451.95
  C 187.19 451.94 186.87 452.03 186.62 452.21
  C 182.96 454.73 182.96 457.24 186.63 459.75
  C 186.90 459.93 187.22 460.03 187.55 460.03
  L 300.45 460.02
  C 300.79 460.02 301.11 459.93 301.37 459.75
  C 305.04 457.31 305.06 454.78 301.43 452.17
  C 301.18 451.99 300.87 451.89 300.53 451.89
  L 280.03 451.93"
/>
<path stroke="#417d84" vector-effect="non-scaling-stroke" d="
  M 280.03 451.93
  L 280.00 412.04"
/>
<path stroke="#418a99" vector-effect="non-scaling-stroke" d="
  M 280.00 412.04
  L 392.50 411.87"
/>
<path stroke="#a4e7eb" vector-effect="non-scaling-stroke" d="
  M 392.50 411.87
  C 392.38 412.51 392.81 412.64 393.78 412.25
  C 406.19 407.38 405.66 396.63 405.20 385.53
  C 405.19 385.34 405.00 385.12 404.71 384.97
  L 404.29 384.75"
/>
<path stroke="#418a99" vector-effect="non-scaling-stroke" d="
  M 404.29 384.75
  C 403.76 364.83 404.51 344.94 404.00 325.04"
/>
<path stroke="#4ea7b6" vector-effect="non-scaling-stroke" d="
  M 404.00 325.04
  C 408.29 323.53 415.10 323.50 413.94 316.75
  C 413.07 311.72 412.24 306.61 411.45 301.44
  C 411.41 301.15 411.55 300.86 411.81 300.70
  L 419.90 295.69
  C 420.16 295.53 420.48 295.54 420.70 295.71
  C 424.02 298.38 427.34 301.06 430.66 303.73
  C 433.92 306.36 436.29 308.87 439.66 305.70
  C 441.50 303.97 446.15 299.35 453.60 291.84
  C 456.06 289.36 456.18 286.75 453.96 284.01
  C 450.69 279.98 447.37 275.95 443.98 271.92
  C 443.78 271.69 443.75 271.35 443.90 271.09
  L 448.45 263.10
  C 448.60 262.84 448.90 262.69 449.20 262.74
  C 454.39 263.49 459.59 264.28 464.78 265.09
  C 467.94 265.58 469.88 264.49 470.61 261.82
  C 472.30 255.59 473.96 249.33 475.60 243.06
  C 476.47 239.71 475.62 237.59 472.29 236.22
  C 467.45 234.23 462.54 232.35 457.57 230.58
  C 457.29 230.49 457.11 230.22 457.12 229.92
  L 457.36 220.70
  C 457.37 220.40 457.57 220.13 457.85 220.03
  C 462.54 218.36 467.20 216.67 471.85 214.96
  C 475.21 213.72 476.45 211.35 475.56 207.86
  C 474.06 201.91 472.53 195.95 470.98 190.00
  C 469.45 184.09 466.07 185.30 460.85 186.11
  C 457.00 186.72 453.10 187.36 449.17 188.03
  C 448.89 188.08 448.60 187.93 448.44 187.66
  L 443.94 179.66
  C 443.79 179.39 443.81 179.06 444.00 178.83
  C 447.30 174.73 452.88 169.32 455.04 164.70
  C 455.81 163.04 455.57 161.55 454.31 160.22
  C 449.68 155.33 444.98 150.51 440.21 145.76
  C 437.41 142.98 435.39 143.23 432.49 145.52
  C 428.60 148.59 424.73 151.75 420.86 154.98
  C 420.63 155.17 420.31 155.20 420.05 155.04
  L 411.65 149.96
  C 411.40 149.80 411.26 149.51 411.31 149.22
  C 412.11 144.23 412.92 139.23 413.73 134.24
  C 414.31 130.69 412.88 128.39 409.44 127.34
  C 402.91 125.37 396.35 123.49 389.75 121.72
  C 387.92 121.23 386.67 121.84 386.01 123.55
  L 379.61 140.00
  C 379.50 140.28 379.24 140.46 378.96 140.45
  L 368.54 140.22
  C 368.24 140.21 367.98 140.03 367.87 139.76
  L 361.44 123.31
  C 360.77 121.62 359.60 120.94 357.92 121.28
  C 351.02 122.68 344.19 124.34 337.42 126.26
  C 334.14 127.19 332.72 128.73 333.37 132.18
  C 333.67 133.78 334.51 138.96 335.90 147.71
  C 335.94 147.98 335.79 148.26 335.52 148.41
  L 325.90 153.75
  C 325.63 153.90 325.31 153.88 325.10 153.71
  L 311.63 142.85
  C 309.96 141.50 308.33 141.56 306.74 143.01
  C 301.56 147.73 296.45 152.70 291.42 157.92
  C 289.65 159.76 289.55 161.67 291.12 163.65
  C 294.46 167.86 297.90 172.04 301.43 176.19
  C 301.62 176.41 301.64 176.73 301.48 176.99
  L 295.48 187.05
  C 295.32 187.31 295.03 187.45 294.75 187.40
  C 289.52 186.44 284.26 185.58 278.99 184.81
  C 273.33 183.99 273.65 188.62 272.10 192.05"
/>
<path stroke="#418a99" vector-effect="non-scaling-stroke" d="
  M 272.10 192.05
  L 237.06 192.00"
/>
<path stroke="#6f999c" vector-effect="non-scaling-stroke" d="
  M 237.06 192.00
  C 236.99 147.86 236.97 103.72 236.99 59.58
  C 237.00 49.16 233.32 47.00 223.06 47.00
  C 188.93 46.99 154.81 47.00 120.68 47.02
  C 112.77 47.02 110.11 49.69 110.00 57.84
  C 109.61 87.37 110.22 109.79 109.86 138.06
  C 109.68 151.80 109.67 169.15 109.84 190.10"
/>
<path stroke="#2e515e" vector-effect="non-scaling-stroke" d="
  M 237.06 192.00
  L 237.04 207.25"
/>
<path stroke="#2e5e8e" vector-effect="non-scaling-stroke" d="
  M 237.04 207.25
  C 236.69 222.73 236.60 238.21 236.78 253.68
  C 236.85 259.89 234.20 265.00 227.50 265.00
  C 192.00 265.01 156.50 265.00 121.01 264.99
  C 113.06 264.98 109.98 262.04 110.00 253.77
  C 110.05 238.34 110.01 222.92 109.89 207.51"
/>
<path stroke="#2e515e" vector-effect="non-scaling-stroke" d="
  M 109.89 207.51
  L 109.71 192.00"
/>
<path stroke="#7ca5a8" vector-effect="non-scaling-stroke" d="
  M 109.71 192.00
  C 110.02 190.99 110.07 190.36 109.84 190.10"
/>
<path stroke="#4e96a5" vector-effect="non-scaling-stroke" d="
  M 109.71 192.00
  C 99.48 191.48 89.74 191.56 85.47 201.40
  C 84.50 203.62 84.01 207.13 83.99 211.93
  C 83.67 287.00 83.60 347.52 83.78 393.49
  C 83.83 405.82 90.07 412.00 102.50 412.04"
/>
<path stroke="#80985e" vector-effect="non-scaling-stroke" d="
  M 290.30 292.44
  L 99.87 292.51"
/>
<path stroke="#004f8b" vector-effect="non-scaling-stroke" d="
  M 267.42 207.68
  L 237.04 207.25"
/>
<path stroke="#004f8b" vector-effect="non-scaling-stroke" d="
  M 109.89 207.51
  L 100.08 207.64
  C 99.81 207.64 99.59 207.87 99.58 208.16
  C 99.17 236.31 99.26 264.42 99.87 292.51"
/>
<path stroke="#808c2d" vector-effect="non-scaling-stroke" d="
  M 99.87 292.51
  L 99.91 375.71
  C 99.91 375.98 100.13 376.20 100.40 376.20
  L 387.70 376.23
  C 388.00 376.23 388.25 375.99 388.24 375.70
  L 387.88 328.14"
/>
<path stroke="#63a0ac" vector-effect="non-scaling-stroke" d="
  M 404.29 384.75
  C 404.14 396.86 405.54 406.52 392.50 411.87"
/>
<path stroke="#003546" vector-effect="non-scaling-stroke" d="
  M 280.00 412.04
  L 207.81 412.01"
/>
<path stroke="#0d5f78" vector-effect="non-scaling-stroke" d="
  M 404.00 325.04
  C 398.85 326.27 393.15 328.87 387.88 328.14"
/>
<path stroke="#8da94b" vector-effect="non-scaling-stroke" d="
  M 387.88 328.14
  C 384.44 322.65 381.82 316.80 380.03 310.59
  C 379.94 310.29 379.68 310.09 379.38 310.09
  L 368.50 310.03
  C 367.93 310.03 367.42 310.41 367.24 310.98
  C 365.69 315.78 363.90 320.48 361.87 325.07
  C 360.34 328.53 358.67 329.66 354.96 328.50
  C 353.17 327.95 347.38 326.52 337.57 324.21
  C 334.50 323.48 333.23 321.58 333.75 318.50
  C 334.84 311.99 335.61 306.73 336.05 302.72
  C 336.08 302.43 335.92 302.14 335.65 301.99
  L 325.68 296.44
  C 325.41 296.29 325.09 296.31 324.88 296.50
  C 320.69 300.11 316.40 303.60 312.02 306.98
  C 309.86 308.66 307.80 308.34 306.03 306.48
  C 301.15 301.34 295.91 296.66 290.30 292.44"
/>
<path stroke="#0d6ca8" vector-effect="non-scaling-stroke" d="
  M 290.30 292.44
  L 290.69 291.91
  C 290.85 291.69 290.84 291.36 290.66 291.08
  C 288.54 287.74 297.19 279.34 299.48 276.49
  C 300.80 274.85 300.96 273.24 299.95 271.66
  L 295.83 265.21
  C 295.03 263.95 293.84 263.53 292.25 263.94
  C 287.09 265.29 281.83 266.00 276.47 266.08
  C 276.13 266.09 275.81 266.00 275.55 265.82
  C 271.87 263.29 268.34 245.07 267.98 243.24
  C 266.96 237.99 270.40 237.28 274.97 235.45
  C 278.30 234.11 281.70 232.90 285.16 231.83
  C 285.47 231.73 285.68 231.47 285.69 231.18
  L 285.93 220.80
  C 285.96 219.71 285.40 218.94 284.27 218.48
  C 279.12 216.41 268.16 214.08 267.42 207.68"
/>
<path stroke="#0d5f78" vector-effect="non-scaling-stroke" d="
  M 267.42 207.68
  C 269.47 202.76 271.03 197.55 272.10 192.05"
/>
<path stroke="#003546" vector-effect="non-scaling-stroke" d="
  M 280.03 451.93
  L 208.00 451.96"
/>
<path stroke="#59bac6" vector-effect="non-scaling-stroke" d="
  M 321.28 87.84
  C 321.28 73.26 309.46 61.44 294.88 61.44
  C 280.30 61.44 268.48 73.26 268.48 87.84
  C 268.48 102.42 280.30 114.24 294.88 114.24
  C 309.46 114.24 321.28 102.42 321.28 87.84"
/>
<path stroke="#444747" vector-effect="non-scaling-stroke" d="
  M 191.24 60.50
  C 191.24 58.04 189.25 56.05 186.79 56.05
  L 159.75 56.05
  C 157.29 56.05 155.30 58.04 155.30 60.50
  L 155.30 60.76
  C 155.30 63.22 157.29 65.21 159.75 65.21
  L 186.79 65.21
  C 189.25 65.21 191.24 63.22 191.24 60.76
  L 191.24 60.50"
/>
<path stroke="#444747" vector-effect="non-scaling-stroke" d="
  M 141.34 60.61
  C 141.34 58.17 139.37 56.20 136.93 56.20
  C 134.49 56.20 132.52 58.17 132.52 60.61
  C 132.52 63.05 134.49 65.02 136.93 65.02
  C 139.37 65.02 141.34 63.05 141.34 60.61"
/>
<path stroke="#2e7a98" vector-effect="non-scaling-stroke" d="
  M 118.79 192.00
  L 118.67 237.19
  C 118.67 237.46 118.90 237.68 119.19 237.68
  L 227.20 237.72
  C 227.48 237.72 227.70 237.50 227.70 237.22
  L 227.71 192.00"
/>
<path stroke="#5b9094" vector-effect="non-scaling-stroke" d="
  M 227.71 192.00
  L 227.71 74.79
  C 227.71 74.51 227.49 74.29 227.21 74.29
  L 119.30 74.29
  C 119.02 74.29 118.79 74.51 118.79 74.79
  L 118.79 192.00"
/>
<path stroke="#2da9cb" vector-effect="non-scaling-stroke" d="
  M 227.71 192.00
  L 196.04 192.25"
/>
<path stroke="#8fc4c9" vector-effect="non-scaling-stroke" d="
  M 196.04 192.25
  C 194.87 186.43 187.96 186.36 186.96 192.25"
/>
<path stroke="#2da9cb" vector-effect="non-scaling-stroke" d="
  M 186.96 192.25
  L 177.76 192.39"
/>
<path stroke="#8fc4c9" vector-effect="non-scaling-stroke" d="
  M 177.76 192.39
  C 177.04 186.21 170.36 186.61 168.50 192.04"
/>
<path stroke="#2da9cb" vector-effect="non-scaling-stroke" d="
  M 168.50 192.04
  L 159.54 192.25"
/>
<path stroke="#43767a" vector-effect="non-scaling-stroke" d="
  M 159.54 192.25
  C 158.94 185.94 151.49 186.79 150.46 192.50"
/>
<path stroke="#2da9cb" vector-effect="non-scaling-stroke" d="
  M 150.46 192.50
  L 118.79 192.00"
/>
<path stroke="#62aecc" vector-effect="non-scaling-stroke" d="
  M 177.76 192.39
  C 176.73 198.79 169.66 197.72 168.50 192.04"
/>
<path stroke="#16607e" vector-effect="non-scaling-stroke" d="
  M 159.54 192.25
  C 159.44 198.06 152.01 198.29 150.46 192.50"
/>
<path stroke="#62aecc" vector-effect="non-scaling-stroke" d="
  M 196.04 192.25
  C 194.75 198.33 187.79 198.09 186.96 192.25"
/>
<path stroke="#444747" vector-effect="non-scaling-stroke" d="
  M 186.7103 251.1535
  C 186.71 248.76 184.78 246.82 182.3879 246.8159
  L 164.1479 246.7841
  C 161.76 246.78 159.81 248.72 159.8103 251.1065
  L 159.8097 251.4665
  C 159.81 253.86 161.74 255.80 164.1321 255.8041
  L 182.3721 255.8359
  C 184.76 255.84 186.71 253.90 186.7097 251.5135
  L 186.7103 251.1535"
/>
<path stroke="#7ebdbb" vector-effect="non-scaling-stroke" d="
  M 218.51 83.19
  C 218.51 80.74 216.53 78.76 214.08 78.76
  L 132.42 78.76
  C 129.97 78.76 127.99 80.74 127.99 83.19
  L 127.99 83.33
  C 127.99 85.78 129.97 87.76 132.42 87.76
  L 214.08 87.76
  C 216.53 87.76 218.51 85.78 218.51 83.33
  L 218.51 83.19"
/>
<path stroke="#90b49a" vector-effect="non-scaling-stroke" d="
  M 150.4804 98.2902
  C 150.47 95.07 147.86 92.46 144.6402 92.4704
  L 133.6402 92.4896
  C 130.42 92.50 127.81 95.11 127.8204 98.3298
  L 127.8396 109.3498
  C 127.85 112.57 130.46 115.18 133.6798 115.1696
  L 144.6798 115.1504
  C 147.90 115.14 150.51 112.53 150.4996 109.3102
  L 150.4804 98.2902"
/>
<path stroke="#6fadab" vector-effect="non-scaling-stroke" d="
  M 184.5198 98.2498
  C 184.53 95.09 181.97 92.53 178.8098 92.5198
  L 167.6098 92.5002
  C 164.45 92.49 161.89 95.05 161.8798 98.2103
  L 161.8602 109.4502
  C 161.85 112.61 164.41 115.17 167.5702 115.1802
  L 178.7702 115.1998
  C 181.93 115.21 184.49 112.65 184.5002 109.4897
  L 184.5198 98.2498"
/>
<path stroke="#53b1b9" vector-effect="non-scaling-stroke" d="
  M 218.6694 98.3095
  C 218.68 95.13 216.11 92.54 212.9296 92.5295
  L 201.8096 92.4907
  C 198.63 92.48 196.04 95.05 196.0295 98.2305
  L 195.9906 109.3905
  C 195.98 112.57 198.55 115.16 201.7304 115.1705
  L 212.8504 115.2093
  C 216.03 115.22 218.62 112.65 218.6305 109.4695
  L 218.6694 98.3095"
/>
<path stroke="#7cc386" vector-effect="non-scaling-stroke" d="
  M 150.4904 130.1002
  C 150.48 126.85 147.85 124.22 144.6002 124.2305
  L 133.7002 124.2495
  C 130.45 124.26 127.82 126.89 127.8305 130.1398
  L 127.8496 141.0798
  C 127.86 144.33 130.49 146.96 133.7398 146.9495
  L 144.6398 146.9305
  C 147.89 146.92 150.52 144.29 150.5095 141.0402
  L 150.4904 130.1002"
/>
<path stroke="#91c29e" vector-effect="non-scaling-stroke" d="
  M 184.5398 129.9298
  C 184.55 126.82 182.03 124.30 178.9196 124.2900
  L 167.5196 124.2701
  C 164.41 124.26 161.89 126.78 161.8798 129.8902
  L 161.8602 141.1102
  C 161.85 144.22 164.37 146.74 167.4804 146.7500
  L 178.8804 146.7699
  C 181.99 146.78 184.51 144.26 184.5202 141.1498
  L 184.5398 129.9298"
/>
<path stroke="#a4b08c" vector-effect="non-scaling-stroke" d="
  M 218.5097 129.6808
  C 218.50 126.67 216.05 124.23 213.0307 124.2399
  L 201.4508 124.2803
  C 198.44 124.29 196.00 126.74 196.0099 129.7593
  L 196.0503 141.3392
  C 196.06 144.35 198.51 146.79 201.5293 146.7801
  L 213.1092 146.7397
  C 216.12 146.73 218.56 144.28 218.5501 141.2607
  L 218.5097 129.6808"
/>
<path stroke="#90b49a" vector-effect="non-scaling-stroke" d="
  M 150.66 162.05
  C 150.66 158.72 147.96 156.02 144.63 156.02
  L 133.85 156.02
  C 130.52 156.02 127.82 158.72 127.82 162.05
  L 127.82 172.67
  C 127.82 176.00 130.52 178.70 133.85 178.70
  L 144.63 178.70
  C 147.96 178.70 150.66 176.00 150.66 172.67
  L 150.66 162.05"
/>
<path stroke="#8b91b3" vector-effect="non-scaling-stroke" d="
  M 184.51 161.80
  C 184.51 158.60 181.91 156.00 178.71 156.00
  L 167.81 156.00
  C 164.61 156.00 162.01 158.60 162.01 161.80
  L 162.01 172.92
  C 162.01 176.12 164.61 178.72 167.81 178.72
  L 178.71 178.72
  C 181.91 178.72 184.51 176.12 184.51 172.92
  L 184.51 161.80"
/>
<path stroke="#8ea695" vector-effect="non-scaling-stroke" d="
  M 218.6302 161.7103
  C 218.62 158.56 216.06 156.00 212.9102 156.0103
  L 201.7302 156.0298
  C 198.58 156.04 196.02 158.60 196.0302 161.7497
  L 196.0498 173.0097
  C 196.06 176.16 198.62 178.72 201.7698 178.7097
  L 212.9498 178.6902
  C 216.10 178.68 218.66 176.12 218.6498 172.9703
  L 218.6302 161.7103"
/>
<path stroke="#a2956f" vector-effect="non-scaling-stroke" d="
  M 143.60 103.76
  C 143.60 101.33 141.63 99.36 139.20 99.36
  C 136.77 99.36 134.80 101.33 134.80 103.76
  C 134.80 106.19 136.77 108.16 139.20 108.16
  C 141.63 108.16 143.60 106.19 143.60 103.76"
/>
<path stroke="#8dbeca" vector-effect="non-scaling-stroke" d="
  M 421.88 226.89
  C 421.88 199.33 399.53 176.98 371.97 176.98
  C 344.41 176.98 322.06 199.33 322.06 226.89
  C 322.06 254.45 344.41 276.80 371.97 276.80
  C 399.53 276.80 421.88 254.45 421.88 226.89"
/>
<path stroke="#edb240" vector-effect="non-scaling-stroke" d="
  M 216.39 135.53
  C 216.39 130.55 212.35 126.51 207.37 126.51
  C 202.39 126.51 198.35 130.55 198.35 135.53
  C 198.35 140.51 202.39 144.55 207.37 144.55
  C 212.35 144.55 216.39 140.51 216.39 135.53"
/>
<path stroke="#cc507a" vector-effect="non-scaling-stroke" d="
  M 182.1882 166.9977
  C 182.17 164.66 180.26 162.78 177.9287 162.7973
  L 168.5290 162.8629
  C 166.19 162.88 164.31 164.79 164.3286 167.1223
  L 164.3318 167.5823
  C 164.35 169.92 166.26 171.80 168.5913 171.7827
  L 177.9910 171.7171
  C 180.33 171.70 182.21 169.79 182.1914 167.4577
  L 182.1882 166.9977"
/>
<path stroke="#ffafaf" vector-effect="non-scaling-stroke" d="
  M 411.88 226.89
  C 411.88 204.84 394.01 186.97 371.96 186.97
  C 349.91 186.97 332.04 204.84 332.04 226.89
  C 332.04 248.94 349.91 266.81 371.96 266.81
  C 394.01 266.81 411.88 248.94 411.88 226.89"
/>
<path stroke="#1f7a8d" vector-effect="non-scaling-stroke" d="
  M 253.15 393.40
  C 253.15 389.06 249.63 385.54 245.29 385.54
  C 240.95 385.54 237.43 389.06 237.43 393.40
  C 237.43 397.74 240.95 401.26 245.29 401.26
  C 249.63 401.26 253.15 397.74 253.15 393.40"
/>
<path stroke="#4fad8a" vector-effect="non-scaling-stroke" d="
  M 150.5197 211.7398
  C 150.53 208.59 147.98 206.04 144.8296 206.0298
  L 133.5896 206.0102
  C 130.44 206.00 127.89 208.55 127.8797 211.7003
  L 127.8603 222.7802
  C 127.85 225.93 130.40 228.48 133.5504 228.4902
  L 144.7904 228.5098
  C 147.94 228.52 150.49 225.97 150.5003 222.8197
  L 150.5197 211.7398"
/>
<path stroke="#718ea8" vector-effect="non-scaling-stroke" d="
  M 184.5298 211.6093
  C 184.54 208.54 182.06 206.04 178.9893 206.0299
  L 167.6093 205.9902
  C 164.54 205.98 162.04 208.46 162.0300 211.5308
  L 161.9902 222.9307
  C 161.98 226.00 164.46 228.50 167.5307 228.5101
  L 178.9107 228.5498
  C 181.98 228.56 184.48 226.08 184.4900 223.0092
  L 184.5298 211.6093"
/>
<path stroke="#51a7be" vector-effect="non-scaling-stroke" d="
  M 218.5005 211.6012
  C 218.48 208.49 215.95 205.97 212.8310 205.9908
  L 201.6312 206.0495
  C 198.52 206.07 196.00 208.60 196.0208 211.7189
  L 196.0795 222.9388
  C 196.10 226.05 198.63 228.57 201.7490 228.5492
  L 212.9488 228.4905
  C 216.06 228.47 218.58 225.94 218.5592 222.8211
  L 218.5005 211.6012"
/>
<path stroke="#003546" vector-effect="non-scaling-stroke" d="
  M 247.2229 201.4678
  C 247.96 200.69 247.92 199.46 247.1368 198.7256
  L 245.0665 196.7815
  C 244.29 196.05 243.06 196.09 242.3243 196.8677
  L 240.5171 198.7922
  C 239.78 199.57 239.82 200.80 240.6032 201.5344
  L 242.6735 203.4785
  C 243.45 204.21 244.68 204.17 245.4157 203.3923
  L 247.2229 201.4678"
/>
<path stroke="#809498" vector-effect="non-scaling-stroke" d="
  M 246.14 200.05
  C 246.14 198.88 245.20 197.94 244.03 197.94
  C 242.86 197.94 241.92 198.88 241.92 200.05
  C 241.92 201.22 242.86 202.16 244.03 202.16
  C 245.20 202.16 246.14 201.22 246.14 200.05"
/>
<path stroke="#c5c53a" vector-effect="non-scaling-stroke" d="
  M 143.62 217.29
  C 143.62 214.84 141.64 212.86 139.19 212.86
  C 136.74 212.86 134.76 214.84 134.76 217.29
  C 134.76 219.74 136.74 221.72 139.19 221.72
  C 141.64 221.72 143.62 219.74 143.62 217.29"
/>
<path stroke="#1f7a8d" vector-effect="non-scaling-stroke" d="
  M 250.32 393.40
  C 250.32 390.62 248.07 388.37 245.29 388.37
  C 242.51 388.37 240.26 390.62 240.26 393.40
  C 240.26 396.18 242.51 398.43 245.29 398.43
  C 248.07 398.43 250.32 396.18 250.32 393.40"
/>
</g>
<path fill="#82d1d7" d="
  M 320.30 8.29
  C 319.97 8.45 319.70 8.64 319.51 8.85
  C 319.35 9.03 319.47 9.33 319.73 9.40
  C 400.51 30.73 464.63 88.17 494.31 165.73
  C 495.85 169.76 497.20 173.86 498.35 178.03
  C 498.45 178.39 498.67 178.66 498.93 178.71
  C 499.24 178.78 499.52 178.71 499.79 178.50
  C 510.08 210.63 513.81 243.54 510.96 277.25
  C 508.44 276.75 508.78 282.64 508.53 284.26
  C 507.75 289.24 507.29 294.70 506.71 298.24
  C 502.87 321.84 496.40 343.43 487.29 363.01
  C 457.05 428.02 400.28 477.95 331.07 499.26
  C 330.47 499.45 328.63 500.76 330.75 500.71
  C 279.59 516.46 223.60 515.63 173.00 498.04
  C 173.83 497.64 173.76 497.27 172.81 496.93
  C 94.63 469.42 34.37 406.92 11.51 326.83
  C 11.40 326.46 11.18 326.19 10.93 326.11
  C 10.62 326.02 10.29 326.06 9.96 326.25
  C -3.59 278.14 -3.26 230.14 10.96 182.25
  C 11.19 182.61 11.49 182.77 11.88 182.72
  C 12.15 182.69 12.41 182.45 12.53 182.11
  C 14.26 177.25 15.99 172.39 17.72 167.54
  C 27.69 139.57 42.28 114.31 61.49 91.74
  C 90.32 57.86 125.58 33.11 167.27 17.48
  C 168.46 17.04 168.53 16.53 167.50 15.96
  C 216.35 -2.13 269.84 -4.82 320.30 8.29
  Z
  M 306.93 129.05
  C 309.58 131.92 312.31 134.70 315.12 137.39
  C 319.12 141.22 324.42 137.14 328.28 134.02
  C 330.97 131.85 331.26 129.94 330.06 126.60
  C 328.87 123.28 327.79 119.90 326.82 116.45
  C 326.74 116.16 326.80 115.84 326.98 115.57
  L 331.20 109.56
  C 331.39 109.30 331.68 109.13 331.98 109.12
  C 337.34 108.92 347.65 111.13 349.32 104.40
  C 350.64 99.03 353.72 93.87 347.15 90.31
  C 344.16 88.68 341.13 87.14 338.04 85.69
  C 337.52 85.45 337.13 84.85 336.99 84.09
  L 335.96 78.65
  C 335.81 77.85 336.00 77.11 336.45 76.71
  C 339.29 74.16 347.36 67.13 346.19 63.06
  C 345.52 60.73 344.13 58.13 342.00 55.26
  C 338.63 50.74 335.45 52.41 330.33 54.13
  C 328.05 54.89 325.78 55.70 323.53 56.55
  C 323.26 56.65 322.94 56.59 322.68 56.40
  L 316.70 51.77
  C 316.45 51.57 316.31 51.27 316.32 50.97
  C 316.46 47.52 317.42 38.64 315.52 35.95
  C 313.57 33.19 307.66 32.44 304.45 31.92
  C 298.62 30.97 295.56 40.32 293.20 45.30
  C 293.07 45.57 292.80 45.76 292.48 45.80
  L 284.75 46.96
  C 284.44 47.00 284.13 46.90 283.92 46.69
  L 274.91 37.57
  C 273.66 36.30 272.14 35.95 270.36 36.50
  C 266.45 37.73 258.42 41.92 259.79 47.21
  C 260.11 48.45 261.42 52.31 263.73 58.78
  C 263.84 59.09 263.79 59.42 263.61 59.66
  L 258.38 66.44
  C 258.19 66.68 257.89 66.82 257.56 66.81
  C 251.90 66.60 241.58 64.16 240.02 72.11
  C 239.09 76.83 236.58 81.95 242.42 84.76
  C 245.73 86.35 249.03 88.02 252.32 89.75
  C 252.57 89.88 252.75 90.16 252.81 90.49
  L 254.12 98.44
  C 254.17 98.77 254.08 99.08 253.88 99.28
  C 250.76 102.36 247.70 105.49 244.69 108.68
  C 241.23 112.36 248.04 122.46 252.05 123.32
  C 255.24 124.00 262.80 120.52 266.04 119.30
  C 266.33 119.19 266.66 119.23 266.91 119.42
  L 273.79 124.50
  C 274.05 124.69 274.19 124.99 274.17 125.30
  C 273.99 128.71 273.17 136.96 274.76 139.82
  C 276.37 142.69 282.72 143.43 285.76 144.23
  C 291.34 145.71 295.03 134.71 297.07 130.80
  C 297.33 130.31 297.88 129.95 298.56 129.82
  L 305.35 128.61
  C 305.98 128.50 306.57 128.67 306.93 129.05
  Z
  M 109.84 190.10
  C 105.65 189.71 101.61 189.93 97.73 190.75
  C 85.49 193.35 82.13 201.10 82.14 212.55
  C 82.23 272.79 82.27 333.03 82.27 393.26
  C 82.27 404.48 89.38 414.74 101.71 413.45
  C 102.37 413.38 103.52 412.79 102.50 412.04
  L 207.81 412.01
  L 208.00 451.96
  L 187.53 451.95
  C 187.19 451.94 186.87 452.03 186.62 452.21
  C 182.96 454.73 182.96 457.24 186.63 459.75
  C 186.90 459.93 187.22 460.03 187.55 460.03
  L 300.45 460.02
  C 300.79 460.02 301.11 459.93 301.37 459.75
  C 305.04 457.31 305.06 454.78 301.43 452.17
  C 301.18 451.99 300.87 451.89 300.53 451.89
  L 280.03 451.93
  L 280.00 412.04
  L 392.50 411.87
  C 392.38 412.51 392.81 412.64 393.78 412.25
  C 406.19 407.38 405.66 396.63 405.20 385.53
  C 405.19 385.34 405.00 385.12 404.71 384.97
  L 404.29 384.75
  C 403.76 364.83 404.51 344.94 404.00 325.04
  C 408.29 323.53 415.10 323.50 413.94 316.75
  C 413.07 311.72 412.24 306.61 411.45 301.44
  C 411.41 301.15 411.55 300.86 411.81 300.70
  L 419.90 295.69
  C 420.16 295.53 420.48 295.54 420.70 295.71
  C 424.02 298.38 427.34 301.06 430.66 303.73
  C 433.92 306.36 436.29 308.87 439.66 305.70
  C 441.50 303.97 446.15 299.35 453.60 291.84
  C 456.06 289.36 456.18 286.75 453.96 284.01
  C 450.69 279.98 447.37 275.95 443.98 271.92
  C 443.78 271.69 443.75 271.35 443.90 271.09
  L 448.45 263.10
  C 448.60 262.84 448.90 262.69 449.20 262.74
  C 454.39 263.49 459.59 264.28 464.78 265.09
  C 467.94 265.58 469.88 264.49 470.61 261.82
  C 472.30 255.59 473.96 249.33 475.60 243.06
  C 476.47 239.71 475.62 237.59 472.29 236.22
  C 467.45 234.23 462.54 232.35 457.57 230.58
  C 457.29 230.49 457.11 230.22 457.12 229.92
  L 457.36 220.70
  C 457.37 220.40 457.57 220.13 457.85 220.03
  C 462.54 218.36 467.20 216.67 471.85 214.96
  C 475.21 213.72 476.45 211.35 475.56 207.86
  C 474.06 201.91 472.53 195.95 470.98 190.00
  C 469.45 184.09 466.07 185.30 460.85 186.11
  C 457.00 186.72 453.10 187.36 449.17 188.03
  C 448.89 188.08 448.60 187.93 448.44 187.66
  L 443.94 179.66
  C 443.79 179.39 443.81 179.06 444.00 178.83
  C 447.30 174.73 452.88 169.32 455.04 164.70
  C 455.81 163.04 455.57 161.55 454.31 160.22
  C 449.68 155.33 444.98 150.51 440.21 145.76
  C 437.41 142.98 435.39 143.23 432.49 145.52
  C 428.60 148.59 424.73 151.75 420.86 154.98
  C 420.63 155.17 420.31 155.20 420.05 155.04
  L 411.65 149.96
  C 411.40 149.80 411.26 149.51 411.31 149.22
  C 412.11 144.23 412.92 139.23 413.73 134.24
  C 414.31 130.69 412.88 128.39 409.44 127.34
  C 402.91 125.37 396.35 123.49 389.75 121.72
  C 387.92 121.23 386.67 121.84 386.01 123.55
  L 379.61 140.00
  C 379.50 140.28 379.24 140.46 378.96 140.45
  L 368.54 140.22
  C 368.24 140.21 367.98 140.03 367.87 139.76
  L 361.44 123.31
  C 360.77 121.62 359.60 120.94 357.92 121.28
  C 351.02 122.68 344.19 124.34 337.42 126.26
  C 334.14 127.19 332.72 128.73 333.37 132.18
  C 333.67 133.78 334.51 138.96 335.90 147.71
  C 335.94 147.98 335.79 148.26 335.52 148.41
  L 325.90 153.75
  C 325.63 153.90 325.31 153.88 325.10 153.71
  L 311.63 142.85
  C 309.96 141.50 308.33 141.56 306.74 143.01
  C 301.56 147.73 296.45 152.70 291.42 157.92
  C 289.65 159.76 289.55 161.67 291.12 163.65
  C 294.46 167.86 297.90 172.04 301.43 176.19
  C 301.62 176.41 301.64 176.73 301.48 176.99
  L 295.48 187.05
  C 295.32 187.31 295.03 187.45 294.75 187.40
  C 289.52 186.44 284.26 185.58 278.99 184.81
  C 273.33 183.99 273.65 188.62 272.10 192.05
  L 237.06 192.00
  C 236.99 147.86 236.97 103.72 236.99 59.58
  C 237.00 49.16 233.32 47.00 223.06 47.00
  C 188.93 46.99 154.81 47.00 120.68 47.02
  C 112.77 47.02 110.11 49.69 110.00 57.84
  C 109.61 87.37 110.22 109.79 109.86 138.06
  C 109.68 151.80 109.67 169.15 109.84 190.10
  Z"
/>
<path fill="#c7feff" fill-opacity="0.996" d="
  M 320.30 8.29
  C 405.72 30.91 472.98 94.22 499.79 178.50
  C 499.52 178.71 499.24 178.78 498.93 178.71
  C 498.67 178.66 498.45 178.39 498.35 178.03
  C 497.20 173.86 495.85 169.76 494.31 165.73
  C 464.63 88.17 400.51 30.73 319.73 9.40
  C 319.47 9.33 319.35 9.03 319.51 8.85
  C 319.70 8.64 319.97 8.45 320.30 8.29
  Z"
/>
<path fill="#b5f7fb" d="
  M 167.50 15.96
  C 168.53 16.53 168.46 17.04 167.27 17.48
  C 125.58 33.11 90.32 57.86 61.49 91.74
  C 42.28 114.31 27.69 139.57 17.72 167.54
  C 15.99 172.39 14.26 177.25 12.53 182.11
  C 12.41 182.45 12.15 182.69 11.88 182.72
  C 11.49 182.77 11.19 182.61 10.96 182.25
  C 34.17 104.71 92.00 44.33 167.50 15.96
  Z"
/>
<path fill="#2fa2b4" d="
  M 306.93 129.05
  C 306.57 128.67 305.98 128.50 305.35 128.61
  L 298.56 129.82
  C 297.88 129.95 297.33 130.31 297.07 130.80
  C 295.03 134.71 291.34 145.71 285.76 144.23
  C 282.72 143.43 276.37 142.69 274.76 139.82
  C 273.17 136.96 273.99 128.71 274.17 125.30
  C 274.19 124.99 274.05 124.69 273.79 124.50
  L 266.91 119.42
  C 266.66 119.23 266.33 119.19 266.04 119.30
  C 262.80 120.52 255.24 124.00 252.05 123.32
  C 248.04 122.46 241.23 112.36 244.69 108.68
  C 247.70 105.49 250.76 102.36 253.88 99.28
  C 254.08 99.08 254.17 98.77 254.12 98.44
  L 252.81 90.49
  C 252.75 90.16 252.57 89.88 252.32 89.75
  C 249.03 88.02 245.73 86.35 242.42 84.76
  C 236.58 81.95 239.09 76.83 240.02 72.11
  C 241.58 64.16 251.90 66.60 257.56 66.81
  C 257.89 66.82 258.19 66.68 258.38 66.44
  L 263.61 59.66
  C 263.79 59.42 263.84 59.09 263.73 58.78
  C 261.42 52.31 260.11 48.45 259.79 47.21
  C 258.42 41.92 266.45 37.73 270.36 36.50
  C 272.14 35.95 273.66 36.30 274.91 37.57
  L 283.92 46.69
  C 284.13 46.90 284.44 47.00 284.75 46.96
  L 292.48 45.80
  C 292.80 45.76 293.07 45.57 293.20 45.30
  C 295.56 40.32 298.62 30.97 304.45 31.92
  C 307.66 32.44 313.57 33.19 315.52 35.95
  C 317.42 38.64 316.46 47.52 316.32 50.97
  C 316.31 51.27 316.45 51.57 316.70 51.77
  L 322.68 56.40
  C 322.94 56.59 323.26 56.65 323.53 56.55
  C 325.78 55.70 328.05 54.89 330.33 54.13
  C 335.45 52.41 338.63 50.74 342.00 55.26
  C 344.13 58.13 345.52 60.73 346.19 63.06
  C 347.36 67.13 339.29 74.16 336.45 76.71
  C 336.00 77.11 335.81 77.85 335.96 78.65
  L 336.99 84.09
  C 337.13 84.85 337.52 85.45 338.04 85.69
  C 341.13 87.14 344.16 88.68 347.15 90.31
  C 353.72 93.87 350.64 99.03 349.32 104.40
  C 347.65 111.13 337.34 108.92 331.98 109.12
  C 331.68 109.13 331.39 109.30 331.20 109.56
  L 326.98 115.57
  C 326.80 115.84 326.74 116.16 326.82 116.45
  C 327.79 119.90 328.87 123.28 330.06 126.60
  C 331.26 129.94 330.97 131.85 328.28 134.02
  C 324.42 137.14 319.12 141.22 315.12 137.39
  C 312.31 134.70 309.58 131.92 306.93 129.05
  Z
  M 321.28 87.84
  C 321.28 73.26 309.46 61.44 294.88 61.44
  C 280.30 61.44 268.48 73.26 268.48 87.84
  C 268.48 102.42 280.30 114.24 294.88 114.24
  C 309.46 114.24 321.28 102.42 321.28 87.84
  Z"
/>
<path fill="#5c6061" d="
  M 237.06 192.00
  L 237.04 207.25
  C 236.69 222.73 236.60 238.21 236.78 253.68
  C 236.85 259.89 234.20 265.00 227.50 265.00
  C 192.00 265.01 156.50 265.00 121.01 264.99
  C 113.06 264.98 109.98 262.04 110.00 253.77
  C 110.05 238.34 110.01 222.92 109.89 207.51
  L 109.71 192.00
  C 110.02 190.99 110.07 190.36 109.84 190.10
  C 109.67 169.15 109.68 151.80 109.86 138.06
  C 110.22 109.79 109.61 87.37 110.00 57.84
  C 110.11 49.69 112.77 47.02 120.68 47.02
  C 154.81 47.00 188.93 46.99 223.06 47.00
  C 233.32 47.00 237.00 49.16 236.99 59.58
  C 236.97 103.72 236.99 147.86 237.06 192.00
  Z
  M 191.24 60.50
  C 191.24 58.04 189.25 56.05 186.79 56.05
  L 159.75 56.05
  C 157.29 56.05 155.30 58.04 155.30 60.50
  L 155.30 60.76
  C 155.30 63.22 157.29 65.21 159.75 65.21
  L 186.79 65.21
  C 189.25 65.21 191.24 63.22 191.24 60.76
  L 191.24 60.50
  Z
  M 141.34 60.61
  C 141.34 58.17 139.37 56.20 136.93 56.20
  C 134.49 56.20 132.52 58.17 132.52 60.61
  C 132.52 63.05 134.49 65.02 136.93 65.02
  C 139.37 65.02 141.34 63.05 141.34 60.61
  Z
  M 118.79 192.00
  L 118.67 237.19
  C 118.67 237.46 118.90 237.68 119.19 237.68
  L 227.20 237.72
  C 227.48 237.72 227.70 237.50 227.70 237.22
  L 227.71 192.00
  L 227.71 74.79
  C 227.71 74.51 227.49 74.29 227.21 74.29
  L 119.30 74.29
  C 119.02 74.29 118.79 74.51 118.79 74.79
  L 118.79 192.00
  Z
  M 186.7103 251.1535
  C 186.71 248.76 184.78 246.82 182.3879 246.8159
  L 164.1479 246.7841
  C 161.76 246.78 159.81 248.72 159.8103 251.1065
  L 159.8097 251.4665
  C 159.81 253.86 161.74 255.80 164.1321 255.8041
  L 182.3721 255.8359
  C 184.76 255.84 186.71 253.90 186.7097 251.5135
  L 186.7103 251.1535
  Z"
/>
<rect fill="#2b2d2d" x="155.30" y="56.05" width="35.94" height="9.16" rx="4.45"/>
<circle fill="#2b2d2d" cx="136.93" cy="60.61" r="4.41"/>
<circle fill="#82d1d7" cx="294.88" cy="87.84" r="26.40"/>
<path fill="#5abfc7" d="
  M 227.71 192.00
  L 196.04 192.25
  C 194.87 186.43 187.96 186.36 186.96 192.25
  L 177.76 192.39
  C 177.04 186.21 170.36 186.61 168.50 192.04
  L 159.54 192.25
  C 158.94 185.94 151.49 186.79 150.46 192.50
  L 118.79 192.00
  L 118.79 74.79
  C 118.79 74.51 119.02 74.29 119.30 74.29
  L 227.21 74.29
  C 227.49 74.29 227.71 74.51 227.71 74.79
  L 227.71 192.00
  Z
  M 218.51 83.19
  C 218.51 80.74 216.53 78.76 214.08 78.76
  L 132.42 78.76
  C 129.97 78.76 127.99 80.74 127.99 83.19
  L 127.99 83.33
  C 127.99 85.78 129.97 87.76 132.42 87.76
  L 214.08 87.76
  C 216.53 87.76 218.51 85.78 218.51 83.33
  L 218.51 83.19
  Z
  M 150.4804 98.2902
  C 150.47 95.07 147.86 92.46 144.6402 92.4704
  L 133.6402 92.4896
  C 130.42 92.50 127.81 95.11 127.8204 98.3298
  L 127.8396 109.3498
  C 127.85 112.57 130.46 115.18 133.6798 115.1696
  L 144.6798 115.1504
  C 147.90 115.14 150.51 112.53 150.4996 109.3102
  L 150.4804 98.2902
  Z
  M 184.5198 98.2498
  C 184.53 95.09 181.97 92.53 178.8098 92.5198
  L 167.6098 92.5002
  C 164.45 92.49 161.89 95.05 161.8798 98.2103
  L 161.8602 109.4502
  C 161.85 112.61 164.41 115.17 167.5702 115.1802
  L 178.7702 115.1998
  C 181.93 115.21 184.49 112.65 184.5002 109.4897
  L 184.5198 98.2498
  Z
  M 218.6694 98.3095
  C 218.68 95.13 216.11 92.54 212.9296 92.5295
  L 201.8096 92.4907
  C 198.63 92.48 196.04 95.05 196.0295 98.2305
  L 195.9906 109.3905
  C 195.98 112.57 198.55 115.16 201.7304 115.1705
  L 212.8504 115.2093
  C 216.03 115.22 218.62 112.65 218.6305 109.4695
  L 218.6694 98.3095
  Z
  M 150.4904 130.1002
  C 150.48 126.85 147.85 124.22 144.6002 124.2305
  L 133.7002 124.2495
  C 130.45 124.26 127.82 126.89 127.8305 130.1398
  L 127.8496 141.0798
  C 127.86 144.33 130.49 146.96 133.7398 146.9495
  L 144.6398 146.9305
  C 147.89 146.92 150.52 144.29 150.5095 141.0402
  L 150.4904 130.1002
  Z
  M 184.5398 129.9298
  C 184.55 126.82 182.03 124.30 178.9196 124.2900
  L 167.5196 124.2701
  C 164.41 124.26 161.89 126.78 161.8798 129.8902
  L 161.8602 141.1102
  C 161.85 144.22 164.37 146.74 167.4804 146.7500
  L 178.8804 146.7699
  C 181.99 146.78 184.51 144.26 184.5202 141.1498
  L 184.5398 129.9298
  Z
  M 218.5097 129.6808
  C 218.50 126.67 216.05 124.23 213.0307 124.2399
  L 201.4508 124.2803
  C 198.44 124.29 196.00 126.74 196.0099 129.7593
  L 196.0503 141.3392
  C 196.06 144.35 198.51 146.79 201.5293 146.7801
  L 213.1092 146.7397
  C 216.12 146.73 218.56 144.28 218.5501 141.2607
  L 218.5097 129.6808
  Z
  M 150.66 162.05
  C 150.66 158.72 147.96 156.02 144.63 156.02
  L 133.85 156.02
  C 130.52 156.02 127.82 158.72 127.82 162.05
  L 127.82 172.67
  C 127.82 176.00 130.52 178.70 133.85 178.70
  L 144.63 178.70
  C 147.96 178.70 150.66 176.00 150.66 172.67
  L 150.66 162.05
  Z
  M 184.51 161.80
  C 184.51 158.60 181.91 156.00 178.71 156.00
  L 167.81 156.00
  C 164.61 156.00 162.01 158.60 162.01 161.80
  L 162.01 172.92
  C 162.01 176.12 164.61 178.72 167.81 178.72
  L 178.71 178.72
  C 181.91 178.72 184.51 176.12 184.51 172.92
  L 184.51 161.80
  Z
  M 218.6302 161.7103
  C 218.62 158.56 216.06 156.00 212.9102 156.0103
  L 201.7302 156.0298
  C 198.58 156.04 196.02 158.60 196.0302 161.7497
  L 196.0498 173.0097
  C 196.06 176.16 198.62 178.72 201.7698 178.7097
  L 212.9498 178.6902
  C 216.10 178.68 218.66 176.12 218.6498 172.9703
  L 218.6302 161.7103
  Z"
/>
<rect fill="#a2bbae" x="127.99" y="78.76" width="90.52" height="9.00" rx="4.43"/>
<path fill="#c5a86c" d="
  M 150.4996 109.3102
  C 150.51 112.53 147.90 115.14 144.6798 115.1504
  L 133.6798 115.1696
  C 130.46 115.18 127.85 112.57 127.8396 109.3498
  L 127.8204 98.3298
  C 127.81 95.11 130.42 92.50 133.6402 92.4896
  L 144.6402 92.4704
  C 147.86 92.46 150.47 95.07 150.4804 98.2902
  L 150.4996 109.3102
  Z
  M 143.60 103.76
  C 143.60 101.33 141.63 99.36 139.20 99.36
  C 136.77 99.36 134.80 101.33 134.80 103.76
  C 134.80 106.19 136.77 108.16 139.20 108.16
  C 141.63 108.16 143.60 106.19 143.60 103.76
  Z"
/>
<rect fill="#839a8f" x="-11.32" y="-11.34" transform="translate(173.19,103.85) rotate(0.1)" width="22.64" height="22.68" rx="5.72"/>
<rect fill="#4ca3ab" x="-11.32" y="-11.34" transform="translate(207.33,103.85) rotate(0.2)" width="22.64" height="22.68" rx="5.76"/>
<circle fill="#7e8272" cx="139.20" cy="103.76" r="4.40"/>
<path fill="#1a7c95" d="
  M 404.00 325.04
  C 398.85 326.27 393.15 328.87 387.88 328.14
  C 384.44 322.65 381.82 316.80 380.03 310.59
  C 379.94 310.29 379.68 310.09 379.38 310.09
  L 368.50 310.03
  C 367.93 310.03 367.42 310.41 367.24 310.98
  C 365.69 315.78 363.90 320.48 361.87 325.07
  C 360.34 328.53 358.67 329.66 354.96 328.50
  C 353.17 327.95 347.38 326.52 337.57 324.21
  C 334.50 323.48 333.23 321.58 333.75 318.50
  C 334.84 311.99 335.61 306.73 336.05 302.72
  C 336.08 302.43 335.92 302.14 335.65 301.99
  L 325.68 296.44
  C 325.41 296.29 325.09 296.31 324.88 296.50
  C 320.69 300.11 316.40 303.60 312.02 306.98
  C 309.86 308.66 307.80 308.34 306.03 306.48
  C 301.15 301.34 295.91 296.66 290.30 292.44
  L 290.69 291.91
  C 290.85 291.69 290.84 291.36 290.66 291.08
  C 288.54 287.74 297.19 279.34 299.48 276.49
  C 300.80 274.85 300.96 273.24 299.95 271.66
  L 295.83 265.21
  C 295.03 263.95 293.84 263.53 292.25 263.94
  C 287.09 265.29 281.83 266.00 276.47 266.08
  C 276.13 266.09 275.81 266.00 275.55 265.82
  C 271.87 263.29 268.34 245.07 267.98 243.24
  C 266.96 237.99 270.40 237.28 274.97 235.45
  C 278.30 234.11 281.70 232.90 285.16 231.83
  C 285.47 231.73 285.68 231.47 285.69 231.18
  L 285.93 220.80
  C 285.96 219.71 285.40 218.94 284.27 218.48
  C 279.12 216.41 268.16 214.08 267.42 207.68
  C 269.47 202.76 271.03 197.55 272.10 192.05
  C 273.65 188.62 273.33 183.99 278.99 184.81
  C 284.26 185.58 289.52 186.44 294.75 187.40
  C 295.03 187.45 295.32 187.31 295.48 187.05
  L 301.48 176.99
  C 301.64 176.73 301.62 176.41 301.43 176.19
  C 297.90 172.04 294.46 167.86 291.12 163.65
  C 289.55 161.67 289.65 159.76 291.42 157.92
  C 296.45 152.70 301.56 147.73 306.74 143.01
  C 308.33 141.56 309.96 141.50 311.63 142.85
  L 325.10 153.71
  C 325.31 153.88 325.63 153.90 325.90 153.75
  L 335.52 148.41
  C 335.79 148.26 335.94 147.98 335.90 147.71
  C 334.51 138.96 333.67 133.78 333.37 132.18
  C 332.72 128.73 334.14 127.19 337.42 126.26
  C 344.19 124.34 351.02 122.68 357.92 121.28
  C 359.60 120.94 360.77 121.62 361.44 123.31
  L 367.87 139.76
  C 367.98 140.03 368.24 140.21 368.54 140.22
  L 378.96 140.45
  C 379.24 140.46 379.50 140.28 379.61 140.00
  L 386.01 123.55
  C 386.67 121.84 387.92 121.23 389.75 121.72
  C 396.35 123.49 402.91 125.37 409.44 127.34
  C 412.88 128.39 414.31 130.69 413.73 134.24
  C 412.92 139.23 412.11 144.23 411.31 149.22
  C 411.26 149.51 411.40 149.80 411.65 149.96
  L 420.05 155.04
  C 420.31 155.20 420.63 155.17 420.86 154.98
  C 424.73 151.75 428.60 148.59 432.49 145.52
  C 435.39 143.23 437.41 142.98 440.21 145.76
  C 444.98 150.51 449.68 155.33 454.31 160.22
  C 455.57 161.55 455.81 163.04 455.04 164.70
  C 452.88 169.32 447.30 174.73 444.00 178.83
  C 443.81 179.06 443.79 179.39 443.94 179.66
  L 448.44 187.66
  C 448.60 187.93 448.89 188.08 449.17 188.03
  C 453.10 187.36 457.00 186.72 460.85 186.11
  C 466.07 185.30 469.45 184.09 470.98 190.00
  C 472.53 195.95 474.06 201.91 475.56 207.86
  C 476.45 211.35 475.21 213.72 471.85 214.96
  C 467.20 216.67 462.54 218.36 457.85 220.03
  C 457.57 220.13 457.37 220.40 457.36 220.70
  L 457.12 229.92
  C 457.11 230.22 457.29 230.49 457.57 230.58
  C 462.54 232.35 467.45 234.23 472.29 236.22
  C 475.62 237.59 476.47 239.71 475.60 243.06
  C 473.96 249.33 472.30 255.59 470.61 261.82
  C 469.88 264.49 467.94 265.58 464.78 265.09
  C 459.59 264.28 454.39 263.49 449.20 262.74
  C 448.90 262.69 448.60 262.84 448.45 263.10
  L 443.90 271.09
  C 443.75 271.35 443.78 271.69 443.98 271.92
  C 447.37 275.95 450.69 279.98 453.96 284.01
  C 456.18 286.75 456.06 289.36 453.60 291.84
  C 446.15 299.35 441.50 303.97 439.66 305.70
  C 436.29 308.87 433.92 306.36 430.66 303.73
  C 427.34 301.06 424.02 298.38 420.70 295.71
  C 420.48 295.54 420.16 295.53 419.90 295.69
  L 411.81 300.70
  C 411.55 300.86 411.41 301.15 411.45 301.44
  C 412.24 306.61 413.07 311.72 413.94 316.75
  C 415.10 323.50 408.29 323.53 404.00 325.04
  Z
  M 421.88 226.89
  C 421.88 199.33 399.53 176.98 371.97 176.98
  C 344.41 176.98 322.06 199.33 322.06 226.89
  C 322.06 254.45 344.41 276.80 371.97 276.80
  C 399.53 276.80 421.88 254.45 421.88 226.89
  Z"
/>
<rect fill="#9ec645" x="-11.33" y="-11.35" transform="translate(139.17,135.59) rotate(-0.1)" width="22.66" height="22.70" rx="5.88"/>
<rect fill="#c8c475" x="-11.33" y="-11.24" transform="translate(173.20,135.52) rotate(0.1)" width="22.66" height="22.48" rx="5.63"/>
<path fill="#eea151" d="
  M 218.5501 141.2607
  C 218.56 144.28 216.12 146.73 213.1092 146.7397
  L 201.5293 146.7801
  C 198.51 146.79 196.06 144.35 196.0503 141.3392
  L 196.0099 129.7593
  C 196.00 126.74 198.44 124.29 201.4508 124.2803
  L 213.0307 124.2399
  C 216.05 124.23 218.50 126.67 218.5097 129.6808
  L 218.5501 141.2607
  Z
  M 216.39 135.53
  C 216.39 130.55 212.35 126.51 207.37 126.51
  C 202.39 126.51 198.35 130.55 198.35 135.53
  C 198.35 140.51 202.39 144.55 207.37 144.55
  C 212.35 144.55 216.39 140.51 216.39 135.53
  Z"
/>
<circle fill="#ebc32e" cx="207.37" cy="135.53" r="9.02"/>
<rect fill="#c5a86c" x="127.82" y="156.02" width="22.84" height="22.68" rx="6.03"/>
<path fill="#bc639e" d="
  M 184.51 172.92
  C 184.51 176.12 181.91 178.72 178.71 178.72
  L 167.81 178.72
  C 164.61 178.72 162.01 176.12 162.01 172.92
  L 162.01 161.80
  C 162.01 158.60 164.61 156.00 167.81 156.00
  L 178.71 156.00
  C 181.91 156.00 184.51 158.60 184.51 161.80
  L 184.51 172.92
  Z
  M 182.1882 166.9977
  C 182.17 164.66 180.26 162.78 177.9287 162.7973
  L 168.5290 162.8629
  C 166.19 162.88 164.31 164.79 164.3286 167.1223
  L 164.3318 167.5823
  C 164.35 169.92 166.26 171.80 168.5913 171.7827
  L 177.9910 171.7171
  C 180.33 171.70 182.21 169.79 182.1914 167.4577
  L 182.1882 166.9977
  Z"
/>
<rect fill="#c18d63" x="-11.30" y="-11.34" transform="translate(207.34,167.36) rotate(-0.1)" width="22.60" height="22.68" rx="5.71"/>
<rect fill="#db3d56" x="-8.93" y="-4.46" transform="translate(173.26,167.29) rotate(-0.4)" width="17.86" height="8.92" rx="4.23"/>
<path fill="#ffffff" d="
  M 421.88 226.89
  C 421.88 254.45 399.53 276.80 371.97 276.80
  C 344.41 276.80 322.06 254.45 322.06 226.89
  C 322.06 199.33 344.41 176.98 371.97 176.98
  C 399.53 176.98 421.88 199.33 421.88 226.89
  Z
  M 411.88 226.89
  C 411.88 204.84 394.01 186.97 371.96 186.97
  C 349.91 186.97 332.04 204.84 332.04 226.89
  C 332.04 248.94 349.91 266.81 371.96 266.81
  C 394.01 266.81 411.88 248.94 411.88 226.89
  Z"
/>
<circle fill="#ff5f5f" cx="371.96" cy="226.89" r="39.92"/>
<path fill="#2b2d2d" d="
  M 159.54 192.25
  C 159.44 198.06 152.01 198.29 150.46 192.50
  C 151.49 186.79 158.94 185.94 159.54 192.25
  Z"
/>
<path fill="#c3c9ca" d="
  M 177.76 192.39
  C 176.73 198.79 169.66 197.72 168.50 192.04
  C 170.36 186.61 177.04 186.21 177.76 192.39
  Z"
/>
<path fill="#c3c9ca" d="
  M 196.04 192.25
  C 194.75 198.33 187.79 198.09 186.96 192.25
  C 187.96 186.36 194.87 186.43 196.04 192.25
  Z"
/>
<path fill="#9ce9ef" d="
  M 109.84 190.10
  C 110.07 190.36 110.02 190.99 109.71 192.00
  C 99.48 191.48 89.74 191.56 85.47 201.40
  C 84.50 203.62 84.01 207.13 83.99 211.93
  C 83.67 287.00 83.60 347.52 83.78 393.49
  C 83.83 405.82 90.07 412.00 102.50 412.04
  C 103.52 412.79 102.37 413.38 101.71 413.45
  C 89.38 414.74 82.27 404.48 82.27 393.26
  C 82.27 333.03 82.23 272.79 82.14 212.55
  C 82.13 201.10 85.49 193.35 97.73 190.75
  C 101.61 189.93 105.65 189.71 109.84 190.10
  Z"
/>
<path fill="#00425a" d="
  M 109.71 192.00
  L 109.89 207.51
  L 100.08 207.64
  C 99.81 207.64 99.59 207.87 99.58 208.16
  C 99.17 236.31 99.26 264.42 99.87 292.51
  L 99.91 375.71
  C 99.91 375.98 100.13 376.20 100.40 376.20
  L 387.70 376.23
  C 388.00 376.23 388.25 375.99 388.24 375.70
  L 387.88 328.14
  C 393.15 328.87 398.85 326.27 404.00 325.04
  C 404.51 344.94 403.76 364.83 404.29 384.75
  C 404.14 396.86 405.54 406.52 392.50 411.87
  L 280.00 412.04
  L 207.81 412.01
  L 102.50 412.04
  C 90.07 412.00 83.83 405.82 83.78 393.49
  C 83.60 347.52 83.67 287.00 83.99 211.93
  C 84.01 207.13 84.50 203.62 85.47 201.40
  C 89.74 191.56 99.48 191.48 109.71 192.00
  Z
  M 253.15 393.40
  C 253.15 389.06 249.63 385.54 245.29 385.54
  C 240.95 385.54 237.43 389.06 237.43 393.40
  C 237.43 397.74 240.95 401.26 245.29 401.26
  C 249.63 401.26 253.15 397.74 253.15 393.40
  Z"
/>
<path fill="#0093ce" d="
  M 118.79 192.00
  L 150.46 192.50
  C 152.01 198.29 159.44 198.06 159.54 192.25
  L 168.50 192.04
  C 169.66 197.72 176.73 198.79 177.76 192.39
  L 186.96 192.25
  C 187.79 198.09 194.75 198.33 196.04 192.25
  L 227.71 192.00
  L 227.70 237.22
  C 227.70 237.50 227.48 237.72 227.20 237.72
  L 119.19 237.68
  C 118.90 237.68 118.67 237.46 118.67 237.19
  L 118.79 192.00
  Z
  M 150.5197 211.7398
  C 150.53 208.59 147.98 206.04 144.8296 206.0298
  L 133.5896 206.0102
  C 130.44 206.00 127.89 208.55 127.8797 211.7003
  L 127.8603 222.7802
  C 127.85 225.93 130.40 228.48 133.5504 228.4902
  L 144.7904 228.5098
  C 147.94 228.52 150.49 225.97 150.5003 222.8197
  L 150.5197 211.7398
  Z
  M 184.5298 211.6093
  C 184.54 208.54 182.06 206.04 178.9893 206.0299
  L 167.6093 205.9902
  C 164.54 205.98 162.04 208.46 162.0300 211.5308
  L 161.9902 222.9307
  C 161.98 226.00 164.46 228.50 167.5307 228.5101
  L 178.9107 228.5498
  C 181.98 228.56 184.48 226.08 184.4900 223.0092
  L 184.5298 211.6093
  Z
  M 218.5005 211.6012
  C 218.48 208.49 215.95 205.97 212.8310 205.9908
  L 201.6312 206.0495
  C 198.52 206.07 196.00 208.60 196.0208 211.7189
  L 196.0795 222.9388
  C 196.10 226.05 198.63 228.57 201.7490 228.5492
  L 212.9488 228.4905
  C 216.06 228.47 218.58 225.94 218.5592 222.8211
  L 218.5005 211.6012
  Z"
/>
<path fill="#00425a" d="
  M 237.06 192.00
  L 272.10 192.05
  C 271.03 197.55 269.47 202.76 267.42 207.68
  L 237.04 207.25
  L 237.06 192.00
  Z
  M 247.2229 201.4678
  C 247.96 200.69 247.92 199.46 247.1368 198.7256
  L 245.0665 196.7815
  C 244.29 196.05 243.06 196.09 242.3243 196.8677
  L 240.5171 198.7922
  C 239.78 199.57 239.82 200.80 240.6032 201.5344
  L 242.6735 203.4785
  C 243.45 204.21 244.68 204.17 245.4157 203.3923
  L 247.2229 201.4678
  Z"
/>
<path fill="#002831" d="
  M 245.4157 203.3923
  C 244.68 204.17 243.45 204.21 242.6735 203.4785
  L 240.6032 201.5344
  C 239.82 200.80 239.78 199.57 240.5171 198.7922
  L 242.3243 196.8677
  C 243.06 196.09 244.29 196.05 245.0665 196.7815
  L 247.1368 198.7256
  C 247.92 199.46 247.96 200.69 247.2229 201.4678
  L 245.4157 203.3923
  Z
  M 246.14 200.05
  C 246.14 198.88 245.20 197.94 244.03 197.94
  C 242.86 197.94 241.92 198.88 241.92 200.05
  C 241.92 201.22 242.86 202.16 244.03 202.16
  C 245.20 202.16 246.14 201.22 246.14 200.05
  Z"
/>
<circle fill="#ffffff" cx="244.03" cy="200.05" r="2.11"/>
<path fill="#9ec645" d="
  M 150.5003 222.8197
  C 150.49 225.97 147.94 228.52 144.7904 228.5098
  L 133.5504 228.4902
  C 130.40 228.48 127.85 225.93 127.8603 222.7802
  L 127.8797 211.7003
  C 127.89 208.55 130.44 206.00 133.5896 206.0102
  L 144.8296 206.0298
  C 147.98 206.04 150.53 208.59 150.5197 211.7398
  L 150.5003 222.8197
  Z
  M 143.62 217.29
  C 143.62 214.84 141.64 212.86 139.19 212.86
  C 136.74 212.86 134.76 214.84 134.76 217.29
  C 134.76 219.74 136.74 221.72 139.19 221.72
  C 141.64 221.72 143.62 219.74 143.62 217.29
  Z"
/>
<rect fill="#e18882" x="-11.25" y="-11.26" transform="translate(173.26,217.27) rotate(0.2)" width="22.50" height="22.52" rx="5.56"/>
<rect fill="#a2bbae" x="-11.24" y="-11.25" transform="translate(207.29,217.27) rotate(-0.3)" width="22.48" height="22.50" rx="5.64"/>
<path fill="#005bbb" d="
  M 237.04 207.25
  L 267.42 207.68
  C 268.16 214.08 279.12 216.41 284.27 218.48
  C 285.40 218.94 285.96 219.71 285.93 220.80
  L 285.69 231.18
  C 285.68 231.47 285.47 231.73 285.16 231.83
  C 281.70 232.90 278.30 234.11 274.97 235.45
  C 270.40 237.28 266.96 237.99 267.98 243.24
  C 268.34 245.07 271.87 263.29 275.55 265.82
  C 275.81 266.00 276.13 266.09 276.47 266.08
  C 281.83 266.00 287.09 265.29 292.25 263.94
  C 293.84 263.53 295.03 263.95 295.83 265.21
  L 299.95 271.66
  C 300.96 273.24 300.80 274.85 299.48 276.49
  C 297.19 279.34 288.54 287.74 290.66 291.08
  C 290.84 291.36 290.85 291.69 290.69 291.91
  L 290.30 292.44
  L 99.87 292.51
  C 99.26 264.42 99.17 236.31 99.58 208.16
  C 99.59 207.87 99.81 207.64 100.08 207.64
  L 109.89 207.51
  C 110.01 222.92 110.05 238.34 110.00 253.77
  C 109.98 262.04 113.06 264.98 121.01 264.99
  C 156.50 265.00 192.00 265.01 227.50 265.00
  C 234.20 265.00 236.85 259.89 236.78 253.68
  C 236.60 238.21 236.69 222.73 237.04 207.25
  Z"
/>
<circle fill="#ebc32e" cx="139.19" cy="217.29" r="4.43"/>
<rect fill="#2b2d2d" x="-13.45" y="-4.51" transform="translate(173.26,251.31) rotate(0.1)" width="26.90" height="9.02" rx="4.33"/>
<path fill="#b5f7fb" d="
  M 510.96 277.25
  C 501.51 382.43 431.67 469.55 330.75 500.71
  C 328.63 500.76 330.47 499.45 331.07 499.26
  C 400.28 477.95 457.05 428.02 487.29 363.01
  C 496.40 343.43 502.87 321.84 506.71 298.24
  C 507.29 294.70 507.75 289.24 508.53 284.26
  C 508.78 282.64 508.44 276.75 510.96 277.25
  Z"
/>
<path fill="#ffd500" d="
  M 99.87 292.51
  L 290.30 292.44
  C 295.91 296.66 301.15 301.34 306.03 306.48
  C 307.80 308.34 309.86 308.66 312.02 306.98
  C 316.40 303.60 320.69 300.11 324.88 296.50
  C 325.09 296.31 325.41 296.29 325.68 296.44
  L 335.65 301.99
  C 335.92 302.14 336.08 302.43 336.05 302.72
  C 335.61 306.73 334.84 311.99 333.75 318.50
  C 333.23 321.58 334.50 323.48 337.57 324.21
  C 347.38 326.52 353.17 327.95 354.96 328.50
  C 358.67 329.66 360.34 328.53 361.87 325.07
  C 363.90 320.48 365.69 315.78 367.24 310.98
  C 367.42 310.41 367.93 310.03 368.50 310.03
  L 379.38 310.09
  C 379.68 310.09 379.94 310.29 380.03 310.59
  C 381.82 316.80 384.44 322.65 387.88 328.14
  L 388.24 375.70
  C 388.25 375.99 388.00 376.23 387.70 376.23
  L 100.40 376.20
  C 100.13 376.20 99.91 375.98 99.91 375.71
  L 99.87 292.51
  Z"
/>
<path fill="#c7feff" fill-opacity="0.996" d="
  M 173.00 498.04
  C 93.52 470.66 33.19 407.04 9.96 326.25
  C 10.29 326.06 10.62 326.02 10.93 326.11
  C 11.18 326.19 11.40 326.46 11.51 326.83
  C 34.37 406.92 94.63 469.42 172.81 496.93
  C 173.76 497.27 173.83 497.64 173.00 498.04
  Z"
/>
<path fill="#c7feff" fill-opacity="0.996" d="
  M 404.29 384.75
  L 404.71 384.97
  C 405.00 385.12 405.19 385.34 405.20 385.53
  C 405.66 396.63 406.19 407.38 393.78 412.25
  C 392.81 412.64 392.38 412.51 392.50 411.87
  C 405.54 406.52 404.14 396.86 404.29 384.75
  Z"
/>
<path fill="#3eb1c0" d="
  M 253.15 393.40
  C 253.15 397.74 249.63 401.26 245.29 401.26
  C 240.95 401.26 237.43 397.74 237.43 393.40
  C 237.43 389.06 240.95 385.54 245.29 385.54
  C 249.63 385.54 253.15 389.06 253.15 393.40
  Z
  M 250.32 393.40
  C 250.32 390.62 248.07 388.37 245.29 388.37
  C 242.51 388.37 240.26 390.62 240.26 393.40
  C 240.26 396.18 242.51 398.43 245.29 398.43
  C 248.07 398.43 250.32 396.18 250.32 393.40
  Z"
/>
<circle fill="#00425a" cx="245.29" cy="393.40" r="5.03"/>
<path fill="#002831" d="
  M 280.00 412.04
  L 280.03 451.93
  L 208.00 451.96
  L 207.81 412.01
  L 280.00 412.04
  Z"
/>
<path fill="#00425a" d="
  M 280.03 451.93
  L 300.53 451.89
  C 300.87 451.89 301.18 451.99 301.43 452.17
  C 305.06 454.78 305.04 457.31 301.37 459.75
  C 301.11 459.93 300.79 460.02 300.45 460.02
  L 187.55 460.03
  C 187.22 460.03 186.90 459.93 186.63 459.75
  C 182.96 457.24 182.96 454.73 186.62 452.21
  C 186.87 452.03 187.19 451.94 187.53 451.95
  L 208.00 451.96
  L 280.03 451.93
  Z"
/>
</svg>
