<svg xmlns="http://www.w3.org/2000/svg" id="Layer_1" width="14px" height="14px" viewBox="0 0 14 14" version="1.1"><defs><style>.st11,.st15,.st17,.st18,.st26,.st28,.st29,.st32,.st33,.st35,.st38,.st39,.st41,.st47,.st8{fill:none;stroke-width:.05px}.st49{fill:#b5f7fb}.st8{stroke:#418a99}.st11{stroke:#417d84}.st54{fill:#fff}.st15{stroke:#2da9cb}.st60{fill:#2b2d2d}.st61{fill:#ebc32e}.st17{stroke:#59bac6}.st18{stroke:#2e515e}.st63{fill:#00425a}.st64{fill:#c5a86c}.st26{stroke:#90b49a}.st28{stroke:#1f7a8d}.st29{stroke:#444747}.st32{stroke:#62aecc}.st66{fill:#82d1d7}.st33{stroke:#004f8b}.st35{stroke:#003546}.st38{stroke:#a4e7eb}.st39{stroke:#8fc4c9}.st72{fill:#c7feff;fill-opacity:1}.st41{stroke:#0d5f78}.st74{fill:#a2bbae}.st76{fill:#9ec645}.st47{stroke:#9ce4e9}.st77{fill:#002831}.st78{fill:#c3c9ca}</style></defs><path d="M8.72.23s-.02 0-.02.02v.02c2.21.58 3.96 2.15 4.78 4.28.04.11.08.22.11.34 0 0 0 .02.02.02h.02" class="st38" vector-effect="non-scaling-stroke"/><path d="M13.94 7.59c-.07-.01-.06.15-.07.19-.02.14-.03.29-.05.38-.11.65-.28 1.24-.53 1.77a7.023 7.023 0 0 1-4.27 3.73c-.02 0-.07.04 0 .04" class="st47" vector-effect="non-scaling-stroke"/><path d="M4.69 13.63s.02-.02 0-.03C2.55 12.85.9 11.14.28 8.95c0-.01 0-.02-.02-.02H.23" class="st38" vector-effect="non-scaling-stroke"/><path d="M.26 4.99S.27 5 .29 5c0 0 .01 0 .02-.02.05-.13.09-.27.14-.4.27-.77.67-1.46 1.2-2.07C2.44 1.58 3.4.91 4.54.48c.03-.01.03-.03 0-.04" class="st47" vector-effect="non-scaling-stroke"/><path d="M8.36 3.53c.07.08.15.15.22.23.11.1.25 0 .36-.09.07-.06.08-.11.05-.2-.03-.09-.06-.18-.09-.28v-.02l.12-.16S9.03 3 9.04 3c.15 0 .43.05.47-.13.04-.15.12-.29-.06-.39-.08-.04-.16-.09-.25-.13-.01 0-.02-.02-.03-.04l-.03-.15s0-.04.01-.05c.08-.07.3-.26.27-.37-.02-.06-.06-.13-.11-.21-.09-.12-.18-.08-.32-.03-.06.02-.12.04-.19.07h-.02l-.16-.13s-.01-.01-.01-.02c0-.09.03-.34-.02-.41-.05-.08-.21-.1-.3-.11-.16-.03-.24.23-.31.37 0 0-.01.01-.02.01l-.21.03h-.02l-.25-.25s-.08-.04-.12-.03c-.11.03-.33.15-.29.29 0 .03.04.14.11.32v.02l-.14.19s-.01.01-.02.01c-.15 0-.44-.07-.48.14-.03.13-.09.27.07.35.09.04.18.09.27.14 0 0 .01.01.01.02l.04.22v.02c-.09.08-.17.17-.25.26-.09.1.09.38.2.4.09.02.29-.08.38-.11h.02l.19.14s.01.01.01.02c0 .09-.03.32.02.4.04.08.22.1.3.12.15.04.25-.26.31-.37 0-.01.02-.02.04-.03l.19-.03s.03 0 .04.01" class="st17" vector-effect="non-scaling-stroke"/><path d="M2.97 5.2c-.11-.01-.23 0-.33.02-.33.07-.43.28-.43.6v4.94c0 .31.19.59.53.55.02 0 .05-.02.02-.04" style="stroke:#8fdde3;fill:none;stroke-width:.05px" vector-effect="non-scaling-stroke"/><path d="M2.77 11.28h2.88" class="st8" vector-effect="non-scaling-stroke"/><path d="M5.65 11.27v1.09" class="st11" vector-effect="non-scaling-stroke"/><path d="M5.65 12.37H5.07c-.1.07-.1.14 0 .21H8.22c.1-.07.1-.14 0-.21H7.64" class="st8" vector-effect="non-scaling-stroke"/><path d="M7.62 12.37v-1.09" class="st11" vector-effect="non-scaling-stroke"/><path d="M7.62 11.28h3.08" class="st8" vector-effect="non-scaling-stroke"/><path d="M10.7 11.27s0 .02.04.01c.34-.13.32-.43.31-.73 0 0 0-.01-.01-.02h-.01" class="st38" vector-effect="non-scaling-stroke"/><path d="M11.02 10.53c-.01-.54 0-1.09 0-1.63" class="st8" vector-effect="non-scaling-stroke"/><path d="M11.01 8.9c.12-.04.3-.04.27-.23-.02-.14-.05-.28-.07-.42v-.02l.22-.14h.02c.09.07.18.15.27.22.09.07.15.14.25.05.05-.05.18-.17.38-.38.07-.07.07-.14 0-.21l-.27-.33v-.02l.12-.22s.01-.01.02 0l.43.06c.09.01.14-.02.16-.09.05-.17.09-.34.14-.51.02-.09 0-.15-.09-.19-.13-.05-.27-.11-.4-.15 0 0-.01 0-.01-.02v-.25s.01-.02.02-.02c.13-.05.26-.09.38-.14.09-.03.13-.1.1-.19-.04-.16-.08-.33-.13-.49-.04-.16-.13-.13-.28-.11-.11.02-.21.03-.32.05 0 0-.02 0-.02-.01l-.12-.22V4.9c.09-.11.24-.26.3-.39.02-.05.01-.09-.02-.12-.13-.13-.26-.27-.39-.4-.08-.08-.13-.07-.21 0-.11.08-.21.17-.32.26h-.02l-.23-.14s-.01-.01 0-.02c.02-.14.04-.27.07-.41.02-.1-.02-.16-.12-.19-.18-.05-.36-.11-.54-.15-.05-.01-.08 0-.1.05l-.18.45s-.01.01-.02.01h-.29s-.02-.01-.02-.02l-.18-.45s-.05-.06-.1-.06c-.19.04-.38.08-.56.14-.09.03-.13.07-.11.16 0 .04.03.19.07.42 0 0 0 .02-.01.02l-.26.15h-.02l-.37-.3s-.09-.04-.13 0c-.14.13-.28.27-.42.41-.05.05-.05.1 0 .16.09.12.19.23.28.34v.02l-.16.28s-.01.01-.02 0c-.14-.03-.29-.05-.43-.07-.15-.02-.15.1-.19.2" style="stroke:#4ea7b6;fill:none;stroke-width:.05px" vector-effect="non-scaling-stroke"/><path d="M7.4 5.26h-.96" class="st8" vector-effect="non-scaling-stroke"/><path d="M6.45 5.26V1.64c0-.29-.1-.34-.38-.34h-2.8c-.22 0-.29.07-.29.3-.01.81 0 1.42 0 2.19v1.42" style="stroke:#6f999c;fill:none;stroke-width:.05px" vector-effect="non-scaling-stroke"/><path d="M6.45 5.26v.42" class="st18" vector-effect="non-scaling-stroke"/><path d="M6.45 5.67c0 .42-.01.85 0 1.27 0 .17-.07.31-.25.31H3.29c-.22 0-.3-.08-.3-.31V5.67" style="stroke:#2e5e8e;fill:none;stroke-width:.05px" vector-effect="non-scaling-stroke"/><path d="M2.97 5.68v-.42" class="st18" vector-effect="non-scaling-stroke"/><path d="M2.96 5.26v-.05" style="stroke:#7ca5a8;fill:none;stroke-width:.05px" vector-effect="non-scaling-stroke"/><path d="M2.96 5.26c-.28-.01-.55-.01-.66.26-.03.06-.04.16-.04.29 0 2.05-.01 3.71 0 4.97 0 .34.17.51.51.51" style="stroke:#4e96a5;fill:none;stroke-width:.05px" vector-effect="non-scaling-stroke"/><path d="M7.9 8H2.69" style="stroke:#80985e;fill:none;stroke-width:.05px" vector-effect="non-scaling-stroke"/><path d="M7.28 5.69h-.83M2.97 5.68H2.7s-.01 0-.01.02c-.01.77 0 1.54 0 2.31" class="st33" vector-effect="non-scaling-stroke"/><path d="M2.69 8.01v2.28s0 .01.01.01h7.86s.02 0 .01-.01v-1.3" style="stroke:#808c2d;fill:none;stroke-width:.05px" vector-effect="non-scaling-stroke"/><path d="M11.02 10.53c0 .33.03.6-.32.74" style="stroke:#63a0ac;fill:none;stroke-width:.05px" vector-effect="non-scaling-stroke"/><path d="M7.62 11.28H5.65" class="st35" vector-effect="non-scaling-stroke"/><path d="M11.01 8.9c-.14.03-.3.1-.44.08" class="st41" vector-effect="non-scaling-stroke"/><path d="M10.57 8.98a1.71 1.71 0 0 1-.21-.48s0-.01-.02-.01h-.3s-.03 0-.03.02c-.04.13-.09.26-.15.39-.04.09-.09.13-.19.09-.05-.02-.21-.05-.48-.12-.08-.02-.12-.07-.1-.16.03-.18.05-.32.06-.43 0 0 0-.02-.01-.02l-.27-.15h-.02c-.11.1-.23.19-.35.29-.06.05-.12.04-.16-.01a3.08 3.08 0 0 0-.43-.38" style="fill:none;stroke-width:.05px;stroke:#8da94b" vector-effect="non-scaling-stroke"/><path d="M7.9 8h.01v-.04c-.06-.09.18-.32.24-.4.04-.04.04-.09.01-.13l-.11-.18s-.05-.05-.1-.03c-.14.04-.29.06-.43.06h-.03c-.1-.07-.2-.57-.21-.62-.03-.14.07-.16.19-.21.09-.04.18-.07.28-.1 0 0 .01 0 .01-.02v-.28s0-.05-.04-.06c-.14-.06-.44-.12-.46-.3" style="stroke:#0d6ca8;fill:none;stroke-width:.05px" vector-effect="non-scaling-stroke"/><path d="M7.28 5.69c.06-.13.1-.28.13-.43" class="st41" vector-effect="non-scaling-stroke"/><path d="M7.62 12.37H5.65" class="st35" vector-effect="non-scaling-stroke"/><path d="M8.75 2.41c0-.4-.32-.72-.72-.72s-.72.32-.72.72.32.72.72.72.72-.32.72-.72" class="st17" vector-effect="non-scaling-stroke"/><path d="M5.19 1.66c0-.07-.05-.12-.12-.12h-.74c-.07 0-.12.05-.12.12 0 .07.05.13.12.13h.74c.07 0 .12-.05.12-.12M3.83 1.66c0-.07-.05-.12-.12-.12s-.12.05-.12.12.05.12.12.12.12-.05.12-.12" class="st29" vector-effect="non-scaling-stroke"/><path d="M3.21 5.26V6.5s0 .01.01.01h2.95s.01 0 .01-.01V5.26" style="stroke:#2e7a98;fill:none;stroke-width:.05px" vector-effect="non-scaling-stroke"/><path d="M6.19 5.26V2.05s0-.01-.01-.01H3.23s-.01 0-.01.01v3.21" style="stroke:#5b9094;fill:none;stroke-width:.05px" vector-effect="non-scaling-stroke"/><path d="M6.19 5.26h-.87" class="st15" vector-effect="non-scaling-stroke"/><path d="M5.32 5.26c-.03-.16-.22-.16-.25 0" class="st39" vector-effect="non-scaling-stroke"/><path d="M5.08 5.26h-.25" class="st15" vector-effect="non-scaling-stroke"/><path d="M4.82 5.27c-.02-.17-.2-.16-.25 0" class="st39" vector-effect="non-scaling-stroke"/><path d="M4.57 5.26h-.25" class="st15" vector-effect="non-scaling-stroke"/><path d="M4.33 5.26c-.02-.17-.22-.15-.25 0" style="stroke:#43767a;fill:none;stroke-width:.05px" vector-effect="non-scaling-stroke"/><path d="M4.08 5.27h-.87" class="st15" vector-effect="non-scaling-stroke"/><path d="M4.82 5.27c-.03.18-.22.15-.25 0" class="st32" vector-effect="non-scaling-stroke"/><path d="M4.33 5.26c0 .16-.21.17-.25 0" style="stroke:#16607e;fill:none;stroke-width:.05px" vector-effect="non-scaling-stroke"/><path d="M5.32 5.26c-.04.17-.23.16-.25 0" class="st32" vector-effect="non-scaling-stroke"/><path d="M5.07 6.87c0-.07-.05-.12-.12-.12h-.5c-.07 0-.12.05-.12.12 0 .08.05.13.12.13h.5c.07 0 .12-.05.12-.12" class="st29" vector-effect="non-scaling-stroke"/><path d="M5.94 2.28c0-.07-.05-.12-.12-.12H3.59c-.07 0-.12.05-.12.12 0 .07.05.12.12.12h2.23c.07 0 .12-.05.12-.12" style="stroke:#7ebdbb;fill:none;stroke-width:.05px" vector-effect="non-scaling-stroke"/><path d="M4.08 2.69c0-.09-.07-.16-.16-.16h-.3c-.09 0-.16.07-.16.16v.3c0 .09.07.16.16.16h.3c.09 0 .16-.07.16-.16v-.3" class="st26" vector-effect="non-scaling-stroke"/><path d="M5.01 2.69c0-.09-.07-.16-.16-.16h-.31c-.09 0-.16.07-.16.16V3c0 .09.07.16.16.16h.31c.09 0 .16-.07.16-.16v-.31" style="stroke:#6fadab;fill:none;stroke-width:.05px" vector-effect="non-scaling-stroke"/><path d="M5.94 2.69c0-.09-.07-.16-.16-.16h-.3c-.09 0-.16.07-.16.16V3c0 .09.07.16.16.16h.3c.09 0 .16-.07.16-.16v-.31" style="stroke:#53b1b9;fill:none;stroke-width:.05px" vector-effect="non-scaling-stroke"/><path d="M4.08 3.56c0-.09-.07-.16-.16-.16h-.3c-.09 0-.16.07-.16.16v.3c0 .09.07.16.16.16h.3c.09 0 .16-.07.16-.16v-.3" style="stroke:#7cc386;fill:none;stroke-width:.05px" vector-effect="non-scaling-stroke"/><path d="M5.01 3.56c0-.09-.07-.15-.15-.15h-.31c-.09 0-.15.07-.15.15v.31c0 .09.07.15.15.15h.31c.09 0 .15-.07.15-.15v-.31" style="stroke:#91c29e;fill:none;stroke-width:.05px" vector-effect="non-scaling-stroke"/><path d="M5.94 3.55c0-.08-.07-.15-.15-.15h-.32c-.08 0-.15.07-.15.15v.32c0 .08.07.15.15.15h.32c.08 0 .15-.07.15-.15v-.32" style="stroke:#a4b08c;fill:none;stroke-width:.05px" vector-effect="non-scaling-stroke"/><path d="M4.08 4.44c0-.09-.07-.16-.16-.16h-.29c-.09 0-.16.07-.16.16v.29c0 .09.07.16.16.16h.29c.09 0 .16-.07.16-.16v-.29" class="st26" vector-effect="non-scaling-stroke"/><path d="M5.01 4.43c0-.09-.07-.16-.16-.16h-.3c-.09 0-.16.07-.16.16v.3c0 .09.07.16.16.16h.3c.09 0 .16-.07.16-.16v-.3" style="stroke:#8b91b3;fill:none;stroke-width:.05px" vector-effect="non-scaling-stroke"/><path d="M5.94 4.43c0-.09-.07-.16-.16-.16h-.31c-.09 0-.16.07-.16.16v.31c0 .09.07.16.16.16h.31c.09 0 .16-.07.16-.16v-.31" style="stroke:#8ea695;fill:none;stroke-width:.05px" vector-effect="non-scaling-stroke"/><path d="M3.89 2.84c0-.07-.05-.12-.12-.12s-.12.05-.12.12.05.12.12.12.12-.05.12-.12" style="stroke:#a2956f;fill:none;stroke-width:.05px" vector-effect="non-scaling-stroke"/><path d="M11.5 6.21c0-.75-.61-1.37-1.37-1.37s-1.37.61-1.37 1.37.61 1.37 1.37 1.37 1.37-.61 1.37-1.37" style="stroke:#8dbeca;fill:none;stroke-width:.05px" vector-effect="non-scaling-stroke"/><path d="M5.88 3.71c0-.14-.11-.25-.25-.25s-.25.11-.25.25.11.25.25.25.25-.11.25-.25" style="stroke:#edb240;fill:none;stroke-width:.05px" vector-effect="non-scaling-stroke"/><path d="M4.95 4.57c0-.06-.05-.12-.12-.11h-.26c-.06 0-.12.05-.11.12 0 .08.05.13.12.13h.26c.06 0 .12-.05.11-.12" style="stroke:#cc507a;fill:none;stroke-width:.05px" vector-effect="non-scaling-stroke"/><path d="M11.23 6.21c0-.6-.49-1.09-1.09-1.09s-1.09.49-1.09 1.09.49 1.09 1.09 1.09 1.09-.49 1.09-1.09" style="stroke:#ffafaf;fill:none;stroke-width:.05px" vector-effect="non-scaling-stroke"/><path d="M6.89 10.77c0-.12-.1-.21-.21-.21s-.21.1-.21.21.1.21.21.21.21-.1.21-.21" class="st28" vector-effect="non-scaling-stroke"/><path d="M4.08 5.8c0-.09-.07-.16-.16-.16h-.31c-.09 0-.16.07-.16.16v.3c0 .09.07.16.16.16h.31c.09 0 .16-.07.16-.16v-.3" style="stroke:#4fad8a;fill:none;stroke-width:.05px" vector-effect="non-scaling-stroke"/><path d="M5.01 5.79c0-.08-.07-.15-.15-.15h-.31c-.08 0-.15.07-.15.15v.31c0 .08.07.15.15.15h.31c.08 0 .15-.07.15-.15v-.31" style="stroke:#718ea8;fill:none;stroke-width:.05px" vector-effect="non-scaling-stroke"/><path d="M5.94 5.79c0-.09-.07-.15-.16-.15h-.31c-.09 0-.15.07-.15.16v.31c0 .09.07.15.16.15h.31c.09 0 .15-.07.15-.16v-.31" style="stroke:#51a7be;fill:none;stroke-width:.05px" vector-effect="non-scaling-stroke"/><path d="M6.72 5.52s.02-.05 0-.08l-.06-.05s-.05-.02-.08 0l-.05.05s-.02.05 0 .08l.06.05s.05.02.08 0l.05-.05" class="st35" vector-effect="non-scaling-stroke"/><path d="M6.69 5.48s-.03-.06-.06-.06-.06.03-.06.06.03.06.06.06.06-.03.06-.06" style="stroke:#809498;fill:none;stroke-width:.05px" vector-effect="non-scaling-stroke"/><path d="M3.89 5.95c0-.07-.05-.12-.12-.12s-.12.05-.12.12.05.12.12.12.12-.05.12-.12" style="stroke:#c5c53a;fill:none;stroke-width:.05px" vector-effect="non-scaling-stroke"/><path d="M6.81 10.77c0-.08-.06-.14-.14-.14s-.14.06-.14.14.06.14.14.14.14-.06.14-.14" class="st28" vector-effect="non-scaling-stroke"/><path d="M8.72.23s-.02 0-.02.02v.02c2.21.58 3.96 2.15 4.78 4.28.04.11.08.22.11.34 0 0 0 .02.02.02h.02c.28.88.38 1.78.31 2.7-.07-.01-.06.15-.07.19-.02.14-.03.29-.05.38-.11.65-.28 1.24-.53 1.77a7.023 7.023 0 0 1-4.27 3.73c-.02 0-.07.04 0 .04-1.4.43-2.93.41-4.31-.07.02-.01.02-.02 0-.03C2.57 12.87.92 11.16.3 8.97c0-.01 0-.02-.02-.02H.25c-.37-1.32-.36-2.63.03-3.94 0 0 .01.01.03.01 0 0 .01 0 .02-.02.05-.13.09-.27.14-.4.27-.77.67-1.46 1.2-2.07C2.46 1.6 3.42.93 4.56.5c.03-.01.03-.03 0-.04A6.8 6.8 0 0 1 8.72.23Zm-.36 3.3c.07.08.15.15.22.23.11.1.25 0 .36-.09.07-.06.08-.11.05-.2-.03-.09-.06-.18-.09-.28v-.02l.12-.16S9.03 3 9.04 3c.15 0 .43.05.47-.13.04-.15.12-.29-.06-.39-.08-.04-.16-.09-.25-.13-.01 0-.02-.02-.03-.04l-.03-.15s0-.04.01-.05c.08-.07.3-.26.27-.37-.02-.06-.06-.13-.11-.21-.09-.12-.18-.08-.32-.03-.06.02-.12.04-.19.07h-.02l-.16-.13s-.01-.01-.01-.02c0-.09.03-.34-.02-.41-.05-.08-.21-.1-.3-.11-.16-.03-.24.23-.31.37 0 0-.01.01-.02.01l-.21.03h-.02l-.25-.25s-.08-.04-.12-.03c-.11.03-.33.15-.29.29 0 .03.04.14.11.32v.02l-.14.19s-.01.01-.02.01c-.15 0-.44-.07-.48.14-.03.13-.09.27.07.35.09.04.18.09.27.14 0 0 .01.01.01.02l.04.22v.02c-.09.08-.17.17-.25.26-.09.1.09.38.2.4.09.02.29-.08.38-.11h.02l.19.14s.01.01.01.02c0 .09-.03.32.02.4.04.08.22.1.3.12.15.04.25-.26.31-.37 0-.01.02-.02.04-.03l.19-.03s.03 0 .04.01ZM2.97 5.2c-.11-.01-.23 0-.33.02-.33.07-.43.28-.43.6v4.94c0 .31.19.59.53.55.02 0 .05-.02.02-.04h2.88v1.09H5.06c-.1.07-.1.14 0 .21H8.21c.1-.07.1-.14 0-.21H7.63v-1.09h3.08s0 .02.04 0c.34-.13.32-.43.31-.73 0 0 0-.01-.01-.02h-.01c-.01-.55 0-1.09 0-1.64.12-.04.3-.04.27-.23-.02-.14-.05-.28-.07-.42v-.02l.22-.14h.02c.09.07.18.15.27.22.09.07.15.14.25.05.05-.05.18-.17.38-.38.07-.07.07-.14 0-.21l-.27-.33V7.4l.12-.22s.01-.01.02 0l.43.06c.09.01.14-.02.16-.09.05-.17.09-.34.14-.51.02-.09 0-.15-.09-.19-.13-.05-.27-.11-.4-.15 0 0-.01 0-.01-.02v-.25s.01-.02.02-.02c.13-.05.26-.09.38-.14.09-.03.13-.1.1-.19-.04-.16-.08-.33-.13-.49-.04-.16-.13-.13-.28-.11-.11.02-.21.03-.32.05 0 0-.02 0-.02-.01l-.12-.22v-.02c.09-.11.24-.26.3-.39.02-.05.01-.09-.02-.12-.13-.13-.26-.27-.39-.4-.08-.08-.13-.07-.21 0-.11.08-.21.17-.32.26h-.02l-.23-.14s-.01-.01 0-.02c.02-.14.04-.27.07-.41.02-.1-.02-.16-.12-.19-.18-.05-.36-.11-.54-.15-.05-.01-.08 0-.1.05l-.18.45s-.01.01-.02.01h-.29s-.02-.01-.02-.02l-.18-.45s-.05-.06-.1-.06c-.19.04-.38.08-.56.14-.09.03-.13.07-.11.16 0 .04.03.19.07.42 0 0 0 .02-.01.02l-.26.15h-.02l-.37-.3s-.09-.04-.13 0c-.14.13-.28.27-.42.41-.05.05-.05.1 0 .16.09.12.19.23.28.34v.02l-.16.28s-.01.01-.02 0c-.14-.03-.29-.05-.43-.07-.15-.02-.15.1-.19.2h-.96V1.61c0-.29-.1-.34-.38-.34h-2.8c-.22 0-.29.07-.29.3-.01.81 0 1.42 0 2.19v1.42Z" class="st66"/><path d="M8.72.23c2.34.62 4.18 2.35 4.91 4.66h-.02s-.01 0-.02-.02c-.03-.11-.07-.23-.11-.34C12.67 2.41 10.91.84 8.7.25c0 0-.01-.01 0-.02l.02-.02Z" class="st72"/><path d="M4.54.44s.03.03 0 .04c-1.14.43-2.1 1.1-2.89 2.03-.53.62-.92 1.31-1.2 2.07-.05.13-.09.27-.14.4 0 0-.01.02-.02.02s-.02 0-.03-.01C.9 2.87 2.48 1.22 4.54.44Z" class="st49"/><path d="M8.36 3.53s-.03-.02-.04-.01l-.19.03s-.03.01-.04.03c-.06.11-.16.41-.31.37-.08-.02-.26-.04-.3-.12-.04-.08-.02-.3-.02-.4 0 0 0-.02-.01-.02l-.19-.14h-.02c-.09.03-.3.13-.38.11-.11-.02-.3-.3-.2-.4.08-.09.17-.17.25-.26V2.7l-.04-.22s0-.02-.01-.02c-.09-.05-.18-.09-.27-.14-.16-.08-.09-.22-.07-.35.04-.22.32-.15.48-.14 0 0 .02 0 .02-.01l.14-.19v-.02c-.06-.18-.1-.28-.11-.32-.04-.14.18-.26.29-.29.05-.02.09 0 .12.03l.25.25h.02l.21-.03s.02 0 .02-.01c.06-.14.15-.39.31-.37.09.01.25.03.3.11.05.07.03.32.02.41 0 0 0 .02.01.02l.16.13h.02c.06-.02.12-.05.19-.07.14-.05.23-.09.32.03.06.08.1.15.11.21.03.11-.19.3-.27.37-.01.01-.02.03-.01.05l.03.15s.01.04.03.04c.08.04.17.08.25.13.18.1.1.24.06.39-.05.18-.33.12-.47.13 0 0-.02 0-.02.01l-.12.16v.02c.03.09.06.19.09.28.03.09.02.14-.05.2-.11.09-.25.2-.36.09a2.39 2.39 0 0 1-.22-.23Zm.39-1.12c0-.4-.32-.72-.72-.72s-.72.32-.72.72.32.72.72.72.72-.32.72-.72Z" style="fill:#2fa2b4"/><path d="M6.45 5.26v.42c-.01.42-.01.85 0 1.27 0 .17-.07.31-.25.31H3.29c-.22 0-.3-.08-.3-.31V1.6c0-.22.08-.3.29-.3h2.8c.28 0 .38.06.38.34v3.62Zm-1.26-3.6c0-.07-.05-.12-.12-.12h-.74c-.07 0-.12.05-.12.12 0 .07.05.13.12.13h.74c.07 0 .12-.05.12-.12Zm-1.36 0c0-.07-.05-.12-.12-.12s-.12.05-.12.12.05.12.12.12.12-.05.12-.12Zm-.62 3.6V6.5s0 .01.01.01h2.95s.01 0 .01-.01V2.05s0-.01-.01-.01H3.22s-.01 0-.01.01v3.21Zm1.86 1.61c0-.07-.05-.12-.12-.12h-.5c-.07 0-.12.05-.12.12 0 .08.05.13.12.13h.5c.07 0 .12-.05.12-.12Z" style="fill:#5c6061"/><rect width=".98" height=".25" x="4.21" y="1.54" class="st60" rx=".12" ry=".12"/><circle cx="3.71" cy="1.66" r=".12" class="st60"/><circle cx="8.03" cy="2.41" r=".72" class="st66"/><path d="M6.19 5.26h-.87c-.03-.15-.22-.15-.25 0h-.25c-.02-.17-.2-.15-.25 0h-.25c-.02-.17-.22-.14-.25.01H3.2V2.05s0-.01.01-.01h2.95s.01 0 .01.01v3.21Zm-.25-2.98c0-.07-.05-.12-.12-.12H3.59c-.07 0-.12.05-.12.12 0 .07.05.12.12.12h2.23c.07 0 .12-.05.12-.12Zm-1.86.41c0-.09-.07-.16-.16-.16h-.3c-.09 0-.16.07-.16.16v.3c0 .09.07.16.16.16h.3c.09 0 .16-.07.16-.16v-.3Zm.93 0c0-.09-.07-.16-.16-.16h-.31c-.09 0-.16.07-.16.16V3c0 .09.07.16.16.16h.31c.09 0 .16-.07.16-.16v-.31Zm.93 0c0-.09-.07-.16-.16-.16h-.3c-.09 0-.16.07-.16.16V3c0 .09.07.16.16.16h.3c.09 0 .16-.07.16-.16v-.31Zm-1.86.87c0-.09-.07-.16-.16-.16h-.3c-.09 0-.16.07-.16.16v.3c0 .09.07.16.16.16h.3c.09 0 .16-.07.16-.16v-.3Zm.93 0c0-.09-.07-.15-.15-.15h-.31c-.09 0-.15.07-.15.15v.31c0 .09.07.15.15.15h.31c.09 0 .15-.07.15-.15v-.31Zm.93-.01c0-.08-.07-.15-.15-.15h-.32c-.08 0-.15.07-.15.15v.32c0 .08.07.15.15.15h.32c.08 0 .15-.07.15-.15v-.32Zm-1.86.89c0-.09-.07-.16-.16-.16h-.29c-.09 0-.16.07-.16.16v.29c0 .09.07.16.16.16h.29c.09 0 .16-.07.16-.16v-.29Zm.93-.01c0-.09-.07-.16-.16-.16h-.3c-.09 0-.16.07-.16.16v.3c0 .09.07.16.16.16h.3c.09 0 .16-.07.16-.16v-.3Zm.93 0c0-.09-.07-.16-.16-.16h-.31c-.09 0-.16.07-.16.16v.31c0 .09.07.16.16.16h.31c.09 0 .16-.07.16-.16v-.31Z" style="fill:#5abfc7"/><rect width="2.48" height=".25" x="3.46" y="2.16" class="st74" rx=".12" ry=".12"/><path d="M4.08 2.99c0 .09-.07.16-.16.16h-.3c-.09 0-.16-.07-.16-.16v-.3c0-.09.07-.16.16-.16h.3c.09 0 .16.07.16.16v.3Zm-.19-.15c0-.07-.05-.12-.12-.12s-.12.05-.12.12.05.12.12.12.12-.05.12-.12Z" class="st64"/><rect width=".62" height=".62" x="4.39" y="2.54" rx=".16" ry=".16" style="fill:#839a8f" transform="rotate(-89.9 4.702 2.843)"/><rect width=".62" height=".62" x="5.32" y="2.54" rx=".16" ry=".16" style="fill:#4ca3ab" transform="rotate(-89.8 5.635 2.845)"/><circle cx="3.77" cy="2.84" r=".12" style="fill:#7e8272"/><path d="M11.01 8.9c-.14.03-.3.1-.44.08a1.71 1.71 0 0 1-.21-.48s0-.01-.02-.01h-.3s-.03 0-.03.02c-.04.13-.09.26-.15.39-.04.09-.09.13-.19.09-.05-.02-.21-.05-.48-.12-.08-.02-.12-.07-.1-.16.03-.18.05-.32.06-.43 0 0 0-.02-.01-.02l-.27-.15h-.02c-.11.1-.23.19-.35.29-.06.05-.12.04-.16-.01a3.08 3.08 0 0 0-.43-.38h.01v-.04c-.06-.09.18-.32.24-.4.04-.04.04-.09.01-.13l-.11-.18s-.05-.05-.1-.03c-.14.04-.29.06-.43.06H7.5c-.1-.07-.2-.57-.21-.62-.03-.14.07-.16.19-.21.09-.04.18-.07.28-.1 0 0 .01 0 .01-.02v-.28s0-.05-.04-.06c-.14-.06-.44-.12-.46-.3.06-.13.1-.28.13-.43.04-.09.03-.22.19-.2.14.02.29.04.43.07h.02l.16-.28v-.02c-.1-.11-.19-.23-.28-.34a.122.122 0 0 1 0-.16c.14-.14.28-.28.42-.41.04-.04.09-.04.13 0l.37.3h.02l.26-.15s.01-.01.01-.02c-.04-.24-.06-.38-.07-.42-.02-.09.02-.14.11-.16.19-.05.37-.1.56-.14.05 0 .08 0 .1.06l.18.45s.01.01.02.01h.31l.18-.45s.05-.06.1-.05l.54.15c.09.03.13.09.12.19-.02.14-.04.27-.07.41v.02l.23.14h.02l.32-.26c.08-.06.13-.07.21 0 .13.13.26.26.39.4.03.04.04.08.02.12-.06.13-.21.27-.3.39v.02l.12.22s.01.01.02.01c.11-.02.21-.04.32-.05.14-.02.24-.06.28.11.04.16.08.33.13.49.02.1 0 .16-.1.19-.13.05-.25.09-.38.14 0 0-.01.01-.01.02v.27c.14.05.27.1.4.15.09.04.11.1.09.19-.04.17-.09.34-.14.51-.02.07-.07.1-.16.09l-.43-.06h-.02l-.12.22v.02l.27.33c.06.07.06.15 0 .21-.2.21-.33.33-.38.38-.09.09-.16.02-.25-.05s-.18-.15-.27-.22h-.02l-.22.14s-.01.01 0 .02c.02.14.04.28.07.42.03.18-.15.19-.27.23Zm.49-2.69c0-.75-.61-1.37-1.37-1.37s-1.37.61-1.37 1.37.61 1.37 1.37 1.37 1.37-.61 1.37-1.37Z" style="fill:#1a7c95"/><rect width=".62" height=".62" x="3.46" y="3.4" class="st76" rx=".16" ry=".16" transform="rotate(-.1)"/><rect width=".61" height=".62" x="4.39" y="3.4" rx=".15" ry=".15" style="fill:#c8c475" transform="rotate(-89.9 4.697 3.71)"/><path d="M5.94 3.87c0 .08-.07.15-.15.15h-.32c-.08 0-.15-.07-.15-.15v-.32c0-.08.07-.15.15-.15h.32c.08 0 .15.07.15.15v.32Zm-.06-.16c0-.14-.11-.25-.25-.25s-.25.11-.25.25.11.25.25.25.25-.11.25-.25Z" style="fill:#eea151"/><circle cx="5.63" cy="3.71" r=".25" class="st61"/><rect width=".62" height=".62" x="3.46" y="4.27" class="st64" rx=".16" ry=".16"/><path d="M5.01 4.73c0 .09-.07.16-.16.16h-.3c-.09 0-.16-.07-.16-.16v-.3c0-.09.07-.16.16-.16h.3c.09 0 .16.07.16.16v.3Zm-.06-.16c0-.06-.05-.12-.12-.11h-.26c-.06 0-.12.05-.11.12 0 .08.05.13.12.13h.26c.06 0 .12-.05.11-.12Z" style="fill:#bc639e"/><rect width=".62" height=".62" x="5.32" y="4.27" rx=".16" ry=".16" style="fill:#c18d63" transform="rotate(-.1)"/><rect width=".49" height=".24" x="4.46" y="4.46" rx=".12" ry=".12" style="fill:#db3d56" transform="rotate(-.4 4.282 4.312)"/><path d="M11.5 6.21c0 .75-.61 1.37-1.37 1.37s-1.37-.61-1.37-1.37.61-1.37 1.37-1.37 1.37.61 1.37 1.37Zm-.27 0c0-.6-.49-1.09-1.09-1.09s-1.09.49-1.09 1.09.49 1.09 1.09 1.09 1.09-.49 1.09-1.09Z" class="st54"/><circle cx="10.14" cy="6.21" r="1.09" style="fill:#ff5f5f"/><path d="M4.33 5.26c0 .16-.21.17-.25 0 .03-.16.23-.18.25 0Z" class="st60"/><path d="M4.82 5.27c-.03.18-.22.15-.25 0 .05-.15.23-.16.25 0ZM5.32 5.26c-.04.17-.23.16-.25 0 .03-.16.22-.16.25 0Z" class="st78"/><path d="M2.97 5.2v.05c-.28-.01-.55-.01-.66.26-.03.06-.04.16-.04.29 0 2.05-.01 3.71 0 4.97 0 .34.17.51.51.51.03.02 0 .04-.02.04-.34.04-.53-.25-.53-.55V5.83c0-.31.09-.53.43-.6.11-.02.22-.03.33-.02Z" style="fill:#9ce9ef"/><path d="M2.96 5.26v.42H2.7s-.01 0-.01.01c-.01.77 0 1.54 0 2.31v2.28s0 .01.01.01h7.86s.02 0 .01-.01v-1.3c.13.02.29-.05.43-.08.01.54 0 1.09 0 1.63 0 .33.03.6-.32.74H2.75c-.34 0-.51-.17-.51-.51V5.79c0-.13.01-.23.04-.29.12-.27.38-.27.66-.26Zm3.93 5.51c0-.12-.1-.21-.21-.21s-.21.1-.21.21.1.21.21.21.21-.1.21-.21Z" class="st63"/><path d="M3.21 5.26h.87c.04.17.25.17.25 0h.25c.03.15.23.18.25 0h.25c.02.16.21.16.25 0h.87v1.23s0 .01-.01.01H3.24s-.01 0-.01-.01V5.25Zm.87.54c0-.09-.07-.16-.16-.16h-.31c-.09 0-.16.07-.16.16v.3c0 .09.07.16.16.16h.31c.09 0 .16-.07.16-.16v-.3Zm.93-.01c0-.08-.07-.15-.15-.15h-.31c-.08 0-.15.07-.15.15v.31c0 .08.07.15.15.15h.31c.08 0 .15-.07.15-.15v-.31Zm.93 0c0-.09-.07-.15-.16-.15h-.31c-.09 0-.15.07-.15.16v.31c0 .09.07.15.16.15h.31c.09 0 .15-.07.15-.16v-.31Z" style="fill:#0093ce"/><path d="M6.45 5.26h.96c-.03.15-.07.29-.13.43h-.83v-.43Zm.27.26s.02-.05 0-.08l-.06-.05s-.05-.02-.08 0l-.05.05s-.02.05 0 .08l.06.05s.05.02.08 0l.05-.05Z" class="st63"/><path d="M6.67 5.57s-.05.02-.08 0l-.06-.05s-.02-.05 0-.08l.05-.05s.05-.02.08 0l.06.05s.02.05 0 .08l-.05.05Zm.02-.09s-.03-.06-.06-.06-.06.03-.06.06.03.06.06.06.06-.03.06-.06Z" class="st77"/><circle cx="6.64" cy="5.48" r=".06" class="st54"/><path d="M4.08 6.1c0 .09-.07.16-.16.16h-.31c-.09 0-.16-.07-.16-.16v-.3c0-.09.07-.16.16-.16h.31c.09 0 .16.07.16.16v.3Zm-.19-.15c0-.07-.05-.12-.12-.12s-.12.05-.12.12.05.12.12.12.12-.05.12-.12Z" class="st76"/><rect width=".62" height=".62" x="4.39" y="5.64" rx=".15" ry=".15" style="fill:#e18882" transform="rotate(-89.8 4.704 5.947)"/><rect width=".61" height=".62" x="5.32" y="5.64" class="st74" rx=".15" ry=".15" transform="rotate(-.3 5.715 5.745)"/><path d="M6.45 5.67h.83c.02.19.32.25.46.31.03.01.05.03.05.06v.28s-.01.02-.02.02c-.09.03-.19.06-.28.1-.12.05-.22.07-.19.21 0 .05.11.55.21.62h.03c.15 0 .29-.02.43-.06.04-.01.08 0 .1.03l.11.18s.02.09-.01.13c-.06.08-.3.31-.24.4v.02h-.01l-5.21.02c-.02-.77-.02-1.54 0-2.31 0 0 0-.01.01-.01h.27v1.26c0 .23.08.31.3.31H6.2c.18 0 .26-.14.25-.31V5.66Z" style="fill:#005bbb"/><circle cx="3.77" cy="5.95" r=".12" class="st61"/><rect width=".25" height=".74" x="4.58" y="6.51" class="st60" rx=".12" ry=".12" transform="rotate(-89.9 4.7 6.882)"/><path d="M13.94 7.59c-.26 2.88-2.17 5.26-4.93 6.11-.06 0 0-.03 0-.04a6.966 6.966 0 0 0 4.27-3.73c.25-.54.43-1.13.53-1.77.02-.1.03-.25.05-.38 0-.04 0-.21.07-.19Z" class="st49"/><path d="M2.69 8.01H7.9c.15.11.3.24.43.38.05.05.1.06.16.01.12-.09.24-.19.35-.29h.02l.27.15s.01.01.01.02c-.01.11-.03.25-.06.43-.01.08.02.14.1.16.27.06.43.1.48.12.1.03.15 0 .19-.09.06-.13.1-.25.15-.39 0-.02.02-.03.03-.03h.3s.02 0 .02.02c.05.17.12.33.21.48v1.31H2.71s-.01 0-.01-.01V8Z" style="fill:#ffd500"/><path d="M4.69 13.63a7.014 7.014 0 0 1-4.46-4.7h.03s.01 0 .02.02c.63 2.19 2.27 3.9 4.41 4.65.03 0 .03.02 0 .03ZM11.02 10.53h.01l.01.02c.01.3.03.6-.31.73-.03.01-.04 0-.04-.01.36-.15.32-.41.32-.74Z" class="st72"/><path d="M6.89 10.77c0 .12-.1.21-.21.21s-.21-.1-.21-.21.1-.21.21-.21.21.1.21.21Zm-.08 0c0-.08-.06-.14-.14-.14s-.14.06-.14.14.06.14.14.14.14-.06.14-.14Z" style="fill:#3eb1c0"/><circle cx="6.67" cy="10.77" r=".14" class="st63"/><path d="M7.62 11.28v1.09H5.65v-1.09h1.97Z" class="st77"/><path d="M7.62 12.37H8.2c.1.07.1.14 0 .21H5.05c-.1-.07-.1-.14 0-.21H7.6Z" class="st63"/></svg>
