<?xml version="1.0" encoding="UTF-8"?>
<svg id="Layer_1" xmlns="http://www.w3.org/2000/svg" width="14" height="14" version="1.1" viewBox="0 0 14 14">
  <!-- Generator: Adobe Illustrator 30.0.0, SVG Export Plug-In . SVG Version: 2.1.1 Build 123)  -->
  <defs>
    <style>
      .st0 {
        stroke: #8da94b;
      }

      .st0, .st1, .st2, .st3, .st4, .st5, .st6, .st7, .st8, .st9, .st10, .st11, .st12, .st13, .st14, .st15, .st16, .st17, .st18, .st19, .st20, .st21, .st22, .st23, .st24, .st25, .st26, .st27, .st28, .st29, .st30, .st31, .st32, .st33, .st34, .st35, .st36, .st37, .st38, .st39, .st40, .st41, .st42, .st43, .st44, .st45, .st46, .st47 {
        fill: none;
        stroke-width: .05px;
      }

      .st1 {
        stroke: #80985e;
      }

      .st2 {
        stroke: #4fad8a;
      }

      .st3 {
        stroke: #51a7be;
      }

      .st48 {
        fill: #c8c475;
      }

      .st49 {
        fill: #b5f7fb;
      }

      .st50 {
        fill: #bc639e;
      }

      .st51 {
        fill: #1a7c95;
      }

      .st4 {
        stroke: #6fadab;
      }

      .st5 {
        stroke: #8b91b3;
      }

      .st6 {
        stroke: #c5c53a;
      }

      .st7 {
        stroke: #4ea7b6;
      }

      .st8 {
        stroke: #418a99;
      }

      .st52 {
        fill: #5abfc7;
      }

      .st9 {
        stroke: #7ca5a8;
      }

      .st53 {
        fill: #c18d63;
      }

      .st10 {
        stroke: #a2956f;
      }

      .st11 {
        stroke: #417d84;
      }

      .st12 {
        stroke: #8fdde3;
      }

      .st13 {
        stroke: #6f999c;
      }

      .st54 {
        fill: #fff;
      }

      .st14 {
        stroke: #5b9094;
      }

      .st55 {
        fill: #e18882;
      }

      .st15 {
        stroke: #2da9cb;
      }

      .st56 {
        fill: #839a8f;
      }

      .st57 {
        fill: #eea151;
      }

      .st58 {
        fill: #ff5f5f;
      }

      .st59 {
        fill: #0093ce;
      }

      .st16 {
        stroke: #718ea8;
      }

      .st60 {
        fill: #2b2d2d;
      }

      .st61 {
        fill: #ebc32e;
      }

      .st17 {
        stroke: #59bac6;
      }

      .st18 {
        stroke: #2e515e;
      }

      .st19 {
        stroke: #4e96a5;
      }

      .st62 {
        fill: #9ce9ef;
      }

      .st20 {
        stroke: #0d6ca8;
      }

      .st63 {
        fill: #00425a;
      }

      .st21 {
        stroke: #91c29e;
      }

      .st64 {
        fill: #c5a86c;
      }

      .st22 {
        stroke: #8dbeca;
      }

      .st23 {
        stroke: #16607e;
      }

      .st65 {
        fill: #2fa2b4;
      }

      .st24 {
        stroke: #8ea695;
      }

      .st25 {
        stroke: #809498;
      }

      .st26 {
        stroke: #90b49a;
      }

      .st27 {
        stroke: #53b1b9;
      }

      .st28 {
        stroke: #1f7a8d;
      }

      .st29 {
        stroke: #444747;
      }

      .st30 {
        stroke: #7ebdbb;
      }

      .st31 {
        stroke: #edb240;
      }

      .st32 {
        stroke: #62aecc;
      }

      .st66 {
        fill: #82d1d7;
      }

      .st33 {
        stroke: #004f8b;
      }

      .st67 {
        fill: #5c6061;
      }

      .st68 {
        fill: #7e8272;
      }

      .st69 {
        fill: #005bbb;
      }

      .st34 {
        stroke: #7cc386;
      }

      .st70 {
        fill: #3eb1c0;
      }

      .st35 {
        stroke: #003546;
      }

      .st36 {
        stroke: #43767a;
      }

      .st71 {
        fill: #db3d56;
      }

      .st37 {
        stroke: #2e5e8e;
      }

      .st38 {
        stroke: #a4e7eb;
      }

      .st39 {
        stroke: #8fc4c9;
      }

      .st72 {
        fill: #c7feff;
        fill-opacity: 1;
      }

      .st40 {
        stroke: #ffafaf;
      }

      .st41 {
        stroke: #0d5f78;
      }

      .st73 {
        fill: #4ca3ab;
      }

      .st42 {
        stroke: #cc507a;
      }

      .st43 {
        stroke: #2e7a98;
      }

      .st74 {
        fill: #a2bbae;
      }

      .st44 {
        stroke: #808c2d;
      }

      .st75 {
        fill: #ffd500;
      }

      .st76 {
        fill: #9ec645;
      }

      .st45 {
        stroke: #a4b08c;
      }

      .st46 {
        stroke: #63a0ac;
      }

      .st47 {
        stroke: #9ce4e9;
      }

      .st77 {
        fill: #002831;
      }

      .st78 {
        fill: #c3c9ca;
      }
    </style>
  </defs>
  <g>
    <path class="st38" d="M8.72.23s-.02,0-.02.02c0,0,0,.01,0,.02,2.21.58,3.96,2.15,4.78,4.28.04.11.08.22.11.34,0,0,0,.02.02.02,0,0,.02,0,.02,0" vector-effect="non-scaling-stroke"/>
    <path class="st47" d="M13.94,7.59c-.07-.01-.06.15-.07.19-.02.14-.03.29-.05.38-.11.65-.28,1.24-.53,1.77-.83,1.78-2.38,3.14-4.27,3.73-.02,0-.07.04,0,.04" vector-effect="non-scaling-stroke"/>
    <path class="st38" d="M4.69,13.63s.02-.02,0-.03c-2.14-.75-3.79-2.46-4.41-4.65,0-.01,0-.02-.02-.02,0,0-.02,0-.03,0" vector-effect="non-scaling-stroke"/>
    <path class="st47" d="M.26,4.99s.01.01.03.01c0,0,.01,0,.02-.02.05-.13.09-.27.14-.4.27-.77.67-1.46,1.2-2.07.79-.93,1.75-1.6,2.89-2.03.03-.01.03-.03,0-.04" vector-effect="non-scaling-stroke"/>
    <path class="st17" d="M8.36,3.53c.07.08.15.15.22.23.11.1.25,0,.36-.09.07-.06.08-.11.05-.2-.03-.09-.06-.18-.09-.28,0,0,0-.02,0-.02l.12-.16s.01-.01.02-.01c.15,0,.43.05.47-.13.04-.15.12-.29-.06-.39-.08-.04-.16-.09-.25-.13-.01,0-.02-.02-.03-.04l-.03-.15s0-.04.01-.05c.08-.07.3-.26.27-.37-.02-.06-.06-.13-.11-.21-.09-.12-.18-.08-.32-.03-.06.02-.12.04-.19.07,0,0-.02,0-.02,0l-.16-.13s-.01-.01-.01-.02c0-.09.03-.34-.02-.41-.05-.08-.21-.1-.3-.11-.16-.03-.24.23-.31.37,0,0-.01.01-.02.01l-.21.03s-.02,0-.02,0l-.25-.25s-.08-.04-.12-.03c-.11.03-.33.15-.29.29,0,.03.04.14.11.32,0,0,0,.02,0,.02l-.14.19s-.01.01-.02.01c-.15,0-.44-.07-.48.14-.03.13-.09.27.07.35.09.04.18.09.27.14,0,0,.01.01.01.02l.04.22s0,.02,0,.02c-.09.08-.17.17-.25.26-.09.1.09.38.2.4.09.02.29-.08.38-.11,0,0,.02,0,.02,0l.19.14s.01.01.01.02c0,.09-.03.32.02.4.04.08.22.1.3.12.15.04.25-.26.31-.37,0-.01.02-.02.04-.03l.19-.03s.03,0,.04.01" vector-effect="non-scaling-stroke"/>
    <path class="st12" d="M2.97,5.2c-.11-.01-.23,0-.33.02-.33.07-.43.28-.43.6,0,1.65,0,3.3,0,4.94,0,.31.19.59.53.55.02,0,.05-.02.02-.04" vector-effect="non-scaling-stroke"/>
    <path class="st8" d="M2.77,11.28h2.88" vector-effect="non-scaling-stroke"/>
    <path class="st11" d="M5.65,11.27v1.09" vector-effect="non-scaling-stroke"/>
    <path class="st8" d="M5.65,12.37h-.56s-.02,0-.02,0c-.1.07-.1.14,0,.21,0,0,.02,0,.03,0h3.09s.02,0,.03,0c.1-.07.1-.14,0-.21,0,0-.02,0-.02,0h-.56" vector-effect="non-scaling-stroke"/>
    <path class="st11" d="M7.62,12.37v-1.09" vector-effect="non-scaling-stroke"/>
    <path class="st8" d="M7.62,11.28h3.08" vector-effect="non-scaling-stroke"/>
    <path class="st38" d="M10.7,11.27s0,.02.04.01c.34-.13.32-.43.31-.73,0,0,0-.01-.01-.02h-.01" vector-effect="non-scaling-stroke"/>
    <path class="st8" d="M11.02,10.53c-.01-.54,0-1.09,0-1.63" vector-effect="non-scaling-stroke"/>
    <path class="st7" d="M11.01,8.9c.12-.04.3-.04.27-.23-.02-.14-.05-.28-.07-.42,0,0,0-.02,0-.02l.22-.14s.02,0,.02,0c.09.07.18.15.27.22.09.07.15.14.25.05.05-.05.18-.17.38-.38.07-.07.07-.14,0-.21-.09-.11-.18-.22-.27-.33,0,0,0-.02,0-.02l.12-.22s.01-.01.02,0c.14.02.28.04.43.06.09.01.14-.02.16-.09.05-.17.09-.34.14-.51.02-.09,0-.15-.09-.19-.13-.05-.27-.11-.4-.15,0,0-.01,0-.01-.02v-.25s.01-.02.02-.02c.13-.05.26-.09.38-.14.09-.03.13-.1.1-.19-.04-.16-.08-.33-.13-.49-.04-.16-.13-.13-.28-.11-.11.02-.21.03-.32.05,0,0-.02,0-.02-.01l-.12-.22s0-.02,0-.02c.09-.11.24-.26.3-.39.02-.05.01-.09-.02-.12-.13-.13-.26-.27-.39-.4-.08-.08-.13-.07-.21,0-.11.08-.21.17-.32.26,0,0-.02,0-.02,0l-.23-.14s-.01-.01,0-.02c.02-.14.04-.27.07-.41.02-.1-.02-.16-.12-.19-.18-.05-.36-.11-.54-.15-.05-.01-.08,0-.1.05l-.18.45s-.01.01-.02.01h-.29s-.02-.01-.02-.02l-.18-.45s-.05-.06-.1-.06c-.19.04-.38.08-.56.14-.09.03-.13.07-.11.16,0,.04.03.19.07.42,0,0,0,.02-.01.02l-.26.15s-.02,0-.02,0l-.37-.3s-.09-.04-.13,0c-.14.13-.28.27-.42.41-.05.05-.05.1,0,.16.09.12.19.23.28.34,0,0,0,.01,0,.02l-.16.28s-.01.01-.02,0c-.14-.03-.29-.05-.43-.07-.15-.02-.15.1-.19.2" vector-effect="non-scaling-stroke"/>
    <path class="st8" d="M7.4,5.26h-.96" vector-effect="non-scaling-stroke"/>
    <path class="st13" d="M6.45,5.26c0-1.21,0-2.41,0-3.62,0-.29-.1-.34-.38-.34-.93,0-1.87,0-2.8,0-.22,0-.29.07-.29.3-.01.81,0,1.42,0,2.19,0,.38,0,.85,0,1.42" vector-effect="non-scaling-stroke"/>
    <path class="st18" d="M6.45,5.26v.42" vector-effect="non-scaling-stroke"/>
    <path class="st37" d="M6.45,5.67c0,.42-.01.85,0,1.27,0,.17-.07.31-.25.31-.97,0-1.94,0-2.91,0-.22,0-.3-.08-.3-.31,0-.42,0-.84,0-1.27" vector-effect="non-scaling-stroke"/>
    <path class="st18" d="M2.97,5.68v-.42" vector-effect="non-scaling-stroke"/>
    <path class="st9" d="M2.96,5.26s0-.04,0-.05" vector-effect="non-scaling-stroke"/>
    <path class="st19" d="M2.96,5.26c-.28-.01-.55-.01-.66.26-.03.06-.04.16-.04.29,0,2.05-.01,3.71,0,4.97,0,.34.17.51.51.51" vector-effect="non-scaling-stroke"/>
    <path class="st1" d="M7.9,8H2.69" vector-effect="non-scaling-stroke"/>
    <path class="st33" d="M7.28,5.69h-.83" vector-effect="non-scaling-stroke"/>
    <path class="st33" d="M2.97,5.68h-.27s-.01,0-.01.02c-.01.77,0,1.54,0,2.31" vector-effect="non-scaling-stroke"/>
    <path class="st44" d="M2.69,8.01v2.28s0,.01.01.01h7.86s.02,0,.01-.01v-1.3" vector-effect="non-scaling-stroke"/>
    <path class="st46" d="M11.02,10.53c0,.33.03.6-.32.74" vector-effect="non-scaling-stroke"/>
    <path class="st35" d="M7.62,11.28h-1.97" vector-effect="non-scaling-stroke"/>
    <path class="st41" d="M11.01,8.9c-.14.03-.3.1-.44.08" vector-effect="non-scaling-stroke"/>
    <path class="st0" d="M10.57,8.98c-.09-.15-.17-.31-.21-.48,0,0,0-.01-.02-.01h-.3s-.03,0-.03.02c-.04.13-.09.26-.15.39-.04.09-.09.13-.19.09-.05-.02-.21-.05-.48-.12-.08-.02-.12-.07-.1-.16.03-.18.05-.32.06-.43,0,0,0-.02-.01-.02l-.27-.15s-.02,0-.02,0c-.11.1-.23.19-.35.29-.06.05-.12.04-.16-.01-.13-.14-.28-.27-.43-.38" vector-effect="non-scaling-stroke"/>
    <path class="st20" d="M7.9,8h.01s0-.03,0-.04c-.06-.09.18-.32.24-.4.04-.04.04-.09.01-.13l-.11-.18s-.05-.05-.1-.03c-.14.04-.29.06-.43.06,0,0-.02,0-.03,0-.1-.07-.2-.57-.21-.62-.03-.14.07-.16.19-.21.09-.04.18-.07.28-.1,0,0,.01,0,.01-.02v-.28s0-.05-.04-.06c-.14-.06-.44-.12-.46-.3" vector-effect="non-scaling-stroke"/>
    <path class="st41" d="M7.28,5.69c.06-.13.1-.28.13-.43" vector-effect="non-scaling-stroke"/>
    <path class="st35" d="M7.62,12.37h-1.97" vector-effect="non-scaling-stroke"/>
    <path class="st17" d="M8.75,2.41c0-.4-.32-.72-.72-.72s-.72.32-.72.72.32.72.72.72.72-.32.72-.72" vector-effect="non-scaling-stroke"/>
    <path class="st29" d="M5.19,1.66c0-.07-.05-.12-.12-.12h-.74c-.07,0-.12.05-.12.12h0c0,.07.05.13.12.13h.74c.07,0,.12-.05.12-.12h0" vector-effect="non-scaling-stroke"/>
    <path class="st29" d="M3.83,1.66c0-.07-.05-.12-.12-.12s-.12.05-.12.12.05.12.12.12.12-.05.12-.12" vector-effect="non-scaling-stroke"/>
    <path class="st43" d="M3.21,5.26v1.24s0,.01.01.01h2.95s.01,0,.01-.01v-1.24" vector-effect="non-scaling-stroke"/>
    <path class="st14" d="M6.19,5.26v-3.21s0-.01-.01-.01h-2.95s-.01,0-.01.01v3.21" vector-effect="non-scaling-stroke"/>
    <path class="st15" d="M6.19,5.26h-.87" vector-effect="non-scaling-stroke"/>
    <path class="st39" d="M5.32,5.26c-.03-.16-.22-.16-.25,0" vector-effect="non-scaling-stroke"/>
    <path class="st15" d="M5.08,5.26h-.25" vector-effect="non-scaling-stroke"/>
    <path class="st39" d="M4.82,5.27c-.02-.17-.2-.16-.25,0" vector-effect="non-scaling-stroke"/>
    <path class="st15" d="M4.57,5.26h-.25" vector-effect="non-scaling-stroke"/>
    <path class="st36" d="M4.33,5.26c-.02-.17-.22-.15-.25,0" vector-effect="non-scaling-stroke"/>
    <path class="st15" d="M4.08,5.27h-.87" vector-effect="non-scaling-stroke"/>
    <path class="st32" d="M4.82,5.27c-.03.18-.22.15-.25,0" vector-effect="non-scaling-stroke"/>
    <path class="st23" d="M4.33,5.26c0,.16-.21.17-.25,0" vector-effect="non-scaling-stroke"/>
    <path class="st32" d="M5.32,5.26c-.04.17-.23.16-.25,0" vector-effect="non-scaling-stroke"/>
    <path class="st29" d="M5.07,6.87c0-.07-.05-.12-.12-.12h-.5c-.07,0-.12.05-.12.12h0c0,.08.05.13.12.13h.5c.07,0,.12-.05.12-.12h0" vector-effect="non-scaling-stroke"/>
    <path class="st30" d="M5.94,2.28c0-.07-.05-.12-.12-.12h-2.23c-.07,0-.12.05-.12.12h0c0,.07.05.12.12.12h2.23c.07,0,.12-.05.12-.12h0" vector-effect="non-scaling-stroke"/>
    <path class="st26" d="M4.08,2.69c0-.09-.07-.16-.16-.16h-.3c-.09,0-.16.07-.16.16v.3c0,.09.07.16.16.16h.3c.09,0,.16-.07.16-.16v-.3" vector-effect="non-scaling-stroke"/>
    <path class="st4" d="M5.01,2.69c0-.09-.07-.16-.16-.16h-.31c-.09,0-.16.07-.16.16v.31c0,.09.07.16.16.16h.31c.09,0,.16-.07.16-.16v-.31" vector-effect="non-scaling-stroke"/>
    <path class="st27" d="M5.94,2.69c0-.09-.07-.16-.16-.16h-.3c-.09,0-.16.07-.16.16v.31c0,.09.07.16.16.16h.3c.09,0,.16-.07.16-.16v-.31" vector-effect="non-scaling-stroke"/>
    <path class="st34" d="M4.08,3.56c0-.09-.07-.16-.16-.16h-.3c-.09,0-.16.07-.16.16v.3c0,.09.07.16.16.16h.3c.09,0,.16-.07.16-.16v-.3" vector-effect="non-scaling-stroke"/>
    <path class="st21" d="M5.01,3.56c0-.09-.07-.15-.15-.15h-.31c-.09,0-.15.07-.15.15v.31c0,.09.07.15.15.15h.31c.09,0,.15-.07.15-.15v-.31" vector-effect="non-scaling-stroke"/>
    <path class="st45" d="M5.94,3.55c0-.08-.07-.15-.15-.15h-.32c-.08,0-.15.07-.15.15v.32c0,.08.07.15.15.15h.32c.08,0,.15-.07.15-.15v-.32" vector-effect="non-scaling-stroke"/>
    <path class="st26" d="M4.08,4.44c0-.09-.07-.16-.16-.16h-.29c-.09,0-.16.07-.16.16v.29c0,.09.07.16.16.16h.29c.09,0,.16-.07.16-.16v-.29" vector-effect="non-scaling-stroke"/>
    <path class="st5" d="M5.01,4.43c0-.09-.07-.16-.16-.16h-.3c-.09,0-.16.07-.16.16v.3c0,.09.07.16.16.16h.3c.09,0,.16-.07.16-.16v-.3" vector-effect="non-scaling-stroke"/>
    <path class="st24" d="M5.94,4.43c0-.09-.07-.16-.16-.16h-.31c-.09,0-.16.07-.16.16v.31c0,.09.07.16.16.16h.31c.09,0,.16-.07.16-.16v-.31" vector-effect="non-scaling-stroke"/>
    <path class="st10" d="M3.89,2.84c0-.07-.05-.12-.12-.12s-.12.05-.12.12.05.12.12.12.12-.05.12-.12" vector-effect="non-scaling-stroke"/>
    <path class="st22" d="M11.5,6.21c0-.75-.61-1.37-1.37-1.37s-1.37.61-1.37,1.37.61,1.37,1.37,1.37,1.37-.61,1.37-1.37" vector-effect="non-scaling-stroke"/>
    <path class="st31" d="M5.88,3.71c0-.14-.11-.25-.25-.25s-.25.11-.25.25.11.25.25.25.25-.11.25-.25" vector-effect="non-scaling-stroke"/>
    <path class="st42" d="M4.95,4.57c0-.06-.05-.12-.12-.11h-.26c-.06,0-.12.05-.11.12h0c0,.08.05.13.12.13h.26c.06,0,.12-.05.11-.12h0" vector-effect="non-scaling-stroke"/>
    <path class="st40" d="M11.23,6.21c0-.6-.49-1.09-1.09-1.09s-1.09.49-1.09,1.09.49,1.09,1.09,1.09,1.09-.49,1.09-1.09" vector-effect="non-scaling-stroke"/>
    <path class="st28" d="M6.89,10.77c0-.12-.1-.21-.21-.21s-.21.1-.21.21.1.21.21.21.21-.1.21-.21" vector-effect="non-scaling-stroke"/>
    <path class="st2" d="M4.08,5.8c0-.09-.07-.16-.16-.16h-.31c-.09,0-.16.07-.16.16v.3c0,.09.07.16.16.16h.31c.09,0,.16-.07.16-.16v-.3" vector-effect="non-scaling-stroke"/>
    <path class="st16" d="M5.01,5.79c0-.08-.07-.15-.15-.15h-.31c-.08,0-.15.07-.15.15v.31c0,.08.07.15.15.15h.31c.08,0,.15-.07.15-.15v-.31" vector-effect="non-scaling-stroke"/>
    <path class="st3" d="M5.94,5.79c0-.09-.07-.15-.16-.15h-.31c-.09,0-.15.07-.15.16v.31c0,.09.07.15.16.15h.31c.09,0,.15-.07.15-.16v-.31" vector-effect="non-scaling-stroke"/>
    <path class="st35" d="M6.72,5.52s.02-.05,0-.08l-.06-.05s-.05-.02-.08,0l-.05.05s-.02.05,0,.08l.06.05s.05.02.08,0l.05-.05" vector-effect="non-scaling-stroke"/>
    <path class="st25" d="M6.69,5.48s-.03-.06-.06-.06-.06.03-.06.06.03.06.06.06.06-.03.06-.06" vector-effect="non-scaling-stroke"/>
    <path class="st6" d="M3.89,5.95c0-.07-.05-.12-.12-.12s-.12.05-.12.12.05.12.12.12.12-.05.12-.12" vector-effect="non-scaling-stroke"/>
    <path class="st28" d="M6.81,10.77c0-.08-.06-.14-.14-.14s-.14.06-.14.14.06.14.14.14.14-.06.14-.14" vector-effect="non-scaling-stroke"/>
  </g>
  <path class="st66" d="M8.72.23s-.02,0-.02.02c0,0,0,.01,0,.02,2.21.58,3.96,2.15,4.78,4.28.04.11.08.22.11.34,0,0,0,.02.02.02,0,0,.02,0,.02,0,.28.88.38,1.78.31,2.7-.07-.01-.06.15-.07.19-.02.14-.03.29-.05.38-.11.65-.28,1.24-.53,1.77-.83,1.78-2.38,3.14-4.27,3.73-.02,0-.07.04,0,.04-1.4.43-2.93.41-4.31-.07.02-.01.02-.02,0-.03-2.14-.75-3.79-2.46-4.41-4.65,0-.01,0-.02-.02-.02,0,0-.02,0-.03,0-.37-1.32-.36-2.63.03-3.94,0,0,.01.01.03.01,0,0,.01,0,.02-.02.05-.13.09-.27.14-.4.27-.77.67-1.46,1.2-2.07.79-.93,1.75-1.6,2.89-2.03.03-.01.03-.03,0-.04C5.88-.05,7.34-.13,8.72.23ZM8.36,3.53c.07.08.15.15.22.23.11.1.25,0,.36-.09.07-.06.08-.11.05-.2-.03-.09-.06-.18-.09-.28,0,0,0-.02,0-.02l.12-.16s.01-.01.02-.01c.15,0,.43.05.47-.13.04-.15.12-.29-.06-.39-.08-.04-.16-.09-.25-.13-.01,0-.02-.02-.03-.04l-.03-.15s0-.04.01-.05c.08-.07.3-.26.27-.37-.02-.06-.06-.13-.11-.21-.09-.12-.18-.08-.32-.03-.06.02-.12.04-.19.07,0,0-.02,0-.02,0l-.16-.13s-.01-.01-.01-.02c0-.09.03-.34-.02-.41-.05-.08-.21-.1-.3-.11-.16-.03-.24.23-.31.37,0,0-.01.01-.02.01l-.21.03s-.02,0-.02,0l-.25-.25s-.08-.04-.12-.03c-.11.03-.33.15-.29.29,0,.03.04.14.11.32,0,0,0,.02,0,.02l-.14.19s-.01.01-.02.01c-.15,0-.44-.07-.48.14-.03.13-.09.27.07.35.09.04.18.09.27.14,0,0,.01.01.01.02l.04.22s0,.02,0,.02c-.09.08-.17.17-.25.26-.09.1.09.38.2.4.09.02.29-.08.38-.11,0,0,.02,0,.02,0l.19.14s.01.01.01.02c0,.09-.03.32.02.4.04.08.22.1.3.12.15.04.25-.26.31-.37,0-.01.02-.02.04-.03l.19-.03s.03,0,.04.01ZM2.97,5.2c-.11-.01-.23,0-.33.02-.33.07-.43.28-.43.6,0,1.65,0,3.3,0,4.94,0,.31.19.59.53.55.02,0,.05-.02.02-.04h2.88s0,1.09,0,1.09h-.56s-.02,0-.02,0c-.1.07-.1.14,0,.21,0,0,.02,0,.03,0h3.09s.02,0,.03,0c.1-.07.1-.14,0-.21,0,0-.02,0-.02,0h-.56s0-1.09,0-1.09h3.08s0,.02.04,0c.34-.13.32-.43.31-.73,0,0,0-.01-.01-.02h-.01c-.01-.55,0-1.09,0-1.64.12-.04.3-.04.27-.23-.02-.14-.05-.28-.07-.42,0,0,0-.02,0-.02l.22-.14s.02,0,.02,0c.09.07.18.15.27.22.09.07.15.14.25.05.05-.05.18-.17.38-.38.07-.07.07-.14,0-.21-.09-.11-.18-.22-.27-.33,0,0,0-.02,0-.02l.12-.22s.01-.01.02,0c.14.02.28.04.43.06.09.01.14-.02.16-.09.05-.17.09-.34.14-.51.02-.09,0-.15-.09-.19-.13-.05-.27-.11-.4-.15,0,0-.01,0-.01-.02v-.25s.01-.02.02-.02c.13-.05.26-.09.38-.14.09-.03.13-.1.1-.19-.04-.16-.08-.33-.13-.49-.04-.16-.13-.13-.28-.11-.11.02-.21.03-.32.05,0,0-.02,0-.02-.01l-.12-.22s0-.02,0-.02c.09-.11.24-.26.3-.39.02-.05.01-.09-.02-.12-.13-.13-.26-.27-.39-.4-.08-.08-.13-.07-.21,0-.11.08-.21.17-.32.26,0,0-.02,0-.02,0l-.23-.14s-.01-.01,0-.02c.02-.14.04-.27.07-.41.02-.1-.02-.16-.12-.19-.18-.05-.36-.11-.54-.15-.05-.01-.08,0-.1.05l-.18.45s-.01.01-.02.01h-.29s-.02-.01-.02-.02l-.18-.45s-.05-.06-.1-.06c-.19.04-.38.08-.56.14-.09.03-.13.07-.11.16,0,.04.03.19.07.42,0,0,0,.02-.01.02l-.26.15s-.02,0-.02,0l-.37-.3s-.09-.04-.13,0c-.14.13-.28.27-.42.41-.05.05-.05.1,0,.16.09.12.19.23.28.34,0,0,0,.01,0,.02l-.16.28s-.01.01-.02,0c-.14-.03-.29-.05-.43-.07-.15-.02-.15.1-.19.2h-.96c0-1.21,0-2.42,0-3.62,0-.29-.1-.34-.38-.34-.93,0-1.87,0-2.8,0-.22,0-.29.07-.29.3-.01.81,0,1.42,0,2.19,0,.38,0,.85,0,1.42Z"/>
  <path class="st72" d="M8.72.23c2.34.62,4.18,2.35,4.91,4.66,0,0-.02,0-.02,0,0,0-.01,0-.02-.02-.03-.11-.07-.23-.11-.34-.81-2.12-2.57-3.69-4.78-4.28,0,0-.01-.01,0-.02,0,0,.01-.01.02-.02Z"/>
  <path class="st49" d="M4.54.44s.03.03,0,.04c-1.14.43-2.1,1.1-2.89,2.03-.53.62-.92,1.31-1.2,2.07-.05.13-.09.27-.14.4,0,0-.01.02-.02.02-.01,0-.02,0-.03-.01C.9,2.87,2.48,1.22,4.54.44Z"/>
  <path class="st65" d="M8.36,3.53s-.03-.02-.04-.01l-.19.03s-.03.01-.04.03c-.06.11-.16.41-.31.37-.08-.02-.26-.04-.3-.12-.04-.08-.02-.3-.02-.4,0,0,0-.02-.01-.02l-.19-.14s-.02,0-.02,0c-.09.03-.3.13-.38.11-.11-.02-.3-.3-.2-.4.08-.09.17-.17.25-.26,0,0,0-.01,0-.02l-.04-.22s0-.02-.01-.02c-.09-.05-.18-.09-.27-.14-.16-.08-.09-.22-.07-.35.04-.22.32-.15.48-.14,0,0,.02,0,.02-.01l.14-.19s0-.02,0-.02c-.06-.18-.1-.28-.11-.32-.04-.14.18-.26.29-.29.05-.02.09,0,.12.03l.25.25s.01,0,.02,0l.21-.03s.02,0,.02-.01c.06-.14.15-.39.31-.37.09.01.25.03.3.11.05.07.03.32.02.41,0,0,0,.02.01.02l.16.13s.02,0,.02,0c.06-.02.12-.05.19-.07.14-.05.23-.09.32.03.06.08.1.15.11.21.03.11-.19.3-.27.37-.01.01-.02.03-.01.05l.03.15s.01.04.03.04c.08.04.17.08.25.13.18.1.1.24.06.39-.05.18-.33.12-.47.13,0,0-.02,0-.02.01l-.12.16s0,.02,0,.02c.03.09.06.19.09.28.03.09.02.14-.05.2-.11.09-.25.2-.36.09-.08-.07-.15-.15-.22-.23ZM8.75,2.41c0-.4-.32-.72-.72-.72s-.72.32-.72.72.32.72.72.72.72-.32.72-.72Z"/>
  <path class="st67" d="M6.45,5.26v.42c-.01.42-.01.85,0,1.27,0,.17-.07.31-.25.31-.97,0-1.94,0-2.91,0-.22,0-.3-.08-.3-.31,0-.42,0-.84,0-1.27v-.42s0-.04,0-.05c0-.57,0-1.05,0-1.42,0-.77,0-1.39,0-2.19,0-.22.08-.3.29-.3.93,0,1.87,0,2.8,0,.28,0,.38.06.38.34,0,1.21,0,2.41,0,3.62ZM5.19,1.66c0-.07-.05-.12-.12-.12h-.74c-.07,0-.12.05-.12.12h0c0,.07.05.13.12.13h.74c.07,0,.12-.05.12-.12h0ZM3.83,1.66c0-.07-.05-.12-.12-.12s-.12.05-.12.12.05.12.12.12.12-.05.12-.12ZM3.21,5.26v1.24s0,.01.01.01h2.95s.01,0,.01-.01v-1.24s0-3.21,0-3.21c0,0,0-.01-.01-.01h-2.95s-.01,0-.01.01v3.21ZM5.07,6.87c0-.07-.05-.12-.12-.12h-.5c-.07,0-.12.05-.12.12h0c0,.08.05.13.12.13h.5c.07,0,.12-.05.12-.12h0Z"/>
  <rect class="st60" x="4.21" y="1.54" width=".98" height=".25" rx=".12" ry=".12"/>
  <circle class="st60" cx="3.71" cy="1.66" r=".12"/>
  <circle class="st66" cx="8.03" cy="2.41" r=".72"/>
  <path class="st52" d="M6.19,5.26h-.87c-.03-.15-.22-.15-.25,0h-.25c-.02-.17-.2-.15-.25,0h-.25c-.02-.17-.22-.14-.25.01h-.87v-3.22s0-.01.01-.01h2.95s.01,0,.01.01v3.21ZM5.94,2.28c0-.07-.05-.12-.12-.12h-2.23c-.07,0-.12.05-.12.12h0c0,.07.05.12.12.12h2.23c.07,0,.12-.05.12-.12h0ZM4.08,2.69c0-.09-.07-.16-.16-.16h-.3c-.09,0-.16.07-.16.16v.3c0,.09.07.16.16.16h.3c.09,0,.16-.07.16-.16v-.3ZM5.01,2.69c0-.09-.07-.16-.16-.16h-.31c-.09,0-.16.07-.16.16v.31c0,.09.07.16.16.16h.31c.09,0,.16-.07.16-.16v-.31ZM5.94,2.69c0-.09-.07-.16-.16-.16h-.3c-.09,0-.16.07-.16.16v.31c0,.09.07.16.16.16h.3c.09,0,.16-.07.16-.16v-.31ZM4.08,3.56c0-.09-.07-.16-.16-.16h-.3c-.09,0-.16.07-.16.16v.3c0,.09.07.16.16.16h.3c.09,0,.16-.07.16-.16v-.3ZM5.01,3.56c0-.09-.07-.15-.15-.15h-.31c-.09,0-.15.07-.15.15v.31c0,.09.07.15.15.15h.31c.09,0,.15-.07.15-.15v-.31ZM5.94,3.55c0-.08-.07-.15-.15-.15h-.32c-.08,0-.15.07-.15.15v.32c0,.08.07.15.15.15h.32c.08,0,.15-.07.15-.15v-.32ZM4.08,4.44c0-.09-.07-.16-.16-.16h-.29c-.09,0-.16.07-.16.16v.29c0,.09.07.16.16.16h.29c.09,0,.16-.07.16-.16v-.29ZM5.01,4.43c0-.09-.07-.16-.16-.16h-.3c-.09,0-.16.07-.16.16v.3c0,.09.07.16.16.16h.3c.09,0,.16-.07.16-.16v-.3ZM5.94,4.43c0-.09-.07-.16-.16-.16h-.31c-.09,0-.16.07-.16.16v.31c0,.09.07.16.16.16h.31c.09,0,.16-.07.16-.16v-.31Z"/>
  <rect class="st74" x="3.46" y="2.16" width="2.48" height=".25" rx=".12" ry=".12"/>
  <path class="st64" d="M4.08,2.99c0,.09-.07.16-.16.16h-.3c-.09,0-.16-.07-.16-.16v-.3c0-.09.07-.16.16-.16h.3c.09,0,.16.07.16.16v.3ZM3.89,2.84c0-.07-.05-.12-.12-.12s-.12.05-.12.12.05.12.12.12.12-.05.12-.12Z"/>
  <rect class="st56" x="4.39" y="2.54" width=".62" height=".62" rx=".16" ry=".16" transform="translate(1.85 7.54) rotate(-89.9)"/>
  <rect class="st73" x="5.32" y="2.54" width=".62" height=".62" rx=".16" ry=".16" transform="translate(2.77 8.47) rotate(-89.8)"/>
  <circle class="st68" cx="3.77" cy="2.84" r=".12"/>
  <path class="st51" d="M11.01,8.9c-.14.03-.3.1-.44.08-.09-.15-.17-.31-.21-.48,0,0,0-.01-.02-.01h-.3s-.03,0-.03.02c-.04.13-.09.26-.15.39-.04.09-.09.13-.19.09-.05-.02-.21-.05-.48-.12-.08-.02-.12-.07-.1-.16.03-.18.05-.32.06-.43,0,0,0-.02-.01-.02l-.27-.15s-.02,0-.02,0c-.11.1-.23.19-.35.29-.06.05-.12.04-.16-.01-.13-.14-.28-.27-.43-.38h.01s0-.03,0-.04c-.06-.09.18-.32.24-.4.04-.04.04-.09.01-.13l-.11-.18s-.05-.05-.1-.03c-.14.04-.29.06-.43.06,0,0-.02,0-.03,0-.1-.07-.2-.57-.21-.62-.03-.14.07-.16.19-.21.09-.04.18-.07.28-.1,0,0,.01,0,.01-.02v-.28s0-.05-.04-.06c-.14-.06-.44-.12-.46-.3.06-.13.1-.28.13-.43.04-.09.03-.22.19-.2.14.02.29.04.43.07,0,0,.02,0,.02,0l.16-.28s0-.02,0-.02c-.1-.11-.19-.23-.28-.34-.04-.05-.04-.11,0-.16.14-.14.28-.28.42-.41.04-.04.09-.04.13,0l.37.3s.01,0,.02,0l.26-.15s.01-.01.01-.02c-.04-.24-.06-.38-.07-.42-.02-.09.02-.14.11-.16.19-.05.37-.1.56-.14.05,0,.08,0,.1.06l.18.45s.01.01.02.01h.29s.01,0,.02,0l.18-.45s.05-.06.1-.05c.18.05.36.1.54.15.09.03.13.09.12.19-.02.14-.04.27-.07.41,0,0,0,.02,0,.02l.23.14s.02,0,.02,0c.11-.09.21-.17.32-.26.08-.06.13-.07.21,0,.13.13.26.26.39.4.03.04.04.08.02.12-.06.13-.21.27-.3.39,0,0,0,.02,0,.02l.12.22s.01.01.02.01c.11-.02.21-.04.32-.05.14-.02.24-.06.28.11.04.16.08.33.13.49.02.1,0,.16-.1.19-.13.05-.25.09-.38.14,0,0-.01.01-.01.02v.25s0,.02,0,.02c.14.05.27.1.4.15.09.04.11.1.09.19-.04.17-.09.34-.14.51-.02.07-.07.1-.16.09-.14-.02-.28-.04-.43-.06,0,0-.02,0-.02,0l-.12.22s0,.02,0,.02c.09.11.18.22.27.33.06.07.06.15,0,.21-.2.21-.33.33-.38.38-.09.09-.16.02-.25-.05-.09-.07-.18-.15-.27-.22,0,0-.01,0-.02,0l-.22.14s-.01.01,0,.02c.02.14.04.28.07.42.03.18-.15.19-.27.23ZM11.5,6.21c0-.75-.61-1.37-1.37-1.37s-1.37.61-1.37,1.37.61,1.37,1.37,1.37,1.37-.61,1.37-1.37Z"/>
  <rect class="st76" x="3.46" y="3.4" width=".62" height=".62" rx=".16" ry=".16" transform="translate(0 0) rotate(-.1)"/>
  <rect class="st48" x="4.39" y="3.4" width=".61" height=".62" rx=".15" ry=".15" transform="translate(.98 8.4) rotate(-89.9)"/>
  <path class="st57" d="M5.94,3.87c0,.08-.07.15-.15.15h-.32c-.08,0-.15-.07-.15-.15v-.32c0-.08.07-.15.15-.15h.32c.08,0,.15.07.15.15v.32ZM5.88,3.71c0-.14-.11-.25-.25-.25s-.25.11-.25.25.11.25.25.25.25-.11.25-.25Z"/>
  <circle class="st61" cx="5.63" cy="3.71" r=".25"/>
  <rect class="st64" x="3.46" y="4.27" width=".62" height=".62" rx=".16" ry=".16"/>
  <path class="st50" d="M5.01,4.73c0,.09-.07.16-.16.16h-.3c-.09,0-.16-.07-.16-.16v-.3c0-.09.07-.16.16-.16h.3c.09,0,.16.07.16.16v.3ZM4.95,4.57c0-.06-.05-.12-.12-.11h-.26c-.06,0-.12.05-.11.12h0c0,.08.05.13.12.13h.26c.06,0,.12-.05.11-.12h0Z"/>
  <rect class="st53" x="5.32" y="4.27" width=".62" height=".62" rx=".16" ry=".16" transform="translate(0 0) rotate(-.1)"/>
  <rect class="st71" x="4.46" y="4.46" width=".49" height=".24" rx=".12" ry=".12" transform="translate(-.03 .03) rotate(-.4)"/>
  <path class="st54" d="M11.5,6.21c0,.75-.61,1.37-1.37,1.37s-1.37-.61-1.37-1.37.61-1.37,1.37-1.37,1.37.61,1.37,1.37ZM11.23,6.21c0-.6-.49-1.09-1.09-1.09s-1.09.49-1.09,1.09.49,1.09,1.09,1.09,1.09-.49,1.09-1.09Z"/>
  <circle class="st58" cx="10.14" cy="6.21" r="1.09"/>
  <path class="st60" d="M4.33,5.26c0,.16-.21.17-.25,0,.03-.16.23-.18.25,0Z"/>
  <path class="st78" d="M4.82,5.27c-.03.18-.22.15-.25,0,.05-.15.23-.16.25,0Z"/>
  <path class="st78" d="M5.32,5.26c-.04.17-.23.16-.25,0,.03-.16.22-.16.25,0Z"/>
  <path class="st62" d="M2.97,5.2s0,.02,0,.05c-.28-.01-.55-.01-.66.26-.03.06-.04.16-.04.29,0,2.05-.01,3.71,0,4.97,0,.34.17.51.51.51.03.02,0,.04-.02.04-.34.04-.53-.25-.53-.55,0-1.65,0-3.3,0-4.94,0-.31.09-.53.43-.6.11-.02.22-.03.33-.02Z"/>
  <path class="st63" d="M2.96,5.26v.42s-.26,0-.26,0c0,0-.01,0-.01.01-.01.77,0,1.54,0,2.31v2.28s0,.01.01.01h7.86s.02,0,.01-.01v-1.3c.13.02.29-.05.43-.08.01.54,0,1.09,0,1.63,0,.33.03.6-.32.74h-3.08s-1.97,0-1.97,0h-2.88c-.34,0-.51-.17-.51-.51,0-1.26,0-2.91,0-4.97,0-.13.01-.23.04-.29.12-.27.38-.27.66-.26ZM6.89,10.77c0-.12-.1-.21-.21-.21s-.21.1-.21.21.1.21.21.21.21-.1.21-.21Z"/>
  <path class="st59" d="M3.21,5.26h.87c.04.17.25.17.25,0h.25c.03.15.23.18.25,0h.25c.02.16.21.16.25,0h.87s0,1.23,0,1.23c0,0,0,.01-.01.01h-2.95s-.01,0-.01-.01v-1.24ZM4.08,5.8c0-.09-.07-.16-.16-.16h-.31c-.09,0-.16.07-.16.16v.3c0,.09.07.16.16.16h.31c.09,0,.16-.07.16-.16v-.3ZM5.01,5.79c0-.08-.07-.15-.15-.15h-.31c-.08,0-.15.07-.15.15v.31c0,.08.07.15.15.15h.31c.08,0,.15-.07.15-.15v-.31ZM5.94,5.79c0-.09-.07-.15-.16-.15h-.31c-.09,0-.15.07-.15.16v.31c0,.09.07.15.16.15h.31c.09,0,.15-.07.15-.16v-.31Z"/>
  <path class="st63" d="M6.45,5.26h.96c-.03.15-.07.29-.13.43h-.83s0-.43,0-.43ZM6.72,5.52s.02-.05,0-.08l-.06-.05s-.05-.02-.08,0l-.05.05s-.02.05,0,.08l.06.05s.05.02.08,0l.05-.05Z"/>
  <path class="st77" d="M6.67,5.57s-.05.02-.08,0l-.06-.05s-.02-.05,0-.08l.05-.05s.05-.02.08,0l.06.05s.02.05,0,.08l-.05.05ZM6.69,5.48s-.03-.06-.06-.06-.06.03-.06.06.03.06.06.06.06-.03.06-.06Z"/>
  <circle class="st54" cx="6.64" cy="5.48" r=".06"/>
  <path class="st76" d="M4.08,6.1c0,.09-.07.16-.16.16h-.31c-.09,0-.16-.07-.16-.16v-.3c0-.09.07-.16.16-.16h.31c.09,0,.16.07.16.16v.3ZM3.89,5.95c0-.07-.05-.12-.12-.12s-.12.05-.12.12.05.12.12.12.12-.05.12-.12Z"/>
  <rect class="st55" x="4.39" y="5.64" width=".62" height=".62" rx=".15" ry=".15" transform="translate(-1.26 10.63) rotate(-89.8)"/>
  <rect class="st74" x="5.32" y="5.64" width=".61" height=".62" rx=".15" ry=".15" transform="translate(-.03 .03) rotate(-.3)"/>
  <path class="st69" d="M6.45,5.67h.83c.02.19.32.25.46.31.03.01.05.03.05.06v.28s-.01.02-.02.02c-.09.03-.19.06-.28.1-.12.05-.22.07-.19.21,0,.05.11.55.21.62,0,0,.02,0,.03,0,.15,0,.29-.02.43-.06.04-.01.08,0,.1.03l.11.18s.02.09-.01.13c-.06.08-.3.31-.24.4,0,0,0,.02,0,.02h-.01s-5.21.02-5.21.02c-.02-.77-.02-1.54,0-2.31,0,0,0-.01.01-.01h.27c0,.42,0,.84,0,1.26,0,.23.08.31.3.31.97,0,1.94,0,2.91,0,.18,0,.26-.14.25-.31,0-.42,0-.85,0-1.27Z"/>
  <circle class="st61" cx="3.77" cy="5.95" r=".12"/>
  <rect class="st60" x="4.58" y="6.51" width=".25" height=".74" rx=".12" ry=".12" transform="translate(-2.19 11.57) rotate(-89.9)"/>
  <path class="st49" d="M13.94,7.59c-.26,2.88-2.17,5.26-4.93,6.11-.06,0,0-.03,0-.04,1.89-.58,3.45-1.95,4.27-3.73.25-.54.43-1.13.53-1.77.02-.1.03-.25.05-.38,0-.04,0-.21.07-.19Z"/>
  <path class="st75" d="M2.69,8.01h5.21c.15.11.3.24.43.38.05.05.1.06.16.01.12-.09.24-.19.35-.29,0,0,.01,0,.02,0l.27.15s.01.01.01.02c-.01.11-.03.25-.06.43-.01.08.02.14.1.16.27.06.43.1.48.12.1.03.15,0,.19-.09.06-.13.1-.25.15-.39,0-.02.02-.03.03-.03h.3s.02,0,.02.02c.05.17.12.33.21.48v1.3s0,.01,0,.01H2.71s-.01,0-.01-.01v-2.28Z"/>
  <path class="st72" d="M4.69,13.63c-2.17-.75-3.82-2.49-4.46-4.7,0,0,.02,0,.03,0,0,0,.01,0,.02.02.63,2.19,2.27,3.9,4.41,4.65.03,0,.03.02,0,.03Z"/>
  <path class="st72" d="M11.02,10.53h.01s.01.02.01.02c.01.3.03.6-.31.73-.03.01-.04,0-.04-.01.36-.15.32-.41.32-.74Z"/>
  <path class="st70" d="M6.89,10.77c0,.12-.1.21-.21.21s-.21-.1-.21-.21.1-.21.21-.21.21.1.21.21ZM6.81,10.77c0-.08-.06-.14-.14-.14s-.14.06-.14.14.06.14.14.14.14-.06.14-.14Z"/>
  <circle class="st63" cx="6.67" cy="10.77" r=".14"/>
  <path class="st77" d="M7.62,11.28v1.09s-1.97,0-1.97,0v-1.09s1.97,0,1.97,0Z"/>
  <path class="st63" d="M7.62,12.37h.56s.02,0,.02,0c.1.07.1.14,0,.21,0,0-.02,0-.03,0h-3.09s-.02,0-.03,0c-.1-.07-.1-.14,0-.21,0,0,.02,0,.02,0h.56s1.97,0,1.97,0Z"/>
</svg>
