<?xml version="1.0" encoding="UTF-8"?>
<svg id="Layer_1" xmlns="http://www.w3.org/2000/svg" width="18" height="18" version="1.1" viewBox="0 0 18 18">
  <!-- Generator: Adobe Illustrator 30.0.0, SVG Export Plug-In . SVG Version: 2.1.1 Build 123)  -->
  <defs>
    <style>
      .st0 {
        stroke: #417d84;
      }

      .st0, .st1, .st2, .st3, .st4, .st5, .st6, .st7, .st8, .st9, .st10, .st11, .st12, .st13, .st14, .st15, .st16, .st17, .st18, .st19, .st20, .st21, .st22, .st23, .st24, .st25, .st26, .st27, .st28, .st29, .st30, .st31, .st32, .st33, .st34, .st35, .st36, .st37, .st38, .st39, .st40, .st41, .st42, .st43, .st44, .st45, .st46, .st47 {
        fill: none;
        stroke-width: .06px;
      }

      .st1 {
        stroke: #edb240;
      }

      .st2 {
        stroke: #0d5f78;
      }

      .st3 {
        stroke: #444747;
      }

      .st4 {
        stroke: #809498;
      }

      .st5 {
        stroke: #8ea695;
      }

      .st48 {
        fill: #c8c475;
      }

      .st49 {
        fill: #b5f7fb;
      }

      .st6 {
        stroke: #718ea8;
      }

      .st7 {
        stroke: #7ebdbb;
      }

      .st8 {
        stroke: #53b1b9;
      }

      .st50 {
        fill: #bc639e;
      }

      .st51 {
        fill: #1a7c95;
      }

      .st52 {
        fill: #c7feff;
      }

      .st53 {
        fill: #5abfc7;
      }

      .st9 {
        stroke: #ffafaf;
      }

      .st10 {
        stroke: #62aecc;
      }

      .st54 {
        fill: #c18d63;
      }

      .st55 {
        fill: #fff;
      }

      .st11 {
        stroke: #63a0ac;
      }

      .st12 {
        stroke: #418a99;
      }

      .st13 {
        stroke: #16607e;
      }

      .st56 {
        fill: #e18882;
      }

      .st14 {
        stroke: #59bac6;
      }

      .st15 {
        stroke: #6fadab;
      }

      .st57 {
        fill: #839a8f;
      }

      .st58 {
        fill: #eea151;
      }

      .st59 {
        fill: #ff5f5f;
      }

      .st16 {
        stroke: #80985e;
      }

      .st60 {
        fill: #0093ce;
      }

      .st17 {
        stroke: #a4e7eb;
      }

      .st18 {
        stroke: #4ea7b6;
      }

      .st61 {
        fill: #2b2d2d;
      }

      .st19 {
        stroke: #0d6ca8;
      }

      .st20 {
        stroke: #43767a;
      }

      .st62 {
        fill: #ebc32e;
      }

      .st21 {
        stroke: #a2956f;
      }

      .st22 {
        stroke: #7cc386;
      }

      .st23 {
        stroke: #51a7be;
      }

      .st63 {
        fill: #9ce9ef;
      }

      .st64 {
        fill: #00425a;
      }

      .st24 {
        stroke: #1f7a8d;
      }

      .st25 {
        stroke: #8fdde3;
      }

      .st65 {
        fill: #c5a86c;
      }

      .st26 {
        stroke: #6f999c;
      }

      .st66 {
        fill: #2fa2b4;
      }

      .st27 {
        stroke: #004f8b;
      }

      .st28 {
        stroke: #4e96a5;
      }

      .st29 {
        stroke: #5b9094;
      }

      .st30 {
        stroke: #2e515e;
      }

      .st67 {
        fill: #82d1d7;
      }

      .st68 {
        fill: #5c6061;
      }

      .st31 {
        stroke: #9ce4e9;
      }

      .st32 {
        stroke: #8dbeca;
      }

      .st69 {
        fill: #7e8272;
      }

      .st33 {
        stroke: #8b91b3;
      }

      .st70 {
        fill: #005bbb;
      }

      .st71 {
        fill: #3eb1c0;
      }

      .st72 {
        fill: #db3d56;
      }

      .st34 {
        stroke: #91c29e;
      }

      .st35 {
        stroke: #808c2d;
      }

      .st36 {
        stroke: #a4b08c;
      }

      .st37 {
        stroke: #2da9cb;
      }

      .st38 {
        stroke: #7ca5a8;
      }

      .st39 {
        stroke: #cc507a;
      }

      .st73 {
        fill: #4ca3ab;
      }

      .st40 {
        stroke: #2e7a98;
      }

      .st74 {
        fill: #a2bbae;
      }

      .st41 {
        stroke: #8da94b;
      }

      .st75 {
        fill: #ffd500;
      }

      .st76 {
        fill: #9ec645;
      }

      .st77 {
        fill: #002831;
      }

      .st42 {
        stroke: #4fad8a;
      }

      .st43 {
        stroke: #003546;
      }

      .st44 {
        stroke: #2e5e8e;
      }

      .st45 {
        stroke: #90b49a;
      }

      .st78 {
        fill: #c3c9ca;
      }

      .st46 {
        stroke: #c5c53a;
      }

      .st47 {
        stroke: #8fc4c9;
      }
    </style>
  </defs>
  <path class="st17" d="M11.22.29s-.03,0-.03.03v.03c2.84.75,5.09,2.77,6.15,5.51.05.14.1.28.14.44,0,0,0,.03.03.03h.03" vector-effect="non-scaling-stroke"/>
  <path class="st31" d="M17.94,9.75c-.09-.01-.08.19-.09.24-.03.18-.04.37-.06.49-.14.84-.36,1.6-.68,2.28-1.08,2.3-3.07,4.04-5.49,4.8-.03,0-.09.05,0,.05" vector-effect="non-scaling-stroke"/>
  <path class="st17" d="M6.04,17.52s.03-.03,0-.04c-2.75-.96-4.88-3.16-5.67-5.98,0-.01,0-.03-.03-.03h-.04" vector-effect="non-scaling-stroke"/>
  <path class="st31" d="M.34,6.41s.01.01.04.01c0,0,.01,0,.03-.03.06-.17.12-.35.18-.51.35-.99.86-1.88,1.54-2.66,1.02-1.2,2.25-2.06,3.72-2.61.04-.01.04-.04,0-.05" vector-effect="non-scaling-stroke"/>
  <path class="st14" d="M10.76,4.53c.09.1.19.19.28.3.14.13.32,0,.46-.12.09-.08.1-.14.06-.26-.04-.12-.08-.23-.12-.36v-.03l.15-.21s.01-.01.03-.01c.19,0,.55.06.6-.17.05-.19.15-.37-.08-.5-.1-.05-.21-.12-.32-.17-.01,0-.03-.03-.04-.05l-.04-.19s0-.05.01-.06c.1-.09.39-.33.35-.48-.03-.08-.08-.17-.14-.27-.12-.15-.23-.1-.41-.04-.08.03-.15.05-.24.09h-.03l-.21-.17s-.01-.01-.01-.03c0-.12.04-.44-.03-.53-.06-.1-.27-.13-.39-.14-.21-.04-.31.3-.4.48,0,0-.01.01-.03.01l-.27.04h-.03l-.32-.32s-.1-.05-.15-.04c-.14.04-.42.19-.37.37,0,.04.05.18.14.41v.03l-.18.24s-.01.01-.03.01c-.19,0-.57-.09-.62.18-.04.17-.12.35.09.45.12.05.23.12.35.18,0,0,.01.01.01.03l.05.28v.03c-.12.1-.22.22-.32.33-.12.13.12.49.26.51.12.03.37-.1.49-.14h.03l.24.18s.01.01.01.03c0,.12-.04.41.03.51.05.1.28.13.39.15.19.05.32-.33.4-.48,0-.01.03-.03.05-.04l.24-.04s.04,0,.05.01" vector-effect="non-scaling-stroke"/>
  <path class="st25" d="M3.82,6.68c-.14-.01-.3,0-.42.03-.42.09-.55.36-.55.77v6.36c0,.4.24.76.68.71.03,0,.06-.03.03-.05" vector-effect="non-scaling-stroke"/>
  <path class="st12" d="M3.57,14.5h3.71" vector-effect="non-scaling-stroke"/>
  <path class="st0" d="M7.27,14.49v1.4" vector-effect="non-scaling-stroke"/>
  <path class="st12" d="M7.27,15.9h-.75c-.13.09-.13.18,0,.27h4.05c.13-.09.13-.18,0-.27h-.75" vector-effect="non-scaling-stroke"/>
  <path class="st0" d="M9.81,15.9v-1.4" vector-effect="non-scaling-stroke"/>
  <path class="st12" d="M9.81,14.5h3.96" vector-effect="non-scaling-stroke"/>
  <path class="st17" d="M13.77,14.49s0,.03.05.01c.44-.17.41-.55.4-.94,0,0,0-.01-.01-.03h-.01" vector-effect="non-scaling-stroke"/>
  <path class="st12" d="M14.18,13.54c-.01-.69,0-1.4,0-2.1" vector-effect="non-scaling-stroke"/>
  <path class="st18" d="M14.17,11.44c.15-.05.39-.05.35-.3-.03-.18-.06-.36-.09-.54v-.03l.28-.18h.03c.12.09.23.19.35.28.12.09.19.18.32.06.06-.06.23-.22.49-.49.09-.09.09-.18,0-.27l-.35-.42v-.03l.15-.28s.01-.01.03,0l.55.08c.12.01.18-.03.21-.12.06-.22.12-.44.18-.66.03-.12,0-.19-.12-.24-.17-.06-.35-.14-.51-.19,0,0-.01,0-.01-.03v-.32s.01-.03.03-.03c.17-.06.33-.12.49-.18.12-.04.17-.13.13-.24-.05-.21-.1-.42-.17-.63-.05-.21-.17-.17-.36-.14-.14.03-.27.04-.41.06,0,0-.03,0-.03-.01l-.15-.28v-.03c.12-.14.31-.33.39-.5.03-.06.01-.12-.03-.15-.17-.17-.33-.35-.5-.51-.1-.1-.17-.09-.27,0-.14.1-.27.22-.41.33h-.03l-.3-.18s-.01-.01,0-.03c.03-.18.05-.35.09-.53.03-.13-.03-.21-.15-.24-.23-.06-.46-.14-.69-.19-.06-.01-.1,0-.13.06l-.23.58s-.01.01-.03.01h-.37s-.03-.01-.03-.03l-.23-.58s-.06-.08-.13-.08c-.24.05-.49.1-.72.18-.12.04-.17.09-.14.21,0,.05.04.24.09.54,0,0,0,.03-.01.03l-.33.19h-.03l-.48-.39s-.12-.05-.17,0c-.18.17-.36.35-.54.53-.06.06-.06.13,0,.21.12.15.24.3.36.44v.03l-.21.36s-.01.01-.03,0c-.18-.04-.37-.06-.55-.09-.19-.03-.19.13-.24.26" vector-effect="non-scaling-stroke"/>
  <path class="st12" d="M9.52,6.76h-1.24" vector-effect="non-scaling-stroke"/>
  <path class="st26" d="M8.3,6.76V2.1c0-.37-.13-.44-.49-.44h-3.6c-.28,0-.37.09-.37.39-.01,1.04,0,1.83,0,2.82v1.83" vector-effect="non-scaling-stroke"/>
  <path class="st30" d="M8.3,6.76v.54" vector-effect="non-scaling-stroke"/>
  <path class="st44" d="M8.3,7.28c0,.54-.01,1.09,0,1.63,0,.22-.09.4-.32.4h-3.74c-.28,0-.39-.1-.39-.4v-1.63" vector-effect="non-scaling-stroke"/>
  <path class="st30" d="M3.82,7.3v-.54" vector-effect="non-scaling-stroke"/>
  <path class="st38" d="M3.81,6.76v-.06" vector-effect="non-scaling-stroke"/>
  <path class="st28" d="M3.81,6.76c-.36-.01-.71-.01-.85.33-.04.08-.05.21-.05.37,0,2.64-.01,4.77,0,6.39,0,.44.22.66.66.66" vector-effect="non-scaling-stroke"/>
  <path class="st16" d="M10.17,10.28H3.46" vector-effect="non-scaling-stroke"/>
  <path class="st27" d="M9.37,7.31h-1.07M3.82,7.3h-.35s-.01,0-.01.03c-.01.99,0,1.98,0,2.97" vector-effect="non-scaling-stroke"/>
  <path class="st35" d="M3.46,10.29v2.93s0,.01.01.01h10.11s.03,0,.01-.01v-1.67" vector-effect="non-scaling-stroke"/>
  <path class="st11" d="M14.18,13.54c0,.42.04.77-.41.95" vector-effect="non-scaling-stroke"/>
  <path class="st43" d="M9.81,14.5h-2.53" vector-effect="non-scaling-stroke"/>
  <path class="st2" d="M14.17,11.44c-.18.04-.39.13-.57.1" vector-effect="non-scaling-stroke"/>
  <path class="st41" d="M13.6,11.54c-.12-.19-.21-.4-.27-.62,0,0,0-.01-.03-.01h-.39s-.04,0-.04.03c-.05.17-.12.33-.19.5-.05.12-.12.17-.24.12-.06-.03-.27-.06-.62-.15-.1-.03-.15-.09-.13-.21.04-.23.06-.41.08-.55,0,0,0-.03-.01-.03l-.35-.19h-.03c-.14.13-.3.24-.45.37-.08.06-.15.05-.21-.01-.17-.18-.35-.34-.55-.49" vector-effect="non-scaling-stroke"/>
  <path class="st19" d="M10.17,10.28h.01v-.05c-.08-.12.23-.41.31-.51.05-.05.05-.12.01-.17l-.14-.23s-.06-.06-.13-.04c-.18.05-.37.08-.55.08h-.04c-.13-.09-.26-.73-.27-.8-.04-.18.09-.21.24-.27.12-.05.23-.09.36-.13,0,0,.01,0,.01-.03v-.36s0-.06-.05-.08c-.18-.08-.57-.15-.59-.39" vector-effect="non-scaling-stroke"/>
  <path class="st2" d="M9.37,7.31c.08-.17.13-.36.17-.55" vector-effect="non-scaling-stroke"/>
  <path class="st43" d="M9.81,15.9h-2.53" vector-effect="non-scaling-stroke"/>
  <path class="st14" d="M11.26,3.09c0-.51-.41-.93-.93-.93s-.93.41-.93.93.41.93.93.93.93-.41.93-.93" vector-effect="non-scaling-stroke"/>
  <path class="st3" d="M6.68,2.13c0-.09-.06-.15-.15-.15h-.95c-.09,0-.15.06-.15.15s.06.17.15.17h.95c.09,0,.15-.06.15-.15M4.93,2.13c0-.09-.06-.15-.15-.15s-.15.06-.15.15.06.15.15.15.15-.06.15-.15" vector-effect="non-scaling-stroke"/>
  <path class="st40" d="M4.13,6.76v1.6s0,.01.01.01h3.8s.01,0,.01-.01v-1.6" vector-effect="non-scaling-stroke"/>
  <path class="st29" d="M7.97,6.76V2.63s0-.01-.01-.01h-3.8s-.01,0-.01.01v4.13" vector-effect="non-scaling-stroke"/>
  <path class="st37" d="M7.97,6.76h-1.12" vector-effect="non-scaling-stroke"/>
  <path class="st47" d="M6.85,6.76c-.04-.21-.28-.21-.32,0" vector-effect="non-scaling-stroke"/>
  <path class="st37" d="M6.54,6.76h-.32" vector-effect="non-scaling-stroke"/>
  <path class="st47" d="M6.2,6.77c-.03-.22-.26-.21-.32,0" vector-effect="non-scaling-stroke"/>
  <path class="st37" d="M5.88,6.76h-.32" vector-effect="non-scaling-stroke"/>
  <path class="st20" d="M5.57,6.76c-.03-.22-.28-.19-.32,0" vector-effect="non-scaling-stroke"/>
  <path class="st37" d="M5.25,6.77h-1.12" vector-effect="non-scaling-stroke"/>
  <path class="st10" d="M6.2,6.77c-.04.23-.28.19-.32,0" vector-effect="non-scaling-stroke"/>
  <path class="st13" d="M5.57,6.76c0,.21-.27.22-.32,0" vector-effect="non-scaling-stroke"/>
  <path class="st10" d="M6.85,6.76c-.05.22-.3.21-.32,0" vector-effect="non-scaling-stroke"/>
  <path class="st3" d="M6.53,8.83c0-.09-.06-.15-.15-.15h-.64c-.09,0-.15.06-.15.15,0,.1.06.17.15.17h.64c.09,0,.15-.06.15-.15" vector-effect="non-scaling-stroke"/>
  <path class="st7" d="M7.64,2.92c0-.09-.06-.15-.15-.15h-2.87c-.09,0-.15.06-.15.15s.06.15.15.15h2.87c.09,0,.15-.06.15-.15" vector-effect="non-scaling-stroke"/>
  <path class="st45" d="M5.25,3.45c0-.12-.09-.21-.21-.21h-.39c-.12,0-.21.09-.21.21v.39c0,.12.09.21.21.21h.39c.12,0,.21-.09.21-.21v-.39" vector-effect="non-scaling-stroke"/>
  <path class="st15" d="M6.45,3.45c0-.12-.09-.21-.21-.21h-.4c-.12,0-.21.09-.21.21v.4c0,.12.09.21.21.21h.4c.12,0,.21-.09.21-.21v-.4" vector-effect="non-scaling-stroke"/>
  <path class="st8" d="M7.64,3.45c0-.12-.09-.21-.21-.21h-.39c-.12,0-.21.09-.21.21v.4c0,.12.09.21.21.21h.39c.12,0,.21-.09.21-.21v-.4" vector-effect="non-scaling-stroke"/>
  <path class="st22" d="M5.25,4.57c0-.12-.09-.21-.21-.21h-.39c-.12,0-.21.09-.21.21v.39c0,.12.09.21.21.21h.39c.12,0,.21-.09.21-.21v-.39" vector-effect="non-scaling-stroke"/>
  <path class="st34" d="M6.45,4.57c0-.12-.09-.19-.19-.19h-.4c-.12,0-.19.09-.19.19v.4c0,.12.09.19.19.19h.4c.12,0,.19-.09.19-.19v-.4" vector-effect="non-scaling-stroke"/>
  <path class="st36" d="M7.64,4.56c0-.1-.09-.19-.19-.19h-.41c-.1,0-.19.09-.19.19v.41c0,.1.09.19.19.19h.41c.1,0,.19-.09.19-.19v-.41" vector-effect="non-scaling-stroke"/>
  <path class="st45" d="M5.25,5.7c0-.12-.09-.21-.21-.21h-.37c-.12,0-.21.09-.21.21v.37c0,.12.09.21.21.21h.37c.12,0,.21-.09.21-.21v-.37" vector-effect="non-scaling-stroke"/>
  <path class="st33" d="M6.45,5.69c0-.12-.09-.21-.21-.21h-.39c-.12,0-.21.09-.21.21v.39c0,.12.09.21.21.21h.39c.12,0,.21-.09.21-.21v-.39" vector-effect="non-scaling-stroke"/>
  <path class="st5" d="M7.64,5.69c0-.12-.09-.21-.21-.21h-.4c-.12,0-.21.09-.21.21v.4c0,.12.09.21.21.21h.4c.12,0,.21-.09.21-.21v-.4" vector-effect="non-scaling-stroke"/>
  <path class="st21" d="M5.01,3.64c0-.09-.06-.15-.15-.15s-.15.06-.15.15.06.15.15.15.15-.06.15-.15" vector-effect="non-scaling-stroke"/>
  <path class="st32" d="M14.8,7.98c0-.96-.78-1.76-1.76-1.76s-1.76.78-1.76,1.76.78,1.76,1.76,1.76,1.76-.78,1.76-1.76" vector-effect="non-scaling-stroke"/>
  <path class="st1" d="M7.57,4.76c0-.18-.14-.32-.32-.32s-.32.14-.32.32.14.32.32.32.32-.14.32-.32" vector-effect="non-scaling-stroke"/>
  <path class="st39" d="M6.37,5.87c0-.08-.06-.15-.15-.14h-.33c-.08,0-.15.06-.14.15,0,.1.06.17.15.17h.33c.08,0,.15-.06.14-.15" vector-effect="non-scaling-stroke"/>
  <path class="st9" d="M14.45,7.98c0-.77-.63-1.4-1.4-1.4s-1.4.63-1.4,1.4.63,1.4,1.4,1.4,1.4-.63,1.4-1.4" vector-effect="non-scaling-stroke"/>
  <path class="st24" d="M8.87,13.85c0-.15-.13-.27-.27-.27s-.27.13-.27.27.13.27.27.27.27-.13.27-.27" vector-effect="non-scaling-stroke"/>
  <path class="st42" d="M5.25,7.45c0-.12-.09-.21-.21-.21h-.4c-.12,0-.21.09-.21.21v.39c0,.12.09.21.21.21h.4c.12,0,.21-.09.21-.21v-.39" vector-effect="non-scaling-stroke"/>
  <path class="st6" d="M6.45,7.44c0-.1-.09-.19-.19-.19h-.4c-.1,0-.19.09-.19.19v.4c0,.1.09.19.19.19h.4c.1,0,.19-.09.19-.19v-.4" vector-effect="non-scaling-stroke"/>
  <path class="st23" d="M7.64,7.44c0-.12-.09-.19-.21-.19h-.4c-.12,0-.19.09-.19.21v.4c0,.12.09.19.21.19h.4c.12,0,.19-.09.19-.21v-.4" vector-effect="non-scaling-stroke"/>
  <path class="st43" d="M8.65,7.09s.03-.06,0-.1l-.08-.06s-.06-.03-.1,0l-.06.06s-.03.06,0,.1l.08.06s.06.03.1,0l.06-.06" vector-effect="non-scaling-stroke"/>
  <path class="st4" d="M8.61,7.04s-.04-.08-.08-.08-.08.04-.08.08.04.08.08.08.08-.04.08-.08" vector-effect="non-scaling-stroke"/>
  <path class="st46" d="M5.01,7.64c0-.09-.06-.15-.15-.15s-.15.06-.15.15.06.15.15.15.15-.06.15-.15" vector-effect="non-scaling-stroke"/>
  <path class="st24" d="M8.76,13.85c0-.1-.08-.18-.18-.18s-.18.08-.18.18.08.18.18.18.18-.08.18-.18" vector-effect="non-scaling-stroke"/>
  <path class="st67" d="M11.22.29s-.03,0-.03.03v.03c2.84.75,5.09,2.77,6.15,5.51.05.14.1.28.14.44,0,0,0,.03.03.03h.03c.36,1.13.49,2.29.4,3.47-.09-.01-.08.19-.09.24-.03.18-.04.37-.06.49-.14.84-.36,1.6-.68,2.28-1.08,2.3-3.07,4.04-5.49,4.8-.03,0-.09.05,0,.05-1.8.55-3.77.53-5.54-.09.03-.01.03-.03,0-.04-2.75-.96-4.88-3.16-5.67-5.98,0-.01,0-.03-.03-.03h-.04c-.48-1.7-.46-3.38.04-5.07,0,0,.01.01.04.01,0,0,.01,0,.03-.03.06-.17.12-.35.18-.51.35-.99.86-1.88,1.54-2.66,1.02-1.2,2.25-2.06,3.72-2.61.04-.01.04-.04,0-.05,1.71-.66,3.58-.76,5.35-.3ZM10.76,4.53c.09.1.19.19.28.3.14.13.32,0,.46-.12.09-.08.1-.14.06-.26-.04-.12-.08-.23-.12-.36v-.03l.15-.21s.01-.01.03-.01c.19,0,.55.06.6-.17.05-.19.15-.37-.08-.5-.1-.05-.21-.12-.32-.17-.01,0-.03-.03-.04-.05l-.04-.19s0-.05.01-.06c.1-.09.39-.33.35-.48-.03-.08-.08-.17-.14-.27-.12-.15-.23-.1-.41-.04-.08.03-.15.05-.24.09h-.03l-.21-.17s-.01-.01-.01-.03c0-.12.04-.44-.03-.53-.06-.1-.27-.13-.39-.14-.21-.04-.31.3-.4.48,0,0-.01.01-.03.01l-.27.04h-.03l-.32-.32s-.1-.05-.15-.04c-.14.04-.42.19-.37.37,0,.04.05.18.14.41v.03l-.18.24s-.01.01-.03.01c-.19,0-.57-.09-.62.18-.04.17-.12.35.09.45.12.05.23.12.35.18,0,0,.01.01.01.03l.05.28v.03c-.12.1-.22.22-.32.33-.12.13.12.49.26.51.12.03.37-.1.49-.14h.03l.24.18s.01.01.01.03c0,.12-.04.41.03.51.05.1.28.13.39.15.19.05.32-.33.4-.48,0-.01.03-.03.05-.04l.24-.04s.04,0,.05.01l-.03-.04ZM3.82,6.68c-.14-.01-.3,0-.42.03-.42.09-.55.36-.55.77v6.36c0,.4.24.76.68.71.03,0,.06-.03.03-.05h3.71v1.4h-.75c-.13.09-.13.18,0,.27h4.05c.13-.09.13-.18,0-.27h-.75v-1.4h3.96s0,.03.05,0c.44-.17.41-.55.4-.94,0,0,0-.01-.01-.03h-.01c-.01-.71,0-1.4,0-2.11.15-.05.39-.05.35-.3-.03-.18-.06-.36-.09-.54v-.03l.28-.18h.03c.12.09.23.19.35.28.12.09.19.18.32.06.06-.06.23-.22.49-.49.09-.09.09-.18,0-.27l-.35-.42v-.03l.15-.28s.01-.01.03,0l.55.08c.12.01.18-.03.21-.12.06-.22.12-.44.18-.66.03-.12,0-.19-.12-.24-.17-.06-.35-.14-.51-.19,0,0-.01,0-.01-.03v-.32s.01-.03.03-.03c.17-.06.33-.12.49-.18.12-.04.17-.13.13-.24-.05-.21-.1-.42-.17-.63-.05-.21-.17-.17-.36-.14-.14.03-.27.04-.41.06,0,0-.03,0-.03-.01l-.15-.28v-.03c.12-.14.31-.33.39-.5.03-.06.01-.12-.03-.15-.17-.17-.33-.35-.5-.51-.1-.1-.17-.09-.27,0-.14.1-.27.22-.41.33h-.03l-.3-.18s-.01-.01,0-.03c.03-.18.05-.35.09-.53.03-.13-.03-.21-.15-.24-.23-.06-.46-.14-.69-.19-.06-.01-.1,0-.13.06l-.23.58s-.01.01-.03.01h-.37s-.03-.01-.03-.03l-.23-.58s-.06-.08-.13-.08c-.24.05-.49.1-.72.18-.12.04-.17.09-.14.21,0,.05.04.24.09.54,0,0,0,.03-.01.03l-.33.19h-.03l-.48-.39s-.12-.05-.17,0c-.18.17-.36.35-.54.53-.06.06-.06.13,0,.21.12.15.24.3.36.44v.03l-.21.36s-.01.01-.03,0c-.18-.04-.37-.06-.55-.09-.19-.03-.19.13-.24.26h-1.24V2.06c0-.37-.13-.44-.49-.44h-3.6c-.28,0-.37.09-.37.39-.01,1.04,0,1.83,0,2.82v1.85Z"/>
  <path class="st52" d="M11.22.29c3.01.8,5.38,3.02,6.32,6h-.03s-.01,0-.03-.03c-.04-.14-.09-.3-.14-.44-1.04-2.73-3.31-4.75-6.15-5.51,0,0-.01-.01,0-.03l.03-.03v.03Z"/>
  <path class="st49" d="M5.84.56s.04.04,0,.05c-1.47.55-2.7,1.42-3.72,2.61-.68.8-1.18,1.69-1.54,2.66-.06.17-.12.35-.18.51,0,0-.01.03-.03.03s-.03,0-.04-.01C1.16,3.68,3.19,1.56,5.84.56Z"/>
  <path class="st66" d="M10.76,4.53s-.04-.03-.05-.01l-.24.04s-.04.01-.05.04c-.08.14-.21.53-.4.48-.1-.03-.33-.05-.39-.15-.05-.1-.03-.39-.03-.51,0,0,0-.03-.01-.03l-.24-.18h-.03c-.12.04-.39.17-.49.14-.14-.03-.39-.39-.26-.51.1-.12.22-.22.32-.33v-.03l-.05-.28s0-.03-.01-.03c-.12-.06-.23-.12-.35-.18-.21-.1-.12-.28-.09-.45.05-.28.41-.19.62-.18,0,0,.03,0,.03-.01l.18-.24v-.03c-.08-.23-.13-.36-.14-.41-.05-.18.23-.33.37-.37.06-.03.12,0,.15.04l.32.32h.03l.27-.04s.03,0,.03-.01c.08-.18.19-.5.4-.48.12.01.32.04.39.14.06.09.04.41.03.53,0,0,0,.03.01.03l.21.17h.03c.08-.03.15-.06.24-.09.18-.06.3-.12.41.04.08.1.13.19.14.27.04.14-.24.39-.35.48-.01.01-.03.04-.01.06l.04.19s.01.05.04.05c.1.05.22.1.32.17.23.13.13.31.08.5-.06.23-.42.15-.6.17,0,0-.03,0-.03.01l-.15.21v.03c.04.12.08.24.12.36s.03.18-.06.26c-.14.12-.32.26-.46.12-.1-.09-.2-.19-.28-.3l.03.04ZM11.26,3.09c0-.51-.41-.93-.93-.93s-.93.41-.93.93.41.93.93.93.93-.41.93-.93Z"/>
  <path class="st68" d="M8.3,6.76v.54c-.01.54-.01,1.09,0,1.63,0,.22-.09.4-.32.4h-3.74c-.28,0-.39-.1-.39-.4V2.05c0-.28.1-.39.37-.39h3.6c.36,0,.49.08.49.44v4.66h-.01ZM6.68,2.13c0-.09-.06-.15-.15-.15h-.95c-.09,0-.15.06-.15.15s.06.17.15.17h.95c.09,0,.15-.06.15-.15h0ZM4.93,2.13c0-.09-.06-.15-.15-.15s-.15.06-.15.15.06.15.15.15.15-.06.15-.15ZM4.13,6.76v1.6s0,.01.01.01h3.8s.01,0,.01-.01V2.63s0-.01-.01-.01h-3.8s-.01,0-.01.01c0,0,0,4.13,0,4.13ZM6.53,8.83c0-.09-.06-.15-.15-.15h-.64c-.09,0-.15.06-.15.15,0,.1.06.17.15.17h.64c.09,0,.15-.06.15-.15h0Z"/>
  <rect class="st61" x="5.42" y="1.97" width="1.26" height=".32" rx=".15" ry=".15"/>
  <circle class="st61" cx="4.78" cy="2.13" r=".15"/>
  <circle class="st67" cx="10.33" cy="3.09" r=".93"/>
  <path class="st53" d="M7.97,6.76h-1.12c-.04-.19-.28-.19-.32,0h-.32c-.03-.22-.26-.19-.32,0h-.32c-.03-.22-.28-.18-.32.01h-1.12V2.63s0-.01.01-.01h3.8s.01,0,.01.01v4.13h.03ZM7.64,2.92c0-.09-.06-.15-.15-.15h-2.87c-.09,0-.15.06-.15.15s.06.15.15.15h2.87c.09,0,.15-.06.15-.15ZM5.25,3.45c0-.12-.09-.21-.21-.21h-.39c-.12,0-.21.09-.21.21v.39c0,.12.09.21.21.21h.39c.12,0,.21-.09.21-.21v-.39ZM6.45,3.45c0-.12-.09-.21-.21-.21h-.4c-.12,0-.21.09-.21.21v.4c0,.12.09.21.21.21h.4c.12,0,.21-.09.21-.21,0,0,0-.4,0-.4ZM7.64,3.45c0-.12-.09-.21-.21-.21h-.39c-.12,0-.21.09-.21.21v.4c0,.12.09.21.21.21h.39c.12,0,.21-.09.21-.21,0,0,0-.4,0-.4ZM5.25,4.57c0-.12-.09-.21-.21-.21h-.39c-.12,0-.21.09-.21.21v.39c0,.12.09.21.21.21h.39c.12,0,.21-.09.21-.21v-.39ZM6.45,4.57c0-.12-.09-.19-.19-.19h-.4c-.12,0-.19.09-.19.19v.4c0,.12.09.19.19.19h.4c.12,0,.19-.09.19-.19v-.4ZM7.64,4.56c0-.1-.09-.19-.19-.19h-.41c-.1,0-.19.09-.19.19v.41c0,.1.09.19.19.19h.41c.1,0,.19-.09.19-.19v-.41ZM5.25,5.7c0-.12-.09-.21-.21-.21h-.37c-.12,0-.21.09-.21.21v.37c0,.12.09.21.21.21h.37c.12,0,.21-.09.21-.21v-.37ZM6.45,5.69c0-.12-.09-.21-.21-.21h-.39c-.12,0-.21.09-.21.21v.39c0,.12.09.21.21.21h.39c.12,0,.21-.09.21-.21v-.39ZM7.64,5.69c0-.12-.09-.21-.21-.21h-.4c-.12,0-.21.09-.21.21v.4c0,.12.09.21.21.21h.4c.12,0,.21-.09.21-.21v-.4Z"/>
  <rect class="st74" x="4.45" y="2.77" width="3.19" height=".32" rx=".15" ry=".15"/>
  <path class="st65" d="M5.25,3.84c0,.12-.09.21-.21.21h-.39c-.12,0-.21-.09-.21-.21v-.39c0-.12.09-.21.21-.21h.39c.12,0,.21.09.21.21v.39ZM5.01,3.64c0-.09-.06-.15-.15-.15s-.15.06-.15.15.06.15.15.15.15-.06.15-.15Z"/>
  <rect class="st57" x="5.66" y="3.25" width=".8" height=".8" rx=".21" ry=".21" transform="translate(2.4 9.7) rotate(-89.9)"/>
  <rect class="st73" x="6.86" y="3.26" width=".8" height=".8" rx=".21" ry=".21" transform="translate(3.58 10.9) rotate(-89.8)"/>
  <circle class="st69" cx="4.85" cy="3.64" r=".15"/>
  <path class="st51" d="M14.17,11.44c-.18.04-.39.13-.57.1-.12-.19-.21-.4-.27-.62,0,0,0-.01-.03-.01h-.39s-.04,0-.04.03c-.05.17-.12.33-.19.5-.05.12-.12.17-.24.12-.06-.03-.27-.06-.62-.15-.1-.03-.15-.09-.13-.21.04-.23.06-.41.08-.55,0,0,0-.03-.01-.03l-.35-.19h-.03c-.14.13-.3.24-.45.37-.08.06-.15.05-.21-.01-.17-.18-.35-.34-.55-.49h.01v-.05c-.08-.12.23-.41.31-.51.05-.05.05-.12.01-.17l-.14-.23s-.06-.06-.13-.04c-.18.05-.37.08-.55.08h-.04c-.13-.09-.26-.73-.27-.8-.04-.18.09-.21.24-.27.12-.05.23-.09.36-.13,0,0,.01,0,.01-.03v-.36s0-.06-.05-.08c-.18-.08-.57-.15-.59-.39.08-.17.13-.36.17-.55.05-.12.04-.28.24-.26.18.03.37.05.55.09h.03l.21-.36v-.03c-.13-.14-.24-.3-.36-.44-.05-.06-.05-.15,0-.21.18-.18.36-.36.54-.53.05-.05.12-.05.17,0l.48.39h.03l.33-.19s.01-.01.01-.03c-.05-.31-.08-.49-.09-.54-.03-.12.03-.18.14-.21.24-.06.48-.13.72-.18.06,0,.1,0,.13.08l.23.58s.01.01.03.01h.4l.23-.58s.06-.08.13-.06l.69.19c.12.04.17.12.15.24-.03.18-.05.35-.09.53v.03l.3.18h.03l.41-.33c.1-.08.17-.09.27,0,.17.17.33.33.5.51.04.05.05.1.03.15-.08.17-.27.35-.39.5v.03l.15.28s.01.01.03.01c.14-.03.27-.05.41-.06.18-.03.31-.08.36.14.05.21.1.42.17.63.03.13,0,.21-.13.24-.17.06-.32.12-.49.18,0,0-.01.01-.01.03v.35c.18.06.35.13.51.19.12.05.14.13.12.24-.05.22-.12.44-.18.66-.03.09-.09.13-.21.12l-.55-.08h-.03l-.15.28v.03l.35.42c.08.09.08.19,0,.27-.26.27-.42.42-.49.49-.12.12-.21.03-.32-.06s-.23-.19-.35-.28h-.03l-.28.18s-.01.01,0,.03c.03.18.05.36.09.54.04.23-.19.24-.35.3l-.03-.03ZM14.8,7.98c0-.96-.78-1.76-1.76-1.76s-1.76.78-1.76,1.76.78,1.76,1.76,1.76,1.76-.78,1.76-1.76Z"/>
  <rect class="st76" x="4.46" y="4.36" width=".8" height=".8" rx=".21" ry=".21" transform="translate(0 0) rotate(-.1)"/>
  <rect class="st48" x="5.65" y="4.37" width=".78" height=".8" rx=".19" ry=".19" transform="translate(1.27 10.8) rotate(-89.9)"/>
  <path class="st58" d="M7.64,4.97c0,.1-.09.19-.19.19h-.41c-.1,0-.19-.09-.19-.19v-.41c0-.1.09-.19.19-.19h.41c.1,0,.19.09.19.19v.41ZM7.57,4.76c0-.18-.14-.32-.32-.32s-.32.14-.32.32.14.32.32.32.32-.14.32-.32Z"/>
  <circle class="st62" cx="7.25" cy="4.76" r=".32"/>
  <rect class="st65" x="4.45" y="5.48" width=".8" height=".8" rx=".21" ry=".21"/>
  <path class="st50" d="M6.45,6.07c0,.12-.09.21-.21.21h-.39c-.12,0-.21-.09-.21-.21v-.39c0-.12.09-.21.21-.21h.39c.12,0,.21.09.21.21v.39ZM6.37,5.87c0-.08-.06-.15-.15-.14h-.33c-.08,0-.15.06-.14.15,0,.1.06.17.15.17h.33c.08,0,.15-.06.14-.15v-.03Z"/>
  <rect class="st54" x="6.86" y="5.47" width=".8" height=".8" rx=".21" ry=".21" transform="translate(-.01 .01) rotate(-.1)"/>
  <path class="st72" d="M5.9,5.72h.32c.09,0,.15.07.16.15h0c0,.09-.07.15-.15.16h-.32c-.09,0-.15-.07-.16-.15h0c0-.09.07-.15.15-.16Z"/>
  <path class="st55" d="M14.8,7.98c0,.96-.78,1.76-1.76,1.76s-1.76-.78-1.76-1.76.78-1.76,1.76-1.76,1.76.78,1.76,1.76ZM14.45,7.98c0-.77-.63-1.4-1.4-1.4s-1.4.63-1.4,1.4.63,1.4,1.4,1.4,1.4-.63,1.4-1.4Z"/>
  <circle class="st59" cx="13.05" cy="7.98" r="1.4"/>
  <path class="st61" d="M5.57,6.76c0,.21-.27.22-.32,0,.04-.21.3-.23.32,0Z"/>
  <path class="st78" d="M6.2,6.77c-.04.23-.28.19-.32,0,.06-.19.3-.21.32,0ZM6.85,6.76c-.05.22-.3.21-.32,0,.04-.21.28-.21.32,0Z"/>
  <path class="st63" d="M3.82,6.68v.06c-.36-.01-.71-.01-.85.33-.04.08-.05.21-.05.37,0,2.64-.01,4.77,0,6.39,0,.44.22.66.66.66.04.03,0,.05-.03.05-.44.05-.68-.32-.68-.71v-6.36c0-.4.12-.68.55-.77.14-.03.28-.04.42-.03h-.03Z"/>
  <path class="st64" d="M3.81,6.76v.54h-.33s-.01,0-.01.01c-.01.99,0,1.98,0,2.97v2.93s0,.01.01.01h10.11s.03,0,.01-.01v-1.67c.17.03.37-.06.55-.1.01.69,0,1.4,0,2.1,0,.42.04.77-.41.95H3.54c-.44,0-.66-.22-.66-.66v-6.39c0-.17.01-.3.05-.37.15-.35.49-.35.85-.33l.03.03ZM8.87,13.85c0-.15-.13-.27-.27-.27s-.27.13-.27.27.13.27.27.27.27-.13.27-.27Z"/>
  <path class="st60" d="M4.13,6.76h1.12c.05.22.32.22.32,0h.32c.04.19.3.23.32,0h.32c.03.21.27.21.32,0h1.12v1.58s0,.01-.01.01h-3.8s-.01,0-.01-.01v-1.6h-.03ZM5.25,7.45c0-.12-.09-.21-.21-.21h-.4c-.12,0-.21.09-.21.21v.39c0,.12.09.21.21.21h.4c.12,0,.21-.09.21-.21v-.39ZM6.45,7.44c0-.1-.09-.19-.19-.19h-.4c-.1,0-.19.09-.19.19v.4c0,.1.09.19.19.19h.4c.1,0,.19-.09.19-.19v-.4ZM7.64,7.44c0-.12-.09-.19-.21-.19h-.4c-.12,0-.19.09-.19.21v.4c0,.12.09.19.21.19h.4c.12,0,.19-.09.19-.21v-.4Z"/>
  <path class="st64" d="M8.3,6.76h1.24c-.04.19-.09.37-.17.55h-1.07v-.55ZM8.65,7.09s.03-.06,0-.1l-.08-.06s-.06-.03-.1,0l-.06.06s-.03.06,0,.1l.08.06s.06.03.1,0l.06-.06Z"/>
  <path class="st77" d="M8.58,7.16s-.06.03-.1,0l-.08-.06s-.03-.06,0-.1l.06-.06s.06-.03.1,0l.08.06s.03.06,0,.1l-.06.06ZM8.61,7.04s-.04-.08-.08-.08-.08.04-.08.08.04.08.08.08.08-.04.08-.08Z"/>
  <circle class="st55" cx="8.55" cy="7.04" r=".08"/>
  <path class="st76" d="M5.25,7.84c0,.12-.09.21-.21.21h-.4c-.12,0-.21-.09-.21-.21v-.39c0-.12.09-.21.21-.21h.4c.12,0,.21.09.21.21v.39ZM5.01,7.64c0-.09-.06-.15-.15-.15s-.15.06-.15.15.06.15.15.15.15-.06.15-.15Z"/>
  <rect class="st56" x="5.66" y="7.25" width=".8" height=".8" rx=".19" ry=".19" transform="translate(-1.61 13.68) rotate(-89.8)"/>
  <rect class="st74" x="6.85" y="7.25" width=".78" height=".8" rx=".19" ry=".19" transform="translate(-.04 .04) rotate(-.3)"/>
  <path class="st70" d="M8.3,7.28h1.07c.03.24.41.32.59.4.04.01.06.04.06.08v.36s-.01.03-.03.03c-.12.04-.24.08-.36.13-.15.06-.28.09-.24.27,0,.06.14.71.27.8h.04c.19,0,.37-.03.55-.08.05-.01.1,0,.13.04l.14.23s.03.12-.01.17c-.08.1-.39.4-.31.51v.03h-.01l-6.7.03c-.03-.99-.03-1.98,0-2.97,0,0,0-.01.01-.01h.35v1.62c0,.3.1.4.39.4h3.74c.23,0,.33-.18.32-.4v-1.63h0Z"/>
  <circle class="st62" cx="4.85" cy="7.64" r=".15"/>
  <rect class="st61" x="5.89" y="8.36" width=".32" height=".95" rx=".15" ry=".15" transform="translate(-2.8 14.87) rotate(-89.9)"/>
  <path class="st49" d="M17.94,9.75c-.33,3.71-2.79,6.77-6.34,7.86-.08,0,0-.04,0-.05,2.43-.75,4.43-2.49,5.49-4.8.32-.69.55-1.45.68-2.28.03-.13.04-.32.06-.49,0-.05,0-.27.09-.24h.01Z"/>
  <path class="st75" d="M3.46,10.29h6.7c.19.14.39.31.55.49.06.06.13.08.21.01.15-.12.31-.24.45-.37h.03l.35.19s.01.01.01.03c-.01.14-.04.32-.08.55-.01.1.03.18.13.21.35.08.55.13.62.15.13.04.19,0,.24-.12.08-.17.13-.32.19-.5,0-.03.03-.04.04-.04h.39s.03,0,.03.03c.06.22.15.42.27.62v1.69H3.49s-.01,0-.01-.01v-2.93h-.01Z"/>
  <path class="st52" d="M6.04,17.52c-2.78-.96-4.93-3.22-5.74-6.05h.04s.01,0,.03.03c.81,2.82,2.92,5.02,5.67,5.98.04,0,.04.03,0,.04ZM14.18,13.54h.01v.03c.03.39.05.77-.39.94-.04.01-.05,0-.05-.01.46-.19.41-.53.41-.95h.01Z"/>
  <path class="st71" d="M8.87,13.85c0,.15-.13.27-.27.27s-.27-.13-.27-.27.13-.27.27-.27.27.13.27.27ZM8.76,13.85c0-.1-.08-.18-.18-.18s-.18.08-.18.18.08.18.18.18.18-.08.18-.18Z"/>
  <circle class="st64" cx="8.58" cy="13.85" r=".18"/>
  <path class="st77" d="M9.81,14.5v1.4h-2.53v-1.4h2.53Z"/>
  <path class="st64" d="M9.81,15.9h.75c.13.09.13.18,0,.27h-4.05c-.13-.09-.13-.18,0-.27h3.31Z"/>
</svg>
